<svg width="24" height="24" viewBox="0 0 24 24" fill="none" xmlns="http://www.w3.org/2000/svg">
<g clip-path="url(#clip0_18168_41891)">
<path d="M5.12606 0.382606L15.942 6.57952L11.1584 11.2927L1.25806 1.54471C1.44569 1.15558 1.72403 0.814383 2.0724 0.55137C2.5478 0.192452 3.12752 -0.00117508 3.72319 5.36551e-06C4.21641 0.00133073 4.70046 0.133346 5.12606 0.382606Z" fill="#0A0A0A"/>
<path d="M1 2.694V21.3018L10.446 11.9947L1 2.694Z" fill="#0A0A0A"/>
<path d="M11.1586 12.6964L1.25701 22.4524C1.36818 22.6836 1.51172 22.8988 1.68395 23.0911C1.96169 23.4012 2.30667 23.6437 2.6925 23.8001C3.07833 23.9564 3.49481 24.0225 3.91009 23.9932C4.32537 23.964 4.72846 23.8401 5.08855 23.6312L15.9701 17.4338L11.1586 12.6964Z" fill="#0A0A0A"/>
<path d="M16.8795 16.9259L21.3229 14.3888C21.7536 14.1633 22.1143 13.8242 22.366 13.4083C22.6177 12.9924 22.7508 12.5156 22.7508 12.0294C22.7508 11.5433 22.6177 11.0664 22.366 10.6505C22.1143 10.2346 21.7536 9.89554 21.3229 9.67005H21.3379L16.843 7.09564L11.8711 11.9944L16.8795 16.9259Z" fill="#0A0A0A"/>
</g>
<defs>
<clipPath id="clip0_18168_41891">
<rect width="24" height="24" fill="white"/>
</clipPath>
</defs>
</svg>
