<svg width="24" height="24" viewBox="0 0 24 24" fill="none" xmlns="http://www.w3.org/2000/svg">
<path d="M24 12C24 18.6271 18.6271 24 12 24C5.37209 24 0 18.6271 0 12C0 5.37209 5.3725 0 12 0C18.6271 0 24 5.3725 24 12Z" fill="#DA552F"/>
<path d="M13.5995 12H10.1998V8.4H13.5995C13.8359 8.4 14.07 8.44656 14.2884 8.53702C14.5067 8.62748 14.7052 8.76006 14.8723 8.92721C15.0395 9.09435 15.1721 9.29278 15.2625 9.51117C15.353 9.72956 15.3995 9.96362 15.3995 10.2C15.3995 10.4364 15.353 10.6704 15.2625 10.8888C15.1721 11.1072 15.0395 11.3056 14.8723 11.4728C14.7052 11.6399 14.5067 11.7725 14.2884 11.863C14.07 11.9534 13.8359 12 13.5995 12ZM13.5995 6H7.7998V18H10.1998V14.4H13.5995C15.9191 14.4 17.7995 12.5196 17.7995 10.2C17.7995 7.88044 15.9191 6 13.5995 6Z" fill="white"/>
</svg>
