<svg width="24" height="24" viewBox="0 0 24 24" fill="none" xmlns="http://www.w3.org/2000/svg">
<path d="M12.7498 8.00026C14.6829 8.00026 16.25 6.43314 16.25 4.50001C16.25 2.56687 14.6829 0.999756 12.7498 0.999756C10.8166 0.999756 9.24951 2.56687 9.24951 4.50001C9.24951 6.43314 10.8166 8.00026 12.7498 8.00026Z" fill="#7B83EB"/>
<path opacity="0.1" d="M12.5003 5.25024H9.33008L9.34583 5.31999L9.34733 5.32599L9.36383 5.39049C9.59418 6.26402 10.1531 7.0148 10.9238 7.48605C11.6946 7.9573 12.6176 8.11259 13.5001 7.91949V6.24999C13.4993 5.98509 13.3937 5.73126 13.2064 5.54394C13.0191 5.35662 12.7652 5.25104 12.5003 5.25024Z" fill="black"/>
<path opacity="0.2" d="M11.7509 6.00024H9.58789C9.87177 6.59876 10.3197 7.10444 10.8795 7.45852C11.4394 7.81259 12.0882 8.00053 12.7506 8.00049V6.99999C12.7498 6.73509 12.6443 6.48126 12.4569 6.29394C12.2696 6.10662 12.0158 6.00104 11.7509 6.00024Z" fill="black"/>
<path d="M20.6255 8.25C22.0752 8.25 23.2505 7.07475 23.2505 5.625C23.2505 4.17525 22.0752 3 20.6255 3C19.1757 3 18.0005 4.17525 18.0005 5.625C18.0005 7.07475 19.1757 8.25 20.6255 8.25Z" fill="#5059C9"/>
<path d="M22.8749 9.00024H16.9792C16.8519 9.00024 16.7298 9.05082 16.6398 9.14083C16.5498 9.23085 16.4992 9.35294 16.4992 9.48024V15.5627C16.4829 16.4431 16.7696 17.3022 17.3113 17.9964C17.8529 18.6905 18.6166 19.1775 19.4744 19.3757C20.0208 19.4904 20.5859 19.4817 21.1285 19.3504C21.6711 19.2191 22.1776 18.9685 22.6111 18.6167C23.0446 18.265 23.3942 17.821 23.6344 17.3171C23.8747 16.8132 23.9996 16.262 23.9999 15.7037V10.1252C23.9999 9.82688 23.8814 9.54073 23.6704 9.32975C23.4595 9.11877 23.1733 9.00024 22.8749 9.00024Z" fill="#5059C9"/>
<path d="M18.7495 10.1252V17.2502C18.7502 18.5707 18.3151 19.8544 17.5117 20.9022C16.7082 21.9501 15.5814 22.7034 14.306 23.0453C13.0306 23.3872 11.6781 23.2986 10.4582 22.7932C9.23833 22.2878 8.21939 21.3939 7.55951 20.2502C7.41519 20.0104 7.28981 19.7596 7.18451 19.5002C7.08635 19.2557 7.00368 19.0052 6.93701 18.7502C6.81337 18.2598 6.75039 17.756 6.74951 17.2502V10.1252C6.74932 9.97745 6.77828 9.83107 6.83475 9.69449C6.89121 9.55791 6.97407 9.43382 7.07858 9.32931C7.18308 9.2248 7.30718 9.14195 7.44376 9.08548C7.58034 9.02901 7.72672 9.00005 7.87451 9.00025H17.6245C17.7723 9.00005 17.9187 9.02901 18.0553 9.08548C18.1918 9.14195 18.3159 9.2248 18.4204 9.32931C18.5249 9.43382 18.6078 9.55791 18.6643 9.69449C18.7207 9.83107 18.7497 9.97745 18.7495 10.1252Z" fill="#7B83EB"/>
<path opacity="0.2" d="M11.7509 6.00024H9.58789C9.87177 6.59876 10.3197 7.10444 10.8795 7.45852C11.4394 7.81259 12.0882 8.00053 12.7506 8.00049V6.99999C12.7498 6.73509 12.6443 6.48126 12.4569 6.29394C12.2696 6.10662 12.0158 6.00104 11.7509 6.00024Z" fill="black"/>
<path opacity="0.1" d="M13.4995 9.00025V18.5027C13.4995 18.7288 13.4221 18.9481 13.2802 19.1241C13.1383 19.3001 12.9405 19.4223 12.7195 19.4702C12.649 19.4912 12.5756 19.5014 12.502 19.5002H7.18451C7.08635 19.2557 7.00368 19.0052 6.93701 18.7502C6.81337 18.2598 6.75039 17.756 6.74951 17.2502V10.1252C6.74932 9.97745 6.77828 9.83107 6.83475 9.69449C6.89121 9.55791 6.97407 9.43382 7.07858 9.32931C7.18308 9.2248 7.30718 9.14195 7.44376 9.08548C7.58034 9.02901 7.72672 9.00005 7.87451 9.00025H13.4995Z" fill="black"/>
<path opacity="0.2" d="M12.7495 9.00025V19.2527C12.7506 19.3263 12.7405 19.3997 12.7195 19.4702C12.6716 19.6912 12.5494 19.8891 12.3734 20.031C12.1974 20.1729 11.9781 20.2503 11.752 20.2502H7.55951C7.41519 20.0104 7.28981 19.7596 7.18451 19.5002C7.08635 19.2557 7.00368 19.0052 6.93701 18.7502C6.81337 18.2598 6.75039 17.756 6.74951 17.2502V10.1252C6.74932 9.97745 6.77828 9.83107 6.83475 9.69449C6.89121 9.55791 6.97407 9.43382 7.07858 9.32931C7.18308 9.2248 7.30718 9.14195 7.44376 9.08548C7.58034 9.02901 7.72672 9.00005 7.87451 9.00025H12.7495Z" fill="black"/>
<path opacity="0.2" d="M12.7495 9.00025V17.7527C12.7483 18.0169 12.6429 18.27 12.456 18.4568C12.2692 18.6436 12.0162 18.7491 11.752 18.7502H6.93701C6.81337 18.2598 6.75039 17.756 6.74951 17.2502V10.1252C6.74932 9.97745 6.77828 9.83107 6.83475 9.69449C6.89121 9.55791 6.97407 9.43382 7.07858 9.32931C7.18308 9.2248 7.30718 9.14195 7.44376 9.08548C7.58034 9.02901 7.72672 9.00005 7.87451 9.00025H12.7495Z" fill="black"/>
<path opacity="0.2" d="M7.87451 9.00025C7.72672 9.00005 7.58034 9.02901 7.44376 9.08548C7.30718 9.14195 7.18308 9.2248 7.07858 9.32931C6.97407 9.43382 6.89121 9.55791 6.83475 9.69449C6.77828 9.83107 6.74932 9.97745 6.74951 10.1252V17.2502C6.75039 17.756 6.81337 18.2598 6.93701 18.7502H11.002C11.2662 18.7491 11.5192 18.6436 11.706 18.4568C11.8929 18.27 11.9983 18.0169 11.9995 17.7527V9.00025H7.87451Z" fill="black"/>
<path d="M0.999749 6.00024H11.0002C11.2654 6.00024 11.5197 6.10557 11.7072 6.29306C11.8947 6.48055 12 6.73484 12 6.99999V17.0005C12 17.2656 11.8947 17.5199 11.7072 17.7074C11.5197 17.8949 11.2654 18.0002 11.0002 18.0002H0.999749C0.734599 18.0002 0.480309 17.8949 0.29282 17.7074C0.10533 17.5199 0 17.2656 0 17.0005L0 6.99999C0 6.73484 0.10533 6.48055 0.29282 6.29306C0.480309 6.10557 0.734599 6.00024 0.999749 6.00024Z" fill="#4B53BC"/>
<path d="M8.98513 9.73141H6.74263V15.7464H5.27114V9.73141H3.01514V8.25391H8.98513V9.73141Z" fill="white"/>
</svg>
