<svg width="250" height="250" viewBox="0 0 250 250" fill="none" xmlns="http://www.w3.org/2000/svg">
<path d="M8.15422 184.565C11.8493 184.532 19.8894 190.019 23.3705 192.118C35.9491 199.701 48.2118 206.479 62.0016 211.725C67.4422 213.795 72.6607 215.222 78.1148 217.072C105.075 226.217 135.394 225.974 162.982 219.833C166.277 219.101 169.495 217.706 172.709 216.903C185.821 213.629 198.472 208.674 210.888 203.388C213.693 202.194 220.869 198.638 220.835 204.446C220.66 207.718 213.863 213.151 211.342 215.162C209.043 216.958 206.734 219.413 204.353 221C166.237 246.382 115.75 253.645 73.0919 235.648C63.578 231.633 54.4442 227.614 45.5797 222.237C41.9869 220.179 38.7342 216.973 35.2984 214.782C25.1715 208.324 17.2604 200.219 9.06052 191.581C6.95386 189.361 3.9895 186.62 8.15422 184.565Z" fill="#0A0A0A"/>
<path d="M222.771 182.46C226.75 181.957 244.179 182.264 244.726 187.976C245.593 197.035 242.062 207.804 237.425 215.559C235.733 218.388 228.641 230.449 224.366 227.928C223.443 225.901 226.353 220.73 226.94 217.921C228.555 212.276 233.456 201.027 231.694 195.068C230.382 190.634 215.332 192.125 211.318 192.26C208.325 192.361 201.454 193.896 198.079 192.933C197.527 192.776 197.479 192.492 197.318 192.063C197.403 191.679 197.58 191.197 197.867 190.914C204.571 184.317 214.099 183.484 222.771 182.46Z" fill="#0A0A0A"/>
<path d="M117.465 0H140.064C141.444 0.854363 146.438 1.22734 148.328 1.6638C155.337 3.2821 163.643 5.38437 169.653 9.44556C176.329 13.9566 182.775 18.851 186.55 26.1238C194.264 40.9856 192.84 61.8935 192.836 78.3655L192.82 110.716C192.817 120.875 191.969 129.546 196.059 139.177C197.683 143.674 210.827 155.8 205.762 160.514C197.994 167.688 189.155 174.096 181.688 181.65C175.037 188.378 169.224 181.86 164.666 176.647C160.644 172.048 157.094 166.958 153.181 162.268C142.048 174.391 127.392 184.316 110.613 185.248C94.6292 186.135 81.0027 185.866 67.9949 174.975C56.8133 165.613 52.8985 152.987 51.3826 138.936C50.4685 123.929 55.2071 108.004 65.1221 96.5774C69.3955 91.6523 70.2708 90.937 75.564 87.3518C89.0479 78.2187 104.417 76.0557 120.03 73.5818C129.356 72.104 137.446 71.0591 146.852 70.259C147.271 57.9651 148.636 40.304 133.599 36.1846C121.15 32.8618 105.092 36.1509 100.461 49.7187C98.9029 54.2844 99.1021 57.6587 94.4134 60.1223C90.8045 60.2249 63.918 57.4329 61.0083 56.4319C59.6367 55.96 58.2376 55.3457 57.5955 53.9604C55.815 50.1194 58.4304 42.8684 59.8206 39.1768C61.4143 34.9446 63.3987 30.5337 65.9532 26.7947C70.7657 19.7506 80.7014 11.6803 88.4097 7.9407C92.9256 5.7498 98.0501 4.20654 102.906 2.95303C104.805 2.46277 106.73 1.95354 108.666 1.6355C111.332 1.19745 114.848 1.22583 117.285 0.0856145L117.465 0ZM106.42 148.282C117 156.288 131.688 151.264 138.974 141.2C148.098 128.598 147.041 111.968 146.922 97.1641C145.928 97.21 144.735 97.2986 143.757 97.2988C121.257 97.7964 98.6773 102.681 99.1892 130.009C99.3103 136.461 101.033 143.213 105.848 147.757C106.036 147.935 106.227 148.11 106.42 148.282Z" fill="#0A0A0A"/>
</svg>
