<svg width="24" height="24" viewBox="0 0 24 24" fill="none" xmlns="http://www.w3.org/2000/svg">
<path fill-rule="evenodd" clip-rule="evenodd" d="M15.8503 10.3226C14.8693 11.3036 13.5068 11.9213 11.9989 11.9213C10.5093 11.9213 9.12859 11.3036 8.14758 10.3226C7.16657 9.34163 6.5489 7.97912 6.5489 6.47128C6.5489 4.96343 7.16657 3.60092 8.14758 2.61992C9.12859 1.63891 10.4911 1.02124 11.9989 1.02124C13.5068 1.02124 14.8693 1.63891 15.8503 2.61992C16.8313 3.60092 17.449 4.96343 17.449 6.47128C17.449 7.97912 16.8313 9.34163 15.8503 10.3226ZM11.9989 3.98243C11.3268 3.98243 10.7091 4.25493 10.2549 4.7091C9.81892 5.16327 9.52825 5.78094 9.52825 6.45311C9.52825 7.12528 9.80075 7.74295 10.2549 8.19712C10.6909 8.65129 11.3086 8.92379 11.9989 8.92379C12.6711 8.92379 13.2888 8.65129 13.743 8.19712C14.1971 7.76112 14.4697 7.14345 14.4697 6.45311C14.4697 5.78094 14.1971 5.16327 13.743 4.7091C13.307 4.25493 12.6893 3.98243 11.9989 3.98243Z" fill="#0A0A0A"/>
<path d="M17.7397 11.9395L19.3384 14.1195C19.4292 14.2285 19.4111 14.3738 19.2657 14.4647C17.9214 15.5729 16.359 16.2995 14.724 16.681L18.1031 22.6397C18.1939 22.8214 18.0849 23.0212 17.8851 23.0212H14.5787C14.4697 23.0212 14.3789 22.9486 14.3425 22.8577L11.9808 17.5894L9.61914 22.8577C9.5828 22.9667 9.49197 23.0212 9.38297 23.0212H6.0766C5.89493 23.0212 5.76776 22.8032 5.8586 22.6397L9.23763 16.681C7.60262 16.2995 6.04027 15.5547 4.69592 14.4647C4.60508 14.3738 4.58692 14.2285 4.65959 14.1195L6.25827 11.9395C6.3491 11.8305 6.53077 11.8123 6.63977 11.9032C8.14762 13.193 10.0006 14.0287 11.999 14.0287C13.9973 14.0287 15.8504 13.193 17.3582 11.9032C17.4672 11.7942 17.6489 11.8123 17.7397 11.9395Z" fill="#0A0A0A"/>
</svg>
