<svg width="40" height="40" viewBox="0 0 40 40" fill="none" xmlns="http://www.w3.org/2000/svg">
<path d="M19.9999 40C-6.66889 39.5287 -6.66465 0.467469 20.0008 0C46.6687 0.471303 46.6644 39.5325 19.9999 40Z" fill="#A1B1B3"/>
<path d="M17.1832 18.0598C17.5972 18.0598 17.9328 17.7242 17.9328 17.3102C17.9328 16.8962 17.5972 16.5605 17.1832 16.5605C16.7692 16.5605 16.4336 16.8962 16.4336 17.3102C16.4336 17.7242 16.7692 18.0598 17.1832 18.0598Z" fill="white"/>
<path d="M24.3458 16.2083H23.1147V17.8172H22.2859V18.969H23.1147V21.2849C23.1147 21.742 23.1696 22.1138 23.2854 22.4002C23.384 22.6625 23.5451 22.8968 23.7547 23.0828C23.9582 23.2501 24.1983 23.367 24.4555 23.4241C24.7001 23.4892 24.9521 23.522 25.2051 23.5216H26.1315V22.4246H25.3331C25.2031 22.4252 25.0738 22.4067 24.9492 22.3698C24.8312 22.3332 24.723 22.2707 24.6323 22.1869C24.5352 22.0892 24.4622 21.9703 24.419 21.8395C24.3601 21.6566 24.3333 21.4648 24.3397 21.2728V18.969H26.1437V17.8172H24.3458V16.2083Z" fill="white"/>
<path d="M14.8011 19.7665C14.8037 19.259 14.6999 18.7565 14.4964 18.2916C14.2948 17.8434 14.0093 17.438 13.6553 17.0971C13.2991 16.7527 12.8788 16.4814 12.4181 16.2987C11.7037 16.0066 10.9202 15.9266 10.1615 16.0682C9.40272 16.2097 8.70084 16.567 8.13983 17.0971C7.78965 17.4385 7.50827 17.8441 7.31098 18.2916C7.10592 18.7552 7 19.2565 7 19.7634C7 20.2703 7.10592 20.7716 7.31098 21.2352C7.50665 21.6837 7.78823 22.0895 8.13983 22.4297C8.49927 22.7732 8.91858 23.0479 9.37701 23.2403C9.86068 23.4371 10.3784 23.5366 10.9006 23.5328C11.2628 23.5333 11.6234 23.4861 11.9732 23.3927C12.3085 23.2984 12.6301 23.1611 12.9301 22.9843L13.6858 23.7462C13.8038 23.8641 13.9638 23.9304 14.1307 23.9304C14.2976 23.9304 14.4576 23.8641 14.5756 23.7462C14.6936 23.6282 14.7599 23.4681 14.7599 23.3013C14.7599 23.1344 14.6936 22.9744 14.5756 22.8564L13.8991 22.1799C14.179 21.8507 14.4034 21.4781 14.5634 21.0768C14.723 20.6585 14.8036 20.2142 14.8011 19.7665ZM13.2836 20.8086C13.0233 21.4303 12.5316 21.9264 11.9123 22.1921C11.5922 22.3271 11.248 22.3955 10.9006 22.3932C10.5618 22.3954 10.226 22.3296 9.91298 22.1998C9.6 22.07 9.3162 21.8788 9.07838 21.6375C8.84181 21.3995 8.65348 21.1181 8.52378 20.8086C8.25538 20.144 8.25538 19.4011 8.52378 18.7365C8.65196 18.4244 8.84042 18.1407 9.07838 17.9016C9.3162 17.6602 9.6 17.469 9.91298 17.3392C10.226 17.2094 10.5618 17.1436 10.9006 17.1458C11.248 17.1435 11.5922 17.212 11.9123 17.347C12.2185 17.4761 12.496 17.6646 12.729 17.9016C12.9689 18.1391 13.1576 18.4233 13.2836 18.7365C13.552 19.4011 13.552 20.144 13.2836 20.8086Z" fill="white"/>
<path d="M31.9396 18.1397L31.8726 18.7187C31.7649 18.6138 31.6487 18.5179 31.5252 18.4322C31.3877 18.343 31.243 18.2655 31.0925 18.2006C30.9315 18.1315 30.7641 18.0784 30.5927 18.0422C30.4085 18.0025 30.2206 17.9821 30.0321 17.9812C29.6392 17.9757 29.2493 18.0504 28.8863 18.2006C28.5535 18.3396 28.2511 18.5425 27.9965 18.7979C27.7499 19.0512 27.5571 19.3518 27.4297 19.6816C27.1614 20.3757 27.1614 21.1449 27.4297 21.839C27.563 22.1672 27.7574 22.4671 28.0026 22.7227C28.2541 22.9776 28.5547 23.1787 28.8863 23.3139C29.2476 23.4621 29.6355 23.5347 30.026 23.5272C30.2142 23.528 30.4021 23.5096 30.5866 23.4724C30.758 23.4361 30.9254 23.3831 31.0864 23.3139C31.3768 23.1886 31.6429 23.0133 31.8726 22.7959L31.9396 23.3748H33.0001V18.1397H31.9396ZM31.6897 21.449C31.5227 21.8518 31.2027 22.1718 30.8 22.3388C30.5929 22.4225 30.3712 22.4639 30.1478 22.4607C29.9226 22.4639 29.6988 22.4225 29.4896 22.3388C29.0849 22.1694 28.7631 21.8476 28.5938 21.4429C28.4589 21.1243 28.4206 20.7732 28.4834 20.433C28.5462 20.0929 28.7075 19.7786 28.9472 19.5292C29.1024 19.3805 29.2844 19.2626 29.4836 19.1819C29.6901 19.0956 29.9119 19.0521 30.1357 19.0539C30.3614 19.0521 30.5852 19.0956 30.7939 19.1819C30.9919 19.2641 31.172 19.3842 31.3241 19.5353C31.4798 19.6886 31.604 19.8708 31.6897 20.0716C31.7771 20.2885 31.8206 20.5205 31.8177 20.7542C31.8211 20.992 31.7776 21.2281 31.6897 21.449Z" fill="white"/>
<path d="M17.7868 18.895H16.5801V23.3769H17.7868V18.895Z" fill="white"/>
<path d="M20.7919 18.895H19.5852V23.3769H20.7919V18.895Z" fill="white"/>
<path d="M20.3569 18.0361C20.7598 17.9408 21.0092 17.537 20.9139 17.1341C20.8187 16.7312 20.4149 16.4818 20.012 16.5771C19.6091 16.6723 19.3597 17.0761 19.4549 17.479C19.5502 17.8819 19.954 18.1313 20.3569 18.0361Z" fill="white"/>
</svg>
