<svg width="24" height="24" viewBox="0 0 24 24" fill="none" xmlns="http://www.w3.org/2000/svg">
<path d="M2.99733 11.1842V12.8215C2.99733 13.6482 2.32533 14.3202 1.49867 14.3202C0.672 14.3202 0 13.6482 0 12.8162V11.1788C0 10.3522 0.672 9.68018 1.49867 9.68018C2.32533 9.68018 2.99733 10.3522 2.99733 11.1842Z" fill="#0066D9"/>
<path d="M21.0015 11.2269C21.0015 11.2109 21.0015 11.2002 21.0015 11.1842C21.0015 10.3575 21.6735 9.68555 22.5001 9.68555C23.3268 9.68555 23.9988 10.3575 23.9988 11.1842C23.9988 11.2002 23.9988 11.2109 23.9988 11.2269V12.8642C23.9775 13.6749 23.3161 14.3202 22.5001 14.3202C21.6841 14.3202 21.0228 13.6695 21.0015 12.8642V11.2269Z" fill="#4285F4"/>
<path d="M8.18044 16.0908V17.7281C8.18044 18.5548 7.50844 19.2268 6.68177 19.2268C5.85511 19.2268 5.18311 18.5548 5.18311 17.7281V16.0908C5.18311 15.2641 5.85511 14.5921 6.68177 14.5921C7.50844 14.5921 8.18044 15.2641 8.18044 16.0908ZM8.18044 6.2721V11.6268C8.16444 12.4374 7.49777 13.0934 6.68177 13.0934C5.86577 13.0934 5.19911 12.4428 5.18311 11.6268V6.2721C5.18311 5.44544 5.85511 4.77344 6.68177 4.77344C7.50844 4.77344 8.18044 5.44544 8.18044 6.2721Z" fill="#EA4335"/>
<path d="M15.8198 7.90944C15.8198 8.7361 16.4918 9.4081 17.3185 9.4081C18.1452 9.4081 18.8172 8.7361 18.8172 7.90944V6.2721C18.8172 5.44544 18.1452 4.77344 17.3185 4.77344C16.4918 4.77344 15.8198 5.44544 15.8198 6.2721V7.90944Z" fill="#34A853"/>
<path d="M10.5015 3.136C10.5015 3.96267 11.1735 4.63467 12.0001 4.63467C12.8268 4.63467 13.4988 3.96267 13.4988 3.136V1.49867C13.4988 0.672 12.8268 0 12.0001 0C11.1735 0 10.5015 0.672 10.5015 1.49867V3.136ZM10.5015 20.864C10.5015 20.0373 11.1735 19.3653 12.0001 19.3653C12.8268 19.3653 13.4988 20.0373 13.4988 20.864V22.5013C13.4988 23.328 12.8268 24 12.0001 24C11.1735 24 10.5015 23.328 10.5015 22.5013V20.864Z" fill="#FAB908"/>
<path d="M15.8198 12.4108C15.8198 11.5841 16.4918 10.9121 17.3185 10.9121C18.1452 10.9121 18.8172 11.5841 18.8172 12.4108V17.7281C18.8172 18.5548 18.1452 19.2268 17.3185 19.2268C16.4918 19.2268 15.8198 18.5548 15.8198 17.7281V12.4108Z" fill="#34A853"/>
<path d="M13.4988 7.63783V16.3632C13.4988 17.1898 12.8268 17.8618 12.0001 17.8618C11.1735 17.8618 10.5015 17.1898 10.5015 16.3632V7.63783C10.5015 6.81116 11.1735 6.13916 12.0001 6.13916C12.8268 6.13916 13.4988 6.80583 13.4988 7.63783Z" fill="#FAB908"/>
</svg>
