<svg width="24" height="24" viewBox="0 0 24 24" fill="none" xmlns="http://www.w3.org/2000/svg">
<path d="M8.0005 3.97656C9.0506 3.97656 10.0917 4.18388 11.0622 4.588C12.0327 4.99062 12.9145 5.58252 13.6567 6.32766C14.3988 7.0728 14.9892 7.95766 15.3903 8.93115C15.7926 9.90489 15.9993 10.9483 15.9987 12.0019C15.9987 15.2468 14.0503 18.1733 11.0607 19.4142C8.07111 20.6566 4.63084 19.9701 2.34283 17.6745C0.0548316 15.3805 -0.628715 11.9282 0.60918 8.93115C1.84708 5.93256 4.76454 3.97806 7.99899 3.97806L8.0005 3.97656ZM8.0005 14.407C8.31608 14.4077 8.62868 14.3459 8.92028 14.2252C9.21189 14.1046 9.47675 13.9274 9.6996 13.704C9.9222 13.48 10.0988 13.2146 10.2194 12.9228C10.3396 12.6298 10.4012 12.3173 10.4012 12.0019C10.4012 11.0284 9.81678 10.151 8.9199 9.77845C8.02303 9.40588 6.99095 9.61169 6.3044 10.2997C5.61785 10.9878 5.41203 12.0229 5.7846 12.9228C5.96552 13.3622 6.27284 13.738 6.66761 14.0025C7.06238 14.267 7.5268 14.4083 8.002 14.4085L8.0005 14.407Z" fill="#00AEEF"/>
<path d="M16.9917 9.99481C19.0243 10.5822 21.4235 9.99481 21.4235 9.99481C20.7279 13.0445 18.5196 14.9539 15.3362 15.1853C15.0297 15.9004 14.6196 16.5659 14.1208 17.1623C13.6221 17.7587 13.0392 18.2785 12.3917 18.7067C11.7427 19.1348 11.0366 19.4653 10.293 19.6877C9.54932 19.91 8.77714 20.0242 8.00195 20.0227L10.4011 12.3715C12.8679 4.50691 14.1328 3.9751 19.9828 3.9751H23.9999C23.3284 6.94364 21.0119 9.21212 16.9917 9.99331V9.99481Z" fill="#008CCF"/>
</svg>
