<svg width="24" height="24" viewBox="0 0 24 24" fill="none" xmlns="http://www.w3.org/2000/svg">
<g clip-path="url(#clip0_18168_41847)">
<path d="M23.9991 12.1286C18.6853 12.2915 16.2597 12.4287 14.3141 14.3143C12.4285 16.26 12.2998 18.6856 12.1284 23.9994C18.6538 23.9309 23.9306 18.654 23.9991 12.1286Z" fill="#0A0A0A"/>
<path d="M11.8712 23.9994C11.7084 18.6856 11.5712 16.26 9.68553 14.3143C7.7399 12.4287 5.3143 12.3001 0.000488303 12.1287C0.0689996 18.654 5.34585 23.9309 11.8712 23.9994Z" fill="#0A0A0A"/>
<path d="M23.9991 11.8715C23.9306 5.34609 18.6538 0.0692431 12.1284 0.000732422C12.2913 5.31455 12.4285 7.74014 14.3141 9.68577C16.2597 11.5714 18.6853 11.7 23.9991 11.8715Z" fill="#0A0A0A"/>
<path d="M11.8712 0.000732423C5.34585 0.0692432 0.0689985 5.34609 0.000488281 11.8715C5.3143 11.7086 7.7399 11.5714 9.68553 9.68577C11.5712 7.74014 11.6998 5.31455 11.8712 0.000732423Z" fill="#0A0A0A"/>
</g>
<defs>
<clipPath id="clip0_18168_41847">
<rect width="24" height="24" fill="white"/>
</clipPath>
</defs>
</svg>
