<svg width="24" height="24" viewBox="0 0 24 24" fill="none" xmlns="http://www.w3.org/2000/svg">
<g clip-path="url(#clip0_18168_41873)">
<path fill-rule="evenodd" clip-rule="evenodd" d="M3.65723 4.49027C3.65723 2.01036 5.66759 0 8.1475 0H15.8523C18.3322 0 20.3425 2.01036 20.3425 4.49027C20.3425 6.06056 19.5365 7.44258 18.3156 8.24516C19.5365 9.04773 20.3425 10.4297 20.3425 12C20.3425 14.48 18.3322 16.4903 15.8523 16.4903H15.7547C14.5921 16.4903 13.5328 16.0485 12.7353 15.3236V19.4609C12.7353 21.9739 10.6724 24 8.17173 24C5.69798 24 3.65723 21.9957 3.65723 19.5097C3.65723 17.9394 4.46323 16.5575 5.68409 15.7549C4.46323 14.9523 3.65723 13.5703 3.65723 12C3.65723 10.4297 4.46327 9.04773 5.68418 8.24516C4.46327 7.44258 3.65723 6.06056 3.65723 4.49027ZM11.2645 11.9902C11.2645 11.9935 11.2645 11.9968 11.2645 12C11.2645 12.0033 11.2645 12.0066 11.2645 12.0098V15.0194H8.1475L8.13115 15.0194C6.47108 15.0106 5.12806 13.6622 5.12806 12C5.12806 10.3324 6.4799 8.9806 8.1475 8.9806H11.2645V11.9902ZM12.7353 12.0077C12.7394 13.6718 14.0897 15.0195 15.7547 15.0195H15.8523C17.5199 15.0195 18.8717 13.6676 18.8717 12C18.8717 10.3324 17.5199 8.9806 15.8523 8.9806H15.7547C14.0897 8.9806 12.7394 10.3283 12.7353 11.9924V12.0077ZM8.1475 16.4903L8.13115 16.4903C6.47108 16.4991 5.12806 17.8475 5.12806 19.5097C5.12806 21.1711 6.49797 22.5291 8.17173 22.5291C9.87242 22.5291 11.2645 21.1493 11.2645 19.4609V16.4903H8.1475ZM8.1475 1.47083H11.2645V7.50972H8.1475C6.47991 7.50972 5.12806 6.15787 5.12806 4.49027C5.12806 2.82268 6.47991 1.47083 8.1475 1.47083ZM12.7353 1.47083V7.50972H15.8523C17.5199 7.50972 18.8717 6.15787 18.8717 4.49027C18.8717 2.82268 17.5199 1.47083 15.8523 1.47083H12.7353Z" fill="#0A0A0A"/>
</g>
<defs>
<clipPath id="clip0_18168_41873">
<rect width="24" height="24" fill="white"/>
</clipPath>
</defs>
</svg>
