<svg width="24" height="24" viewBox="0 0 24 24" fill="none" xmlns="http://www.w3.org/2000/svg">
<g clip-path="url(#clip0_18168_41861)">
<path d="M10.9705 0.157471C8.79549 0.353996 6.70864 1.1449 4.94298 2.45323C2.88846 3.9756 1.3776 6.11795 0.633238 8.56429C-0.111126 11.0106 -0.0495843 13.6314 0.808786 16.0401C1.66715 18.4488 3.27691 20.5179 5.40061 21.942C7.52432 23.3663 10.0495 24.0703 12.6038 23.9503C15.158 23.8303 17.606 22.8926 19.5868 21.2756C21.5676 19.6584 22.9762 17.4475 23.605 14.969C24.194 12.6471 24.0693 10.2056 23.2535 7.96145L23.2555 7.98104L20.2332 10.4107C20.4737 11.6223 20.4437 12.8789 20.1367 14.0891C19.6965 15.8241 18.7105 17.3717 17.324 18.5038C15.9374 19.6357 14.2238 20.2922 12.4358 20.3762C10.6478 20.4602 8.8802 19.9674 7.39361 18.9704C5.90701 17.9735 4.78018 16.525 4.17933 14.8389C3.57847 13.1529 3.53539 11.3183 4.05645 9.60589C4.57749 7.89345 5.63511 6.39382 7.07326 5.32816C8.22181 4.47709 9.56453 3.9388 10.9705 3.75654V0.157471Z" fill="#0A0A0A"/>
<path d="M20.9893 4.16475L20.9767 4.13304C19.2677 2.20304 16.9429 0.830921 14.3101 0.324515V8.67326C13.6631 8.23649 12.8833 7.98147 12.0439 7.98147C9.80424 7.98147 7.98865 9.79707 7.98865 12.0367C7.98865 14.2764 9.80424 16.092 12.0439 16.092C14.2836 16.092 16.0991 14.2764 16.0991 12.0367V4.73693C17.251 5.37816 18.2351 6.2841 18.9697 7.37249L20.9893 4.16475Z" fill="#0A0A0A"/>
</g>
<defs>
<clipPath id="clip0_18168_41861">
<rect width="24" height="24" fill="white"/>
</clipPath>
</defs>
</svg>
