<svg width="24" height="24" viewBox="0 0 24 24" fill="none" xmlns="http://www.w3.org/2000/svg">
<path fill-rule="evenodd" clip-rule="evenodd" d="M1.68702 1.68706C0.0504242 3.32367 0.00146352 5.92788 0 11.0399C4.58111 11.0398 7.44133 9.07308 9.95022 7.34789C11.9102 6.00017 13.6558 4.79986 15.84 4.79986C19.0909 4.79986 21.9294 7.09843 23.4345 8.31725C23.6467 8.48911 23.8324 8.63952 23.9891 8.75897C23.9416 5.11426 23.6859 3.06012 22.3129 1.68706C20.6258 8.01086e-07 17.9105 5.58682e-07 12.4799 8.39257e-08L11.5199 0C6.08937 1.3563e-06 3.37408 1.14441e-06 1.68702 1.68706ZM10.8144 23.9999C11.0443 24 11.2795 24 11.52 24H12.4799C12.7204 24 12.9555 24 13.1855 23.9999H10.8144Z" fill="#0077FF"/>
<path fill-rule="evenodd" clip-rule="evenodd" d="M4.58413e-05 11.0398C4.58116 11.0398 7.44139 9.07303 9.95027 7.34784C11.9103 6.00012 13.6558 4.7998 15.84 4.7998C19.0909 4.7998 21.9294 7.09838 23.4345 8.3172C23.6468 8.48906 23.8325 8.63947 23.9892 8.75892C24 9.59244 24 10.5092 24 11.5199V12.4799C24 17.9105 24 20.6258 22.3129 22.3129C20.7005 23.9253 18.149 23.9966 13.1854 23.9998H10.8146C5.85103 23.9966 3.29944 23.9253 1.68706 22.3129C-6.86646e-07 20.6258 -4.79488e-07 17.9105 5.11869e-10 12.4799L2.43699e-07 11.5199C2.43699e-07 11.3575 2.41252e-07 11.1975 4.58413e-05 11.0398Z" fill="#F45FFF"/>
<path d="M18.6001 12.2339C18.6001 11.6408 19.0869 11.1599 19.6801 11.1599C20.2733 11.1599 20.7601 11.6408 20.7601 12.2339V16.5659C20.7601 17.159 20.2733 17.6399 19.6801 17.6399C19.0869 17.6399 18.6001 17.159 18.6001 16.5659V12.2339Z" fill="white"/>
<path d="M14.7603 9.47415C14.7603 8.88099 15.2471 8.40015 15.8403 8.40015C16.4334 8.40015 16.9203 8.88099 16.9203 9.47415V19.3261C16.9203 19.9193 16.4334 20.4001 15.8403 20.4001C15.2471 20.4001 14.7603 19.9193 14.7603 19.3261V9.47415Z" fill="white"/>
<path d="M10.9204 12.2339C10.9204 11.6408 11.4073 11.1599 12.0004 11.1599C12.5936 11.1599 13.0804 11.6408 13.0804 12.2339V16.5659C13.0804 17.159 12.5936 17.6399 12.0004 17.6399C11.4073 17.6399 10.9204 17.159 10.9204 16.5659V12.2339Z" fill="white"/>
<path d="M7.07959 13.794C7.07959 13.2008 7.56645 12.72 8.15959 12.72C8.75275 12.72 9.23959 13.2008 9.23959 13.794V15.006C9.23959 15.5991 8.75275 16.08 8.15959 16.08C7.56645 16.08 7.07959 15.5991 7.07959 15.006V13.794Z" fill="white"/>
<path d="M3.23975 13.794C3.23975 13.2008 3.72661 12.72 4.31975 12.72C4.91291 12.72 5.39975 13.2008 5.39975 13.794V15.006C5.39975 15.5991 4.91291 16.08 4.31975 16.08C3.72661 16.08 3.23975 15.5991 3.23975 15.006V13.794Z" fill="white"/>
</svg>
