<svg width="24" height="24" viewBox="0 0 24 24" fill="none" xmlns="http://www.w3.org/2000/svg">
<path fill-rule="evenodd" clip-rule="evenodd" d="M12 1C18.6274 1 24 5.30214 24 10.6091C24 12.4628 23.344 14.1935 22.2085 15.6614C22.1523 15.7449 22.0789 15.8372 21.9863 15.9392L21.9793 15.9469C21.5914 16.411 21.1546 16.8467 20.6743 17.2488C17.3558 20.3161 11.8937 23.9679 11.1728 23.4045C10.5461 22.9148 12.205 20.5194 10.2911 20.1208C10.1576 20.1054 10.0244 20.089 9.8924 20.0703L9.88989 20.0701V20.0699C4.26872 19.2714 4.18602e-09 15.3395 4.18602e-09 10.6091C-0.000173165 5.30214 5.3725 1 12 1Z" fill="#3ACE01"/>
<path fill-rule="evenodd" clip-rule="evenodd" d="M5.03794 13.6736H7.45816C7.80242 13.6736 8.084 13.3919 8.084 13.0477V12.9955C8.084 12.6512 7.80242 12.3696 7.45816 12.3696H5.71599V8.40586C5.71599 8.0616 5.43442 7.78003 5.09015 7.78003H5.03794C4.69368 7.78003 4.41211 8.0616 4.41211 8.40586V13.0476C4.41211 13.3919 4.69368 13.6736 5.03794 13.6736ZM20.0349 10.7641V10.7119C20.0349 10.3676 19.7532 10.086 19.4089 10.086H17.6669V9.09508H19.4089C19.7532 9.09508 20.0349 8.81351 20.0349 8.46924V8.41703C20.0349 8.07277 19.7532 7.7912 19.4089 7.7912H16.9887C16.6445 7.7912 16.3629 8.07277 16.3629 8.41703V13.0588C16.3629 13.403 16.6445 13.6847 16.9887 13.6847H19.4089C19.7532 13.6847 20.0349 13.403 20.0349 13.0588V13.0065C20.0349 12.6623 19.7532 12.3807 19.4089 12.3807H17.6669V11.3897H19.4089C19.7532 11.3899 20.0349 11.1083 20.0349 10.7641ZM15.3805 13.487L15.3807 13.4867C15.4965 13.37 15.5615 13.2122 15.5616 13.0478V8.40604C15.5616 8.06178 15.2801 7.7802 14.9357 7.7802H14.8835C14.5392 7.7802 14.2577 8.06178 14.2577 8.40604V11.1308L11.9955 8.09667C11.8875 7.908 11.684 7.7802 11.4521 7.7802H11.3999C11.0557 7.7802 10.774 8.06178 10.774 8.40604V13.0478C10.774 13.392 11.0556 13.6737 11.3999 13.6737H11.4521C11.7964 13.6737 12.078 13.392 12.078 13.0478V10.272L14.3564 13.384C14.3704 13.4058 14.3857 13.4267 14.4023 13.4467L14.4023 13.4468C14.4649 13.5322 14.5506 13.5907 14.646 13.6265C14.7193 13.6568 14.7995 13.6736 14.8834 13.6736H14.9356C15.0376 13.6737 15.138 13.6486 15.228 13.6005C15.2906 13.5707 15.3433 13.5323 15.3805 13.487ZM9.21497 13.6736H9.26718C9.61144 13.6736 9.89301 13.3919 9.89301 13.0477V8.40595C9.89301 8.06169 9.61144 7.78012 9.26718 7.78012H9.21497C8.87071 7.78012 8.58904 8.06169 8.58904 8.40595V13.0477C8.58904 13.3919 8.87071 13.6736 9.21497 13.6736Z" fill="white"/>
</svg>
