<svg width="24" height="24" viewBox="0 0 24 24" fill="none" xmlns="http://www.w3.org/2000/svg">
<path d="M22.297 17.6797C18.5804 15.88 17.9881 13.1014 17.9617 12.8953C17.9298 12.6457 17.8936 12.4494 18.1689 12.1955C18.4345 11.9501 19.6124 11.2208 19.9392 10.9926C20.4795 10.6148 20.7174 10.2376 20.542 9.77386C20.4194 9.45306 20.1207 9.33223 19.8062 9.33223C19.7069 9.33253 19.608 9.34364 19.5112 9.36535C18.9177 9.49416 18.3413 9.79165 18.0077 9.872C17.9676 9.88234 17.9264 9.8879 17.885 9.88856C17.7072 9.88856 17.6398 9.80943 17.6569 9.59537C17.6986 8.94642 17.7869 7.6798 17.6845 6.49659C17.5441 4.8687 17.0192 4.06211 16.3968 3.34875C16.0957 3.00281 14.6977 1.5166 11.9996 1.5166C9.30158 1.5166 7.90534 3.00281 7.6061 3.34446C6.98187 4.05782 6.45759 4.8644 6.3184 6.4923C6.216 7.6755 6.30798 8.94151 6.34599 9.59107C6.35826 9.79471 6.29571 9.88426 6.11789 9.88426C6.0765 9.88356 6.03534 9.878 5.99525 9.8677C5.66228 9.78735 5.08588 9.48987 4.49231 9.36106C4.39549 9.33934 4.29659 9.32824 4.19737 9.32793C3.88157 9.32793 3.58418 9.45061 3.46154 9.76956C3.28617 10.2333 3.52286 10.6105 4.06492 10.9883C4.39175 11.2165 5.56969 11.9452 5.8352 12.1912C6.10991 12.4451 6.07435 12.6414 6.04246 12.891C6.0161 13.1002 5.42314 15.8788 1.7072 17.6754C1.48951 17.7809 1.11914 18.0041 1.77219 18.3648C2.79745 18.9315 3.47993 18.8708 4.01034 19.2125C4.46043 19.5026 4.1943 20.1282 4.52175 20.354C4.924 20.6318 6.11298 20.3343 7.64903 20.8416C8.93673 21.2661 9.71916 22.4652 12.0027 22.4652C14.2862 22.4652 15.0913 21.2605 16.3564 20.8416C17.8893 20.3343 19.0808 20.6318 19.4836 20.354C19.8105 20.1282 19.545 19.5026 19.995 19.2125C20.5254 18.8708 21.2073 18.9315 22.2332 18.3648C22.885 18.0084 22.5146 17.7852 22.297 17.6797Z" fill="white"/>
<path d="M23.9142 17.4685C23.7474 17.0147 23.4298 16.7718 23.068 16.5706C22.9999 16.5307 22.9374 16.4988 22.884 16.4743C22.7761 16.4185 22.6657 16.3645 22.556 16.3074C21.4283 15.7094 20.5478 14.9549 19.937 14.0606C19.7636 13.8089 19.6132 13.542 19.4876 13.2633C19.4354 13.1142 19.4379 13.0296 19.4753 12.9523C19.5124 12.8927 19.5615 12.8415 19.6194 12.802C19.8132 12.6738 20.0131 12.5438 20.1486 12.456C20.3902 12.2996 20.5815 12.1757 20.7048 12.088C21.1677 11.7642 21.4915 11.4201 21.6938 11.0355C21.835 10.7698 21.9173 10.4768 21.9352 10.1764C21.9531 9.87601 21.9061 9.5753 21.7975 9.29471C21.4909 8.48751 20.7287 7.98638 19.8052 7.98638C19.6104 7.9862 19.4162 8.00676 19.2257 8.04772C19.1748 8.05876 19.1239 8.07041 19.0743 8.0833C19.0829 7.53126 19.0706 6.94855 19.0215 6.37505C18.8474 4.35888 18.1416 3.30204 17.4058 2.45926C16.9346 1.93114 16.3796 1.48433 15.763 1.13682C14.6464 0.498911 13.3802 0.175049 11.9999 0.175049C10.6196 0.175049 9.35948 0.498911 8.24163 1.13682C7.6236 1.48444 7.06746 1.93214 6.59582 2.46171C5.85999 3.30449 5.15421 4.36318 4.98006 6.3775C4.931 6.95101 4.91874 7.53678 4.92671 8.08575C4.87704 8.07287 4.82676 8.06121 4.77587 8.05017C4.58543 8.00921 4.39118 7.98865 4.1964 7.98884C3.27232 7.98884 2.50889 8.48996 2.20353 9.29717C2.09437 9.57788 2.04691 9.8788 2.06437 10.1795C2.08183 10.4802 2.1638 10.7736 2.3047 11.0398C2.50767 11.4244 2.83143 11.7685 3.29439 12.0923C3.41703 12.1782 3.60896 12.3021 3.85056 12.4603C3.98117 12.545 4.17187 12.6689 4.3589 12.7928C4.42433 12.8351 4.47995 12.891 4.522 12.9566C4.56125 13.0369 4.56248 13.1234 4.50422 13.2829C4.38032 13.5558 4.23236 13.8171 4.06211 14.0637C3.46486 14.9378 2.61007 15.6787 1.51859 16.2719C0.94035 16.5785 0.339422 16.7834 0.0855607 17.4735C-0.105755 17.9942 0.0193358 18.5867 0.505597 19.086C0.684059 19.2724 0.891048 19.4291 1.11879 19.5503C1.59266 19.8108 2.09654 20.0125 2.61927 20.1508C2.72714 20.1787 2.82955 20.2245 2.92219 20.2864C3.0994 20.4416 3.07426 20.6753 3.31034 21.0175C3.42884 21.1944 3.57942 21.3476 3.75429 21.469C4.24975 21.8112 4.80653 21.8327 5.39642 21.8554C5.92928 21.8757 6.53327 21.899 7.22311 22.1265C7.50886 22.221 7.80565 22.4038 8.14965 22.6172C8.97562 23.1251 10.1063 23.82 11.9987 23.82C13.891 23.82 15.0297 23.1214 15.8618 22.6117C16.2033 22.4019 16.4983 22.221 16.776 22.129C17.4659 21.9008 18.0699 21.8781 18.6027 21.8579C19.1926 21.8352 19.7494 21.8137 20.2449 21.4714C20.452 21.327 20.6245 21.1385 20.7501 20.9194C20.92 20.6305 20.9157 20.4287 21.0751 20.2876C21.162 20.2287 21.2582 20.1847 21.3596 20.1576C21.8895 20.0188 22.4003 19.8153 22.8804 19.5516C23.1223 19.4217 23.3401 19.2512 23.5242 19.0474L23.5303 19.04C23.9866 18.5518 24.1012 17.9764 23.9142 17.4685ZM22.2322 18.3727C21.2063 18.9394 20.5245 18.8787 19.9941 19.2203C19.5434 19.5105 19.8101 20.1361 19.4827 20.3618C19.0804 20.6397 17.8914 20.3422 16.3554 20.8495C15.0885 21.2684 14.2803 22.4731 12.0017 22.4731C9.7231 22.4731 8.93392 21.2709 7.64622 20.8464C6.11324 20.3391 4.92181 20.6366 4.51894 20.3588C4.19211 20.1331 4.45762 19.5074 4.00754 19.2173C3.47651 18.8756 2.79464 18.9364 1.76939 18.3727C1.11634 18.012 1.4867 17.7887 1.70439 17.6832C5.42033 15.8836 6.01329 13.105 6.03965 12.8989C6.07154 12.6493 6.10711 12.453 5.8324 12.199C5.56688 11.9537 4.38894 11.2244 4.06211 10.9962C3.52128 10.6184 3.28336 10.2411 3.45873 9.77744C3.58137 9.45664 3.88061 9.33581 4.19456 9.33581C4.29379 9.33611 4.39268 9.34722 4.4895 9.36893C5.08307 9.49774 5.65948 9.79523 5.99244 9.87558C6.03253 9.88587 6.07369 9.89143 6.11508 9.89214C6.2929 9.89214 6.35545 9.80259 6.34318 9.59895C6.30517 8.94938 6.21319 7.68338 6.31559 6.50017C6.45601 4.87228 6.98029 4.06569 7.60329 3.35233C7.90253 3.00946 9.30858 1.52325 11.9974 1.52325C14.6863 1.52325 16.096 3.00332 16.3952 3.34497C17.0189 4.05833 17.5437 4.86492 17.6829 6.49281C17.7853 7.67601 17.697 8.94263 17.6553 9.59158C17.6412 9.80565 17.7056 9.88478 17.8835 9.88478C17.9248 9.88411 17.966 9.87856 18.0061 9.86822C18.3397 9.78787 18.9161 9.49038 19.5096 9.36157C19.6065 9.33986 19.7054 9.32875 19.8046 9.32845C20.1204 9.32845 20.4178 9.45112 20.5404 9.77008C20.7158 10.2338 20.4791 10.611 19.9377 10.9889C19.6108 11.217 18.4329 11.9457 18.1674 12.1917C17.892 12.4456 17.9282 12.6419 17.9601 12.8915C17.9865 13.1007 18.5788 15.8793 22.2954 17.6759C22.5149 17.7857 22.8853 18.0089 22.2322 18.3727Z" fill="black"/>
</svg>
