<svg width="24" height="24" viewBox="0 0 24 24" fill="none" xmlns="http://www.w3.org/2000/svg">
<path d="M3.92388 4.7395C3.71541 4.7395 3.53998 4.81266 3.45187 4.95584C3.36062 5.10373 3.37478 5.29411 3.47154 5.48685L5.81191 9.53824C5.81584 9.54611 5.81584 9.55083 5.81191 9.55791L2.13419 16.048C2.03821 16.2392 2.04293 16.4311 2.13419 16.579C2.2223 16.7214 2.37806 16.815 2.58653 16.815H6.04791C6.56555 16.815 6.81493 16.4657 6.99193 16.1463C6.99193 16.1463 10.5886 9.78526 10.7286 9.53824C10.7145 9.51543 8.34895 5.38851 8.34895 5.38851C8.17666 5.08171 7.91627 4.7395 7.38526 4.7395H3.92388Z" fill="#005A5F"/>
<path d="M18.466 0C17.9491 0 17.7249 0.325695 17.5393 0.659247C17.5393 0.659247 10.0824 13.8833 9.83691 14.3176C9.8495 14.3412 14.7552 23.3408 14.7552 23.3408C14.9267 23.6476 15.1918 24 15.722 24H19.1795C19.388 24 19.5508 23.9213 19.6389 23.7789C19.731 23.631 19.7286 23.4359 19.6318 23.244L14.7521 14.3286C14.7474 14.3215 14.7474 14.3128 14.7521 14.3058L22.4159 0.755219C22.5119 0.564056 22.5142 0.368957 22.423 0.221061C22.3349 0.0786725 22.1712 0 21.9628 0H18.466Z" fill="#D4D600"/>
</svg>
