<svg width="24" height="24" viewBox="0 0 24 24" fill="none" xmlns="http://www.w3.org/2000/svg">
<g clip-path="url(#clip0_18168_41720)">
<path d="M19.1272 21.8661V15.4365H21.2611V24.0001H2V15.4365H4.13397V21.8661H19.1272Z" fill="#BCBBBB"/>
<path d="M6.49027 14.8269L16.9661 17.0163L17.4095 14.9101L6.93369 12.7207L6.49027 14.8269ZM7.87596 9.83843L17.5758 14.3558L18.4627 12.4158L8.7628 7.87074L7.87596 9.83843ZM10.5642 5.07164L18.7952 11.917L20.1532 10.2818L11.9222 3.43652L10.5642 5.07164ZM15.8853 0L14.167 1.27484L20.5412 9.86614L22.2595 8.5913L15.8853 0ZM6.26855 19.7046H16.9661V17.5706H6.26855V19.7046Z" fill="#F48023"/>
</g>
<defs>
<clipPath id="clip0_18168_41720">
<rect width="24" height="24" fill="white"/>
</clipPath>
</defs>
</svg>
