<svg width="24" height="24" viewBox="0 0 24 24" fill="none" xmlns="http://www.w3.org/2000/svg">
<g clip-path="url(#clip0_18168_41651)">
<path d="M4.94298 2.45323C6.70864 1.1449 8.79549 0.353996 10.9705 0.157471V3.75654C9.56453 3.9388 8.22181 4.47709 7.07326 5.32816C5.63511 6.39382 4.57749 7.89345 4.05645 9.60589C3.53539 11.3183 3.57847 13.1529 4.17933 14.8389C4.78018 16.525 5.90701 17.9735 7.39361 18.9704C8.8802 19.9674 10.6478 20.4602 12.4358 20.3762C14.2238 20.2922 15.9374 19.6357 17.324 18.5038C18.7105 17.3717 19.6965 15.8241 20.1367 14.0891C20.4437 12.8789 20.4737 11.6223 20.2332 10.4107L23.2555 7.98104L23.2535 7.96145C24.0693 10.2056 24.194 12.6471 23.605 14.969C22.9762 17.4475 21.5676 19.6584 19.5868 21.2756C17.606 22.8926 15.158 23.8303 12.6038 23.9503C10.0495 24.0703 7.52432 23.3663 5.40061 21.942C3.27691 20.5179 1.66715 18.4488 0.808786 16.0401C-0.0495843 13.6314 -0.111126 11.0106 0.633238 8.56429C1.3776 6.11795 2.88846 3.9756 4.94298 2.45323Z" fill="#FCCA00"/>
<path d="M20.9768 4.13299L20.9894 4.1647L18.9698 7.37244C18.2353 6.28405 17.2511 5.37811 16.0993 4.73687V12.0367C16.0993 14.2763 14.2837 16.092 12.044 16.092C9.80436 16.092 7.98877 14.2763 7.98877 12.0367C7.98877 9.79702 9.80436 7.98141 12.044 7.98141C12.8834 7.98141 13.6632 8.23644 14.3102 8.67321V0.324463C16.943 0.830869 19.2678 2.20298 20.9768 4.13299Z" fill="#FC3F1D"/>
</g>
<defs>
<clipPath id="clip0_18168_41651">
<rect width="24" height="24" fill="white"/>
</clipPath>
</defs>
</svg>
