<svg width="24" height="24" viewBox="0 0 24 24" fill="none" xmlns="http://www.w3.org/2000/svg">
<g clip-path="url(#clip0_18168_41794)">
<path d="M1.76465 15.37C1.76465 18.1648 5.40325 20.4312 9.89261 20.4312C14.382 20.4312 18.0206 18.1645 18.0206 15.37C18.0206 12.5755 14.3817 10.3091 9.89261 10.3091C5.40356 10.3091 1.76465 12.5751 1.76465 15.37Z" fill="white"/>
<path d="M10.0819 20.0189C6.1089 20.4108 2.67932 18.6154 2.42084 16.0066C2.16299 13.3984 5.17579 10.9661 9.14819 10.5733C13.1215 10.1801 16.5514 11.9761 16.8093 14.5836C17.0668 17.1928 14.0553 19.6257 10.0819 20.0189ZM18.029 11.3596C17.691 11.2587 17.4593 11.1895 17.6361 10.7456C18.0194 9.78122 18.059 8.9496 17.6435 8.35604C16.8645 7.24327 14.7328 7.30294 12.2893 8.32636C12.2893 8.32476 11.5221 8.66207 11.7181 8.05351C12.094 6.84501 12.0372 5.83308 11.4522 5.24877C10.1269 3.9222 6.60162 5.29888 3.57828 8.32093C1.31445 10.5851 0 12.9845 0 15.0595C0 19.0283 5.08963 21.4412 10.0688 21.4412C16.5958 21.4412 20.9377 17.6488 20.9377 14.6382C20.9377 12.8189 19.4056 11.7866 18.029 11.3596Z" fill="#E6162D"/>
<path d="M22.3633 4.09682C20.7872 2.34933 18.4621 1.68333 16.316 2.13935H16.3153C16.1973 2.16455 16.0854 2.21276 15.9861 2.28121C15.8867 2.34966 15.8017 2.43701 15.7361 2.53828C15.6705 2.63955 15.6255 2.75276 15.6036 2.87143C15.5817 2.99011 15.5834 3.11193 15.6087 3.22994C15.6339 3.34795 15.6821 3.45984 15.7505 3.55922C15.819 3.6586 15.9063 3.74353 16.0076 3.80915C16.1089 3.87477 16.2221 3.9198 16.3407 3.94168C16.4594 3.96355 16.5812 3.96183 16.6992 3.93663C18.2259 3.6124 19.878 4.08725 20.9994 5.32799C21.5307 5.91686 21.8977 6.63526 22.0634 7.41095C22.229 8.18664 22.1875 8.99227 21.943 9.74683L21.9433 9.74715C21.906 9.86199 21.8918 9.98306 21.9014 10.1034C21.911 10.2238 21.9442 10.3411 21.9992 10.4486C22.0542 10.556 22.1298 10.6516 22.2218 10.7298C22.3138 10.808 22.4203 10.8673 22.5353 10.9043C22.767 10.9792 23.0189 10.9591 23.2358 10.8484C23.4527 10.7377 23.6168 10.5455 23.6921 10.3139L23.6924 10.3101C24.3651 8.2224 23.9401 5.84241 22.3633 4.09682Z" fill="#FF9933"/>
<path d="M19.9426 6.28131C19.1754 5.43022 18.0429 5.10695 16.9971 5.32938C16.893 5.34842 16.7939 5.38814 16.7054 5.44619C16.617 5.50424 16.5411 5.57945 16.4823 5.66736C16.4234 5.75526 16.3828 5.85408 16.3629 5.95797C16.3429 6.06185 16.344 6.16868 16.366 6.27214C16.3881 6.3756 16.4307 6.47358 16.4913 6.56028C16.5519 6.64699 16.6293 6.72065 16.7188 6.77691C16.8084 6.83317 16.9084 6.87089 17.0128 6.88782C17.1172 6.90476 17.224 6.90057 17.3268 6.87551V6.87615C17.5866 6.82059 17.8564 6.83427 18.1093 6.91581C18.3622 6.99736 18.5892 7.14391 18.7676 7.34079C18.9457 7.53816 19.0686 7.779 19.1239 8.03902C19.1792 8.29905 19.1649 8.56906 19.0825 8.82182H19.0832C19.0187 9.02143 19.036 9.2385 19.1315 9.42532C19.2269 9.61214 19.3926 9.75342 19.5922 9.81811C19.7919 9.8825 20.009 9.86495 20.1957 9.76933C20.3825 9.6737 20.5237 9.50782 20.5882 9.30816C20.9168 8.29112 20.7113 7.13208 19.9426 6.28131Z" fill="#FF9933"/>
<path d="M10.3012 15.2945C10.162 15.5326 9.85502 15.6468 9.61441 15.5476C9.37762 15.4499 9.30327 15.1844 9.43794 14.9508C9.57643 14.7185 9.87194 14.6052 10.1078 14.6987C10.3477 14.7865 10.4339 15.0555 10.3012 15.2945ZM9.03521 16.9198C8.65099 17.5328 7.82798 17.8015 7.20793 17.5184C6.59714 17.2405 6.41683 16.5279 6.80169 15.9302C7.18112 15.335 7.97637 15.0695 8.59163 15.3274C9.21391 15.5929 9.41304 16.3004 9.03521 16.9198ZM10.4792 12.5804C8.58844 12.0883 6.4513 13.0307 5.63021 14.6968C4.79379 16.3958 5.60276 18.2818 7.51237 18.8986C9.49123 19.5366 11.8234 18.5591 12.6342 16.7248C13.4343 14.932 12.4357 13.0862 10.4792 12.5804Z" fill="black"/>
</g>
<defs>
<clipPath id="clip0_18168_41794">
<rect width="24" height="24" fill="white"/>
</clipPath>
</defs>
</svg>
