<svg width="24" height="24" viewBox="0 0 24 24" fill="none" xmlns="http://www.w3.org/2000/svg">
<g clip-path="url(#clip0_18168_41664)">
<path d="M12 24C18.6274 24 24 18.6274 24 12C24 5.37258 18.6274 0 12 0C5.37258 0 0 5.37258 0 12C0 18.6274 5.37258 24 12 24Z" fill="#FF0000"/>
<path d="M11.9998 6.27275C15.1498 6.27275 17.7271 8.83639 17.7271 12C17.7271 15.1637 15.1634 17.7273 11.9998 17.7273C8.83614 17.7273 6.27251 15.1637 6.27251 12C6.27251 8.83639 8.84978 6.27275 11.9998 6.27275ZM11.9998 5.72729C8.53614 5.72729 5.72705 8.53639 5.72705 12C5.72705 15.4637 8.53614 18.2727 11.9998 18.2727C15.4634 18.2727 18.2725 15.4637 18.2725 12C18.2725 8.53639 15.4634 5.72729 11.9998 5.72729Z" fill="white"/>
<path d="M9.81836 15.1363L15.1365 11.8635L9.81836 8.86353V15.1363Z" fill="white"/>
</g>
<defs>
<clipPath id="clip0_18168_41664">
<rect width="24" height="24" fill="white"/>
</clipPath>
</defs>
</svg>
