<svg width="24" height="24" viewBox="0 0 24 24" fill="none" xmlns="http://www.w3.org/2000/svg">
<g clip-path="url(#clip0_18168_41925)">
<path d="M4.45926 4.208C5.20526 4.814 5.48526 4.768 6.88726 4.674L20.1023 3.881C20.3823 3.881 20.1493 3.601 20.0563 3.555L17.8603 1.968C17.4403 1.642 16.8793 1.268 15.8053 1.361L3.01026 2.295C2.54426 2.341 2.45026 2.575 2.63626 2.761L4.45926 4.208ZM5.25226 7.288V21.192C5.25226 21.939 5.62526 22.219 6.46626 22.172L20.9893 21.332C21.8303 21.286 21.9243 20.772 21.9243 20.165V6.354C21.9243 5.748 21.6913 5.421 21.1763 5.467L5.99926 6.354C5.43926 6.401 5.25226 6.681 5.25226 7.287V7.288ZM19.5893 8.033C19.6823 8.453 19.5893 8.873 19.1693 8.921L18.4693 9.061V19.325C17.8613 19.652 17.3013 19.839 16.8343 19.839C16.0863 19.839 15.8993 19.605 15.3393 18.906L10.7623 11.72V18.672L12.2103 19C12.2103 19 12.2103 19.84 11.0423 19.84L7.82026 20.026C7.72726 19.84 7.82026 19.373 8.14726 19.28L8.98726 19.047V9.854L7.82226 9.76C7.72826 9.34 7.96226 8.734 8.61526 8.687L12.0713 8.454L16.8353 15.733V9.293L15.6203 9.154C15.5273 8.64 15.9003 8.267 16.3673 8.221L19.5893 8.033ZM1.93626 1.035L15.2463 0.0549961C16.8803 -0.0850039 17.3013 0.0079961 18.3283 0.754996L22.5773 3.741C23.2773 4.254 23.5113 4.394 23.5113 4.954V21.332C23.5113 22.358 23.1383 22.966 21.8313 23.058L6.37326 23.992C5.39326 24.039 4.92526 23.899 4.41126 23.245L1.28226 19.185C0.722258 18.438 0.489258 17.879 0.489258 17.225V2.667C0.489258 1.828 0.863258 1.127 1.93626 1.035Z" fill="#0A0A0A"/>
</g>
<defs>
<clipPath id="clip0_18168_41925">
<rect width="24" height="24" fill="white"/>
</clipPath>
</defs>
</svg>
