<svg width="24" height="24" viewBox="0 0 24 24" fill="none" xmlns="http://www.w3.org/2000/svg">
<g clip-path="url(#clip0_18168_41921)">
<path d="M6.38744 2.60777C6.38744 3.9873 7.5024 5.10226 8.88193 5.10226H11.3764V2.60777C11.3764 1.22824 10.2615 0.113281 8.88193 0.113281C7.5024 0.113281 6.38744 1.22824 6.38744 2.60777Z" fill="#0A0A0A"/>
<path d="M11.3764 8.86289C11.3764 7.48336 10.2615 6.3684 8.88193 6.3684H2.62681C1.24728 6.3684 0.132324 7.48336 0.132324 8.86289C0.132324 10.2424 1.24728 11.3574 2.62681 11.3574H8.88193C10.2615 11.3574 11.3764 10.2424 11.3764 8.86289Z" fill="#0A0A0A"/>
<path d="M2.64573 17.6125C4.02526 17.6125 5.14022 16.4975 5.14022 15.118V12.6235H2.64573C1.26621 12.6235 0.151245 13.7385 0.151245 15.118C0.151245 16.4975 1.26621 17.6125 2.64573 17.6125Z" fill="#0A0A0A"/>
<path d="M8.88195 12.6235C7.50243 12.6235 6.38747 13.7385 6.38747 15.118V21.3542C6.38747 22.7338 7.50243 23.8487 8.88195 23.8487C10.2615 23.8487 11.3764 22.7338 11.3764 21.3542V15.118C11.3764 13.7385 10.2615 12.6235 8.88195 12.6235Z" fill="#0A0A0A"/>
<path d="M18.8788 8.86289C18.8788 7.48336 19.9938 6.3684 21.3733 6.3684C22.7528 6.3684 23.8678 7.48336 23.8678 8.86289C23.8678 10.2424 22.7528 11.3574 21.3733 11.3574H18.8788V8.86289Z" fill="#0A0A0A"/>
<path d="M17.6316 8.86289C17.6316 10.2424 16.5166 11.3574 15.1371 11.3574C13.7575 11.3574 12.6426 10.2424 12.6426 8.86289V2.60777C12.6426 1.22824 13.7575 0.113281 15.1371 0.113281C16.5166 0.113281 17.6316 1.22824 17.6316 2.60777V8.86289Z" fill="#0A0A0A"/>
<path d="M17.6316 21.3542C17.6316 19.9747 16.5166 18.8597 15.1371 18.8597H12.6426V21.3542C12.6426 22.7338 13.7575 23.8487 15.1371 23.8487C16.5166 23.8487 17.6316 22.7338 17.6316 21.3542Z" fill="#0A0A0A"/>
<path d="M12.6426 15.118C12.6426 16.4975 13.7575 17.6125 15.1371 17.6125H21.3922C22.7717 17.6125 23.8867 16.4975 23.8867 15.118C23.8867 13.7385 22.7717 12.6235 21.3922 12.6235H15.1371C13.7575 12.6235 12.6426 13.7385 12.6426 15.118Z" fill="#0A0A0A"/>
</g>
<defs>
<clipPath id="clip0_18168_41921">
<rect width="24" height="24" fill="white"/>
</clipPath>
</defs>
</svg>
