<svg width="24" height="24" viewBox="0 0 24 24" fill="none" xmlns="http://www.w3.org/2000/svg">
<path fill-rule="evenodd" clip-rule="evenodd" d="M10.5382 5.6792H17.2756C20.893 5.6792 22.2547 7.5105 22.0443 10.2009C21.6964 14.6427 19.0112 17.1001 15.4495 17.1001H13.6512C13.1625 17.1001 12.8338 17.4235 12.7017 18.3001L11.9382 23.3957C11.8877 23.7262 11.7138 23.9175 11.453 23.9436H7.21992C6.82166 23.9436 6.68079 23.6392 6.78514 22.9801L9.36601 6.64442C9.46688 5.99051 9.82514 5.6792 10.5382 5.6792Z" fill="#009EE3"/>
<path fill-rule="evenodd" clip-rule="evenodd" d="M6.32433 0.0566406H13.0687C14.9678 0.0566406 17.2217 0.11751 18.7278 1.44794C19.7348 2.33664 20.2635 3.75055 20.1417 5.27403C19.7278 10.4236 16.6478 13.3088 12.5156 13.3088H9.19042C8.62346 13.3088 8.24955 13.6845 8.08955 14.7001L7.16085 20.6132C7.09998 20.9958 6.93477 21.2219 6.63911 21.2497H2.47738C2.01651 21.2497 1.85303 20.9019 1.97303 20.1332L4.96433 1.18012C5.08433 0.418378 5.50346 0.0566406 6.32433 0.0566406Z" fill="#113984"/>
</svg>
