<svg width="24" height="24" viewBox="0 0 24 24" fill="none" xmlns="http://www.w3.org/2000/svg">
<path d="M11.9997 0C5.24085 0 0 4.95286 0 11.6397C0 15.1376 1.43396 18.1615 3.76789 20.2494C3.96289 20.4234 4.08289 20.6694 4.08889 20.9334L4.15488 23.0694C4.15969 23.2265 4.20302 23.3801 4.28108 23.5166C4.35914 23.6531 4.46952 23.7683 4.60254 23.8521C4.73555 23.936 4.88713 23.9859 5.04394 23.9974C5.20074 24.009 5.35799 23.9818 5.50185 23.9183L7.88378 22.8684C8.08477 22.7784 8.31277 22.7634 8.52576 22.8204C9.62073 23.1204 10.7847 23.2824 11.9997 23.2824C18.7585 23.2824 23.9993 18.3295 23.9993 11.6427C23.9993 4.95586 18.7585 0 11.9997 0Z" fill="url(#paint0_radial_18168_41603)"/>
<path d="M4.79364 15.0447L8.31854 9.45281C8.45114 9.24228 8.62595 9.06153 8.83193 8.92197C9.03792 8.7824 9.27059 8.68706 9.51528 8.64196C9.75997 8.59685 10.0113 8.60297 10.2536 8.65992C10.4958 8.71687 10.7235 8.82341 10.9225 8.97283L13.7274 11.0758C13.8526 11.1695 14.005 11.2199 14.1614 11.2194C14.3178 11.2189 14.4698 11.1674 14.5944 11.0728L18.3803 8.19885C18.8842 7.81486 19.5442 8.42084 19.2082 8.95783L15.6803 14.5467C15.5477 14.7572 15.3729 14.938 15.1669 15.0775C14.961 15.2171 14.7283 15.3124 14.4836 15.3575C14.2389 15.4026 13.9875 15.3965 13.7453 15.3396C13.5031 15.2826 13.2754 15.1761 13.0764 15.0267L10.2715 12.9237C10.1463 12.83 9.99392 12.7795 9.8375 12.7801C9.68107 12.7806 9.52908 12.8321 9.40451 12.9267L5.61862 15.8006C5.11463 16.1846 4.45465 15.5816 4.79364 15.0447Z" fill="white"/>
<defs>
<radialGradient id="paint0_radial_18168_41603" cx="0" cy="0" r="1" gradientUnits="userSpaceOnUse" gradientTransform="translate(4.01989 23.9993) scale(26.3993 26.3993)">
<stop stop-color="#0099FF"/>
<stop offset="0.6" stop-color="#A033FF"/>
<stop offset="0.9" stop-color="#FF5280"/>
<stop offset="1" stop-color="#FF7061"/>
</radialGradient>
</defs>
</svg>
