<svg width="24" height="24" viewBox="0 0 24 24" fill="none" xmlns="http://www.w3.org/2000/svg">
<g clip-path="url(#clip0_18168_41949)">
<path d="M2.53762 21.8397C1.61115 21.8397 0.843094 21.5373 0.223848 20.9327C-0.0785739 20.6209 -0.0737735 20.1438 0.233449 19.8556C0.737486 19.3785 1.07831 19.0336 1.26072 18.821C1.44314 18.6085 1.69276 18.155 2.00478 17.4558C1.04471 15.7788 0.492668 13.842 0.492668 11.7776C0.492668 5.39072 5.75386 0.208496 12.2487 0.208496C18.7388 0.21322 24 5.39545 24 11.7823C24 18.1691 18.7388 23.3514 12.2439 23.3514C9.73335 23.3514 7.40518 22.5766 5.49464 21.2539C4.57297 21.646 3.5889 21.8397 2.53762 21.8397ZM2.88804 20.1343C3.7041 20.1343 4.45296 19.9832 5.15381 19.6855L5.64825 19.473C5.81146 19.4021 5.99867 19.421 6.14749 19.5249L6.58912 19.832C8.23564 20.9705 10.1894 21.5893 12.2487 21.5893C17.6923 21.5893 22.0991 17.248 22.0991 11.8957C22.0991 6.54338 17.6875 2.1973 12.2487 2.1973C6.80993 2.1973 2.39361 6.53865 2.39361 11.8909C2.39361 13.5821 2.83524 15.2072 3.6609 16.648L3.89612 17.0637C3.97292 17.2007 3.98253 17.3708 3.92012 17.5125L3.72331 17.9471C3.36808 18.7455 3.08006 19.2746 2.78244 19.6241C2.67683 19.747 2.53762 19.8934 2.36001 20.0729C2.51842 20.1107 2.69123 20.1343 2.88804 20.1343ZM6.47871 13.9742C6.47871 14.4702 6.24829 14.7206 5.78746 14.7206C5.33623 14.7206 5.10581 14.4702 5.10581 13.9648V10.4879C5.10581 10.2659 5.17301 10.0958 5.29782 9.96828C5.42743 9.84073 5.59064 9.77459 5.79226 9.77459C6.24349 9.77459 6.47391 10.0155 6.47391 10.4974V13.9742H6.47871ZM14.3321 14.0404C14.3321 14.4939 14.1017 14.7206 13.6408 14.7206C13.18 14.7206 12.9496 14.4939 12.9496 14.0404V11.4327C12.9496 11.0548 12.7384 10.8706 12.3207 10.8706C12.1767 10.8706 12.0423 10.9272 11.9127 11.0406C11.7879 11.154 11.7303 11.2863 11.7303 11.4327V14.0356C11.7303 14.4891 11.5047 14.7159 11.0486 14.7159C10.583 14.7159 10.3478 14.4891 10.3478 14.0356V11.3808C10.3478 11.0359 10.1846 10.8658 9.86296 10.8658C9.69975 10.8658 9.54133 10.932 9.37812 11.0548C9.21491 11.1776 9.1333 11.3099 9.1333 11.4563V14.0309C9.1333 14.4844 8.90769 14.7112 8.46126 14.7112C7.99082 14.7112 7.7508 14.4844 7.7508 14.0309V10.4123C7.7508 9.98717 7.97642 9.76987 8.42285 9.76987C8.77808 9.76987 9.00369 9.91159 9.1045 10.1998C9.40212 9.91159 9.77175 9.76987 10.2134 9.76987C10.727 9.76987 11.1303 9.96355 11.4375 10.3509C11.7399 9.96355 12.1959 9.76987 12.796 9.76987C13.3192 9.76987 13.7128 9.93048 13.9817 10.247C14.2169 10.521 14.3321 10.8942 14.3321 11.3666V14.0404ZM17.3707 14.8009C16.0986 14.8009 15.0713 13.6766 15.0713 12.2878C15.0713 10.8989 16.0986 9.77459 17.3707 9.77459C18.6428 9.77459 19.6701 10.8989 19.6701 12.2878C19.6701 13.6766 18.6428 14.8009 17.3707 14.8009ZM17.3707 13.5443C17.9372 13.5443 18.3932 12.9255 18.3932 12.1602C18.3932 11.3949 17.9372 10.7761 17.3707 10.7761C16.8043 10.7761 16.3482 11.3949 16.3482 12.1602C16.3482 12.9255 16.8091 13.5443 17.3707 13.5443ZM5.87386 9.5195C5.45143 9.5195 5.10581 9.18409 5.10581 8.76366C5.10581 8.34794 5.44663 8.00782 5.87386 8.00782C6.2963 8.00782 6.64192 8.34794 6.64192 8.76366C6.64192 9.17937 6.2963 9.5195 5.87386 9.5195Z" fill="#0A0A0A"/>
</g>
<defs>
<clipPath id="clip0_18168_41949">
<rect width="24" height="24" fill="white"/>
</clipPath>
</defs>
</svg>
