<svg width="40" height="40" viewBox="0 0 40 40" fill="none" xmlns="http://www.w3.org/2000/svg">
<path d="M19.9999 40C-6.66889 39.5287 -6.66465 0.467469 20.0008 0C46.6687 0.471303 46.6644 39.5325 19.9999 40Z" fill="#A1B1B3"/>
<path d="M29.2699 18.4602C30.7777 18.4602 32 17.2379 32 15.7301C32 14.2223 30.7777 13 29.2699 13C27.7621 13 26.5398 14.2223 26.5398 15.7301C26.5398 17.2379 27.7621 18.4602 29.2699 18.4602Z" fill="white"/>
<path fill-rule="evenodd" clip-rule="evenodd" d="M18.2047 23.5607C18.0428 23.4528 17.568 22.827 16.2839 19.7408C16.1975 19.5465 16.1328 19.3847 16.0573 19.2336L15.7983 18.5969L13.5322 13.1367H9L11.2661 18.5969L13.5322 24.0571L15.6256 29.1073C15.6688 29.2044 15.7767 29.2476 15.8738 29.2044C15.917 29.1828 15.9601 29.1504 15.9709 29.1073L18.2478 23.6579C18.2478 23.6363 18.237 23.5823 18.2047 23.5607Z" fill="white"/>
<path fill-rule="evenodd" clip-rule="evenodd" d="M26.6858 23.5607C26.5239 23.4528 26.0491 22.827 24.765 19.7408C24.6787 19.5465 24.6139 19.3847 24.5384 19.2336L24.2794 18.5969L22.0133 13.1367H17.4919L19.758 18.5969L22.0241 24.0571L24.1068 29.1073C24.1499 29.2044 24.2578 29.2476 24.355 29.2044C24.3981 29.1828 24.4413 29.1504 24.4521 29.1073L26.729 23.6579C26.729 23.6363 26.7182 23.5823 26.6858 23.5607Z" fill="white"/>
</svg>
