<svg width="24" height="24" viewBox="0 0 24 24" fill="none" xmlns="http://www.w3.org/2000/svg">
<rect width="24" height="24" rx="4.8" fill="#232F3E"/>
<path d="M13.2 8.1c0-1.2-0.72-1.8-2.1-1.8-0.72 0-1.32 0.18-1.8 0.48-0.48 0.3-0.72 0.72-0.72 1.2h1.44c0-0.18 0.06-0.3 0.24-0.42 0.12-0.12 0.3-0.12 0.54-0.12 0.48 0 0.72 0.24 0.72 0.6v0.36c-0.96 0-1.74 0.18-2.28 0.54-0.54 0.36-0.84 0.84-0.84 1.44 0 0.54 0.18 0.96 0.6 1.26 0.36 0.3 0.84 0.48 1.38 0.48 0.6 0 1.14-0.24 1.56-0.72 0.06 0.18 0.12 0.42 0.3 0.54h1.5c-0.24-0.3-0.36-0.66-0.36-1.08V8.1zm-1.68 2.52c-0.18 0.42-0.54 0.6-0.96 0.6-0.24 0-0.48-0.06-0.6-0.18-0.18-0.12-0.24-0.3-0.24-0.54 0-0.3 0.12-0.54 0.42-0.72 0.3-0.18 0.72-0.24 1.32-0.24v1.08z" fill="white"/>
<path d="M6.6 16.5C12 19.2 17.4 19.2 22.8 16.5" stroke="#FF9900" stroke-width="1.2" stroke-linecap="round"/>
<path d="M15.9 15.9L17.4 16.5L16.8 18" stroke="#FF9900" stroke-width="1.2" stroke-linecap="round" stroke-linejoin="round"/>
</svg>
