<svg width="24" height="24" viewBox="0 0 24 24" fill="none" xmlns="http://www.w3.org/2000/svg">
<path d="M12.0001 4.63467C11.1734 4.63467 10.5014 3.96267 10.5014 3.136V1.49867C10.5014 0.672 11.1734 0 12.0001 0C12.8267 0 13.4987 0.672 13.4987 1.49867V3.136C13.4987 3.96267 12.8267 4.63467 12.0001 4.63467Z" fill="#0A0A0A"/>
<path d="M12.0001 19.3653C11.1734 19.3653 10.5014 20.0373 10.5014 20.864V22.5013C10.5014 23.328 11.1734 24 12.0001 24C12.8267 24 13.4987 23.328 13.4987 22.5013V20.864C13.4987 20.0373 12.8267 19.3653 12.0001 19.3653Z" fill="#0A0A0A"/>
<path d="M8.18032 17.7281V16.0908C8.18032 15.2641 7.50832 14.5921 6.68165 14.5921C5.85498 14.5921 5.18298 15.2641 5.18298 16.0908V17.7281C5.18298 18.5548 5.85498 19.2268 6.68165 19.2268C7.50832 19.2268 8.18032 18.5548 8.18032 17.7281Z" fill="#0A0A0A"/>
<path d="M8.18032 11.6268V6.2721C8.18032 5.44544 7.50832 4.77344 6.68165 4.77344C5.85498 4.77344 5.18298 5.44544 5.18298 6.2721V11.6268C5.19898 12.4428 5.86565 13.0934 6.68165 13.0934C7.49765 13.0934 8.16432 12.4374 8.18032 11.6268Z" fill="#0A0A0A"/>
<path d="M2.99733 11.1841V12.8214C2.99733 13.6481 2.32533 14.3201 1.49867 14.3201C0.672 14.3201 0 13.6481 0 12.8161V11.1788C0 10.3521 0.672 9.6801 1.49867 9.6801C2.32533 9.6801 2.99733 10.3521 2.99733 11.1841Z" fill="#0A0A0A"/>
<path d="M21.0014 11.1843C21.0014 10.3576 21.6734 9.68564 22.5001 9.68564C23.3267 9.68564 23.9987 10.3576 23.9987 11.1843V12.8643C23.9774 13.675 23.3161 14.3203 22.5001 14.3203C21.6841 14.3203 21.0227 13.6696 21.0014 12.8643V11.1843Z" fill="#0A0A0A"/>
<path d="M15.8199 7.90944C15.8199 8.7361 16.4919 9.4081 17.3186 9.4081C18.1452 9.4081 18.8172 8.7361 18.8172 7.90944V6.2721C18.8172 5.44544 18.1452 4.77344 17.3186 4.77344C16.4919 4.77344 15.8199 5.44544 15.8199 6.2721V7.90944Z" fill="#0A0A0A"/>
<path d="M15.8199 12.4109C15.8199 11.5842 16.4919 10.9122 17.3186 10.9122C18.1452 10.9122 18.8172 11.5842 18.8172 12.4109V17.7282C18.8172 18.5549 18.1452 19.2269 17.3186 19.2269C16.4919 19.2269 15.8199 18.5549 15.8199 17.7282V12.4109Z" fill="#0A0A0A"/>
<path d="M13.4987 16.3631V7.6378C13.4987 6.8058 12.8267 6.13913 12.0001 6.13913C11.1734 6.13913 10.5014 6.81113 10.5014 7.6378V16.3631C10.5014 17.1898 11.1734 17.8618 12.0001 17.8618C12.8267 17.8618 13.4987 17.1898 13.4987 16.3631Z" fill="#0A0A0A"/>
</svg>
