<svg width="24" height="24" viewBox="0 0 24 24" fill="none" xmlns="http://www.w3.org/2000/svg">
<g clip-path="url(#clip0_18168_41789)">
<path d="M24 12C24 13.2833 23.8968 14.5415 23.6998 15.7684C23.0474 19.8301 19.8301 23.0475 15.7684 23.6998C14.5415 23.8969 13.2832 24 12 24C10.7168 24 9.45855 23.8969 8.23161 23.6998C4.16992 23.0475 0.952577 19.8301 0.300214 15.7684C0.103157 14.5415 0 13.2833 0 12C0 10.7168 0.103157 9.45848 0.300214 8.23158C0.952586 4.16989 4.16993 0.952561 8.23161 0.300215C9.45855 0.103157 10.7168 0 12 0C13.2832 0 14.5415 0.103157 15.7684 0.300215C19.8301 0.952561 23.0474 4.16989 23.6998 8.23157C23.8969 9.45848 24 10.7168 24 12Z" fill="#0B5CFF"/>
<path d="M14.5716 15.0001C14.5716 15.7101 13.996 16.2858 13.2859 16.2858H7.71449C6.29433 16.2858 5.14307 15.1345 5.14307 13.7144V9.00007C5.14307 8.29004 5.7187 7.71436 6.42878 7.71436H12.0002C13.4204 7.71436 14.5716 8.86562 14.5716 10.2858V15.0001ZM17.8288 8.48571L15.9431 9.89999C15.6193 10.1428 15.4288 10.5239 15.4288 10.9286L15.4288 13.0715C15.4288 13.4761 15.6194 13.8572 15.9431 14.1L17.8288 15.5143C18.2526 15.8321 18.8574 15.5297 18.8574 15V9C18.8574 8.47026 18.2526 8.16786 17.8288 8.48571Z" fill="white"/>
</g>
<defs>
<clipPath id="clip0_18168_41789">
<rect width="24" height="24" fill="white"/>
</clipPath>
</defs>
</svg>
