<svg width="24" height="24" viewBox="0 0 24 24" fill="none" xmlns="http://www.w3.org/2000/svg">
<g clip-path="url(#clip0_18168_41645)">
<path fill-rule="evenodd" clip-rule="evenodd" d="M23.528 20.8C23.296 21.392 22.76 22.224 21.992 22.816C21.552 23.152 21.024 23.48 20.304 23.696C19.536 23.928 18.584 24 17.4 24H6.6C5.416 24 4.472 23.92 3.696 23.696C2.976 23.48 2.448 23.16 2.008 22.816C1.248 22.232 0.704 21.392 0.472 20.8C0.00799999 19.608 0 18.256 0 17.4V6.6C0 5.744 0.00799999 4.392 0.472 3.2C0.704 2.608 1.24 1.776 2.008 1.184C2.448 0.848 2.976 0.52 3.696 0.304C4.472 0.08 5.416 0 6.6 0H17.4C18.584 0 19.528 0.08 20.304 0.304C21.024 0.52 21.552 0.84 21.992 1.184C22.752 1.768 23.296 2.608 23.528 3.2C24 4.392 24 5.752 24 6.6V17.4C24 18.256 23.992 19.608 23.528 20.8Z" fill="url(#paint0_linear_18168_41645)"/>
<path d="M14.056 14.488C14.024 14.2 13.928 13.992 13.736 13.8C13.376 13.424 12.744 13.176 12 13.176C11.256 13.176 10.624 13.416 10.264 13.8C10.08 14 9.97604 14.2 9.94404 14.488C9.88004 15.048 9.92004 15.528 9.98404 16.304C10.048 17.04 10.168 18.024 10.32 19.016C10.432 19.728 10.52 20.112 10.6 20.384C10.736 20.832 11.224 21.216 12 21.216C12.776 21.216 13.272 20.824 13.4 20.384C13.48 20.112 13.568 19.728 13.68 19.016C13.832 18.016 13.952 17.04 14.016 16.304C14.088 15.528 14.12 15.048 14.056 14.488Z" fill="white"/>
<path d="M13.9682 10.4079C13.9682 11.4959 13.0882 12.3759 12.0002 12.3759C10.9122 12.3759 10.0322 11.4959 10.0322 10.4079C10.0322 9.31994 10.9122 8.43994 12.0002 8.43994C13.0882 8.43994 13.9682 9.32794 13.9682 10.4079Z" fill="white"/>
<path d="M11.9758 2.65602C7.3838 2.67202 3.6238 6.40002 3.5598 10.992C3.5118 14.712 5.8878 17.896 9.2078 19.064C9.2878 19.096 9.3678 19.024 9.3598 18.944C9.3198 18.656 9.2718 18.368 9.2398 18.08C9.2238 17.976 9.1598 17.896 9.0718 17.848C6.4478 16.704 4.6158 14.072 4.6478 11.024C4.6878 7.02402 7.9518 3.76802 11.9438 3.73602C16.0318 3.70402 19.3678 7.01602 19.3678 11.096C19.3678 14.112 17.5438 16.704 14.9438 17.848C14.8478 17.888 14.7838 17.976 14.7758 18.08C14.7358 18.368 14.6958 18.656 14.6558 18.944C14.6398 19.032 14.7278 19.096 14.8078 19.064C18.0958 17.912 20.4558 14.776 20.4558 11.096C20.4398 6.44002 16.6398 2.64802 11.9758 2.65602Z" fill="white"/>
<path d="M11.784 5.45598C8.79199 5.56798 6.39199 8.03997 6.35199 11.032C6.32799 13 7.31199 14.744 8.82399 15.776C8.89599 15.824 8.99999 15.768 8.99999 15.68C8.97599 15.336 8.97599 15.032 8.99199 14.712C8.99999 14.608 8.95999 14.512 8.87999 14.44C7.95999 13.576 7.39999 12.344 7.43199 10.984C7.49599 8.58398 9.42399 6.63198 11.824 6.53598C14.432 6.43198 16.576 8.52798 16.576 11.104C16.576 12.416 16.016 13.6 15.128 14.44C15.056 14.512 15.016 14.608 15.016 14.712C15.032 15.024 15.024 15.328 15.008 15.672C15 15.76 15.104 15.824 15.184 15.768C16.672 14.752 17.656 13.032 17.656 11.096C17.664 7.91198 15 5.32798 11.784 5.45598Z" fill="white"/>
</g>
<defs>
<linearGradient id="paint0_linear_18168_41645" x1="12" y1="0" x2="12" y2="24" gradientUnits="userSpaceOnUse">
<stop stop-color="#F452FF"/>
<stop offset="1" stop-color="#832BC1"/>
</linearGradient>
<clipPath id="clip0_18168_41645">
<rect width="24" height="24" fill="white"/>
</clipPath>
</defs>
</svg>
