<svg width="24" height="24" viewBox="0 0 24 24" fill="none" xmlns="http://www.w3.org/2000/svg">
<path fill-rule="evenodd" clip-rule="evenodd" d="M14.7405 0.529285C17.0042 -0.650402 19.8069 0.208973 20.9983 2.44921C22.1897 4.68944 21.3206 7.46093 19.0569 8.64061L17.1956 9.61913C18.7991 9.67772 20.3284 10.5586 21.1292 12.0644C22.3206 14.3047 21.4534 17.0762 19.1878 18.2558L9.26201 23.4707C6.99834 24.6504 4.19561 23.791 3.00421 21.5508C1.8128 19.3105 2.68194 16.5391 4.94561 15.3594L6.80694 14.3808C5.20342 14.3223 3.67413 13.4414 2.87335 11.9355C1.68194 9.6953 2.55108 6.92382 4.81475 5.74413L14.7405 0.529285ZM9.38311 8.30663L15.3909 12.0156L9.38311 15.707V8.30663Z" fill="#0A0A0A"/>
</svg>
