<svg width="24" height="24" viewBox="0 0 24 24" fill="none" xmlns="http://www.w3.org/2000/svg">
<g clip-path="url(#clip0_18168_41955)">
<path d="M7.07579 21.337H2.46979C2.37727 21.337 2.28585 21.3169 2.20182 21.2782C2.11779 21.2394 2.04314 21.183 1.983 21.1127C1.92286 21.0424 1.87865 20.9599 1.85341 20.8708C1.82817 20.7818 1.8225 20.6884 1.83679 20.597L4.94379 0.901C5.02579 0.382 5.47379 0 5.99779 0H13.4578C16.0278 0 18.0358 0.543 19.1478 1.81C20.1578 2.96 20.4518 4.23 20.1598 6.097C20.1368 6.24 20.1128 6.385 20.0828 6.534C19.0998 11.584 15.7338 13.331 11.4358 13.331H9.24579C8.72179 13.331 8.27779 13.713 8.19579 14.231L7.07579 21.337ZM21.2218 6.917C21.0422 6.71269 20.8383 6.53102 20.6148 6.376C20.6018 6.452 20.5888 6.551 20.5738 6.63C19.6438 11.408 16.5688 13.831 11.4358 13.831H9.24579C9.11115 13.8312 8.98103 13.8796 8.87902 13.9675C8.77702 14.0553 8.70988 14.1769 8.68979 14.31L7.50279 21.837H6.99679L6.75679 23.353C6.74421 23.433 6.74913 23.5147 6.7712 23.5926C6.79327 23.6705 6.83196 23.7427 6.88462 23.8042C6.93728 23.8657 7.00265 23.9151 7.07623 23.9489C7.1498 23.9827 7.22983 24.0001 7.31079 24H11.1928C11.6528 24 12.0428 23.666 12.1148 23.212C12.1748 22.952 12.8748 18.36 12.9308 18.122C12.9652 17.9021 13.0772 17.7017 13.2465 17.5572C13.4158 17.4126 13.6312 17.3335 13.8538 17.334H14.4338C18.1938 17.334 21.1388 15.806 21.9988 11.388C22.3588 9.541 22.1728 8 21.2218 6.917Z" fill="black"/>
</g>
<defs>
<clipPath id="clip0_18168_41955">
<rect width="24" height="24" fill="white"/>
</clipPath>
</defs>
</svg>
