<svg width="24" height="24" viewBox="0 0 24 24" fill="none" xmlns="http://www.w3.org/2000/svg">
<path d="M19.3716 4.03518C18.8843 3.59239 16.7806 2.27062 12.3914 2.25148C12.3914 2.25148 7.19411 1.90998 4.67103 4.19531C3.26641 5.58182 2.79334 7.64366 2.74077 10.1601C2.68821 12.6766 2.42016 17.4826 7.02249 18.7612C7.02249 18.7612 7.00474 22.3296 7.0023 22.6433C7.0023 22.8626 7.03711 23.0126 7.16243 23.0436C7.25294 23.0655 7.38766 23.0189 7.50288 22.9043C8.23843 22.1653 10.5944 19.323 10.5944 19.323C13.7559 19.5294 16.2707 18.9053 16.5411 18.8169C17.1775 18.6129 20.6251 18.3152 21.2103 13.6012C21.8171 8.7395 20.991 5.42169 19.3716 4.03518Z" fill="white"/>
<path d="M20.5167 2.85981C19.9402 2.3279 17.6107 0.636794 12.4218 0.613819C12.4218 0.613819 6.30276 0.244825 3.31983 2.98095C1.65936 4.64177 1.07523 7.07191 1.01362 10.0848C0.952003 13.0976 0.872286 18.7439 6.31495 20.2749H6.32017L6.31669 22.6111C6.31669 22.6111 6.28188 23.5569 6.90464 23.7497C7.65795 23.9837 8.10004 23.2648 8.81923 22.4899C9.21399 22.0645 9.75912 21.4397 10.1699 20.9621C13.8922 21.2754 16.755 20.5593 17.0802 20.4535C17.8317 20.2098 22.0846 19.6647 22.7763 14.0191C23.4902 8.19978 22.4309 4.51889 20.5167 2.85981ZM21.1475 13.6017C20.5637 18.3158 17.1143 18.612 16.4783 18.816C16.2078 18.903 13.6934 19.5286 10.5316 19.3222C10.5316 19.3222 8.17558 22.1645 7.43968 22.9035C7.32481 23.0191 7.18974 23.0657 7.09958 23.0427C6.97287 23.0117 6.93806 22.8617 6.93945 22.6424C6.94154 22.3291 6.95964 18.7603 6.95964 18.7603C2.35557 17.4821 2.62396 12.6764 2.67618 10.16C2.7284 7.6435 3.20113 5.58201 4.60539 4.1955C7.12847 1.91017 12.3261 2.25166 12.3261 2.25166C16.7154 2.27081 18.8186 3.59257 19.3063 4.03537C20.9257 5.42188 21.7507 8.73969 21.1475 13.6003V13.6017Z" fill="#7360F2"/>
<path d="M14.5577 10.2465C14.4825 10.2466 14.4101 10.2176 14.3557 10.1658C14.3012 10.114 14.2687 10.0432 14.2649 9.96806C14.2151 8.97213 13.7459 8.48443 12.7883 8.43291C12.712 8.42684 12.641 8.3912 12.5907 8.33359C12.5403 8.27598 12.5144 8.20096 12.5185 8.12453C12.5226 8.04811 12.5565 7.97631 12.6128 7.92448C12.6691 7.87264 12.7434 7.84485 12.8199 7.84704C14.0836 7.91667 14.786 8.63829 14.8508 9.93882C14.8527 9.97731 14.847 10.0158 14.8341 10.0521C14.8211 10.0884 14.8011 10.1218 14.7753 10.1504C14.7494 10.1789 14.7182 10.2021 14.6834 10.2186C14.6485 10.2352 14.6108 10.2446 14.5723 10.2465H14.5577Z" fill="#7360F2"/>
<path d="M16.0639 10.7514H16.0569C15.9792 10.7496 15.9053 10.717 15.8516 10.6607C15.7979 10.6044 15.7687 10.5291 15.7705 10.4514C15.7931 9.44847 15.5066 8.63633 14.8946 7.96866C14.2826 7.30099 13.4489 6.93896 12.3374 6.8575C12.2597 6.85182 12.1874 6.8155 12.1364 6.75651C12.0855 6.69753 12.06 6.62072 12.0657 6.54299C12.0714 6.46525 12.1077 6.39295 12.1667 6.342C12.2257 6.29105 12.3025 6.26561 12.3802 6.27129C13.631 6.36284 14.6224 6.80041 15.3273 7.57147C16.0322 8.34253 16.3828 9.31793 16.357 10.4635C16.3555 10.5403 16.3239 10.6134 16.2691 10.6672C16.2144 10.721 16.1407 10.7513 16.0639 10.7514Z" fill="#7360F2"/>
<path d="M17.605 11.3535C17.5276 11.3534 17.4533 11.3228 17.3983 11.2682C17.3434 11.2137 17.3122 11.1396 17.3115 11.0622C17.298 9.26836 16.7814 7.89821 15.7322 6.87408C14.6955 5.86457 13.3859 5.34659 11.8393 5.33545C11.8007 5.33531 11.7626 5.32758 11.7271 5.31271C11.6915 5.29783 11.6592 5.2761 11.6321 5.24876C11.5773 5.19353 11.5466 5.11878 11.5469 5.04095C11.5472 4.96312 11.5783 4.88859 11.6336 4.83375C11.6888 4.77891 11.7635 4.74826 11.8414 4.74854H11.8438C13.5468 4.76107 14.9928 5.33475 16.1419 6.45426C17.291 7.57378 17.8835 9.12564 17.8988 11.0587C17.8994 11.1365 17.869 11.2113 17.8144 11.2667C17.7599 11.3221 17.6855 11.3536 17.6078 11.3542L17.605 11.3535Z" fill="#7360F2"/>
<path d="M12.862 13.8837C12.862 13.8837 13.2745 13.9185 13.4966 13.6449L13.9296 13.1001C14.1385 12.83 14.6425 12.6577 15.1362 12.9327C15.5061 13.1436 15.8652 13.373 16.2122 13.6198C16.5397 13.8607 17.2105 14.4205 17.2126 14.4205C17.5322 14.6903 17.606 15.0864 17.3884 15.5041C17.3884 15.5066 17.3867 15.5108 17.3867 15.5128C17.1471 15.9282 16.8428 16.3029 16.4854 16.6226C16.4813 16.6247 16.4813 16.6268 16.4774 16.6289C16.1669 16.8883 15.8619 17.0358 15.5622 17.0713C15.5181 17.079 15.4733 17.0818 15.4286 17.0797C15.2965 17.0809 15.165 17.0607 15.0394 17.0198L15.0296 17.0055C14.5681 16.8753 13.7973 16.5495 12.5139 15.8415C11.7711 15.4365 11.0641 14.9695 10.4002 14.4452C10.0674 14.1826 9.74999 13.9011 9.44948 13.6021L9.41745 13.5701L9.38543 13.538L9.3534 13.506C9.34261 13.4956 9.33217 13.4848 9.32138 13.474C9.02238 13.1735 8.74088 12.8561 8.47826 12.5233C7.95408 11.8595 7.48699 11.1525 7.082 10.4099C6.37395 9.12611 6.04812 8.3561 5.91793 7.89381L5.90366 7.88407C5.86285 7.75842 5.84274 7.62698 5.84413 7.49488C5.84169 7.45016 5.84438 7.40532 5.85214 7.36121C5.8895 7.06207 6.03722 6.75678 6.29528 6.44534C6.29737 6.44151 6.29946 6.44151 6.30154 6.43733C6.62121 6.07993 6.99584 5.77581 7.41131 5.53643C7.4134 5.53643 7.41758 5.53434 7.42001 5.53434C7.83774 5.31677 8.23389 5.39057 8.50332 5.70839C8.50541 5.71048 9.06413 6.38129 9.30397 6.70886C9.55086 7.05617 9.7802 7.41564 9.99114 7.7859C10.2661 8.27917 10.0938 8.78427 9.8237 8.99244L9.27891 9.42549C9.0039 9.64758 9.04011 10.0601 9.04011 10.0601C9.04011 10.0601 9.84702 13.114 12.862 13.8837Z" fill="#7360F2"/>
</svg>
