<svg width="24" height="24" viewBox="0 0 24 24" fill="none" xmlns="http://www.w3.org/2000/svg">
<path d="M9.24945 4.50001C9.24945 4.75751 9.27726 5.00851 9.33003 5.25018H12.5003C12.7652 5.25097 13.019 5.35656 13.2063 5.54388C13.3936 5.7312 13.4992 5.98503 13.5 6.24993V7.91943C13.3916 7.94315 13.2826 7.96161 13.1734 7.97488C14.9067 7.76575 16.2499 6.28974 16.2499 4.50001C16.2499 2.56687 14.6828 0.999756 12.7497 0.999756C10.8166 0.999756 9.24945 2.56687 9.24945 4.50001Z" fill="#0A0A0A"/>
<path d="M23.2504 5.62512C23.2504 7.07487 22.0752 8.25012 20.6254 8.25012C19.1757 8.25012 18.0004 7.07487 18.0004 5.62512C18.0004 4.17537 19.1757 3.00012 20.6254 3.00012C22.0752 3.00012 23.2504 4.17537 23.2504 5.62512Z" fill="#0A0A0A"/>
<path d="M22.8749 9.00031C23.1733 9.00031 23.4595 9.11883 23.6704 9.32981C23.8814 9.54079 23.9999 9.82694 23.9999 10.1253V15.7038C23.9996 16.2621 23.8747 16.8132 23.6344 17.3171C23.3942 17.8211 23.0446 18.2651 22.6111 18.6168C22.1776 18.9686 21.6711 19.2192 21.1285 19.3505C20.5859 19.4818 20.0208 19.4904 19.4744 19.3758C19.1281 19.2958 18.7971 19.1686 18.4898 18.9998C18.2818 19.683 17.9522 20.328 17.5119 20.9023C16.7084 21.9501 15.5815 22.7034 14.3062 23.0454C13.0308 23.3873 11.6782 23.2987 10.4584 22.7933C9.23851 22.2879 8.21957 21.394 7.55969 20.2503C7.41537 20.0104 7.28999 19.7597 7.18469 19.5003H12.5022C12.5758 19.5014 12.6491 19.4913 12.7197 19.4703C12.9406 19.4223 13.1385 19.3002 13.2804 19.1242C13.4223 18.9482 13.4997 18.7289 13.4997 18.5028V9.00031L22.8749 9.00031Z" fill="#0A0A0A"/>
<path fill-rule="evenodd" clip-rule="evenodd" d="M0.999749 6.00018H11.0002C11.2654 6.00018 11.5197 6.10551 11.7072 6.293C11.8947 6.48049 12 6.73478 12 6.99993V17.0004C12 17.2656 11.8947 17.5199 11.7072 17.7074C11.5197 17.8949 11.2654 18.0002 11.0002 18.0002H0.999749C0.734599 18.0002 0.480309 17.8949 0.29282 17.7074C0.10533 17.5199 0 17.2656 0 17.0004V6.99993C0 6.73478 0.10533 6.48049 0.29282 6.293C0.480309 6.10551 0.734599 6.00018 0.999749 6.00018ZM8.98507 9.73153H6.74257V15.7465H5.27107V9.73153H3.01508V8.25403H8.98507V9.73153Z" fill="#0A0A0A"/>
</svg>
