<svg width="24" height="24" viewBox="0 0 24 24" fill="none" xmlns="http://www.w3.org/2000/svg">
<path d="M13.5762 12L15.9156 14.549L19.0613 16.4653L19.6098 12.0156L19.0613 7.66528L15.8552 9.34895L13.5762 12Z" fill="#00832D"/>
<path d="M0 16.0521V19.843C0 20.7097 0.736372 21.4117 1.64552 21.4117H5.62221L6.44497 18.5463L5.62221 16.0521L2.89338 15.2678L0 16.0521Z" fill="#0066DA"/>
<path d="M5.62221 2.58813L0 7.94765L2.89338 8.73197L5.62221 7.94765L6.43126 5.4875L5.62221 2.58813Z" fill="#E94235"/>
<path d="M5.62221 7.948H0V16.0526H5.62221V7.948Z" fill="#2684FC"/>
<path d="M22.6532 4.85757L19.0605 7.66543V16.4655L22.6697 19.2864C23.21 19.689 23.9998 19.3217 23.9998 18.6668V5.46411C23.9998 4.80136 23.1922 4.43796 22.6532 4.85757ZM13.5754 12.0001V16.0524H5.62207V21.4119H17.415C18.3241 21.4119 19.0605 20.71 19.0605 19.8433V16.4655L13.5754 12.0001Z" fill="#00AC47"/>
<path d="M17.415 2.58813H5.62207V7.94765H13.5754V12L19.0605 7.66791V4.15677C19.0605 3.2901 18.3241 2.58813 17.415 2.58813Z" fill="#FFBA00"/>
</svg>
