<svg width="24" height="24" viewBox="0 0 24 24" fill="none" xmlns="http://www.w3.org/2000/svg">
<g clip-path="url(#clip0_18168_41917)">
<path fill-rule="evenodd" clip-rule="evenodd" d="M21.4236 9.99481C21.4236 9.99481 19.0244 10.5822 16.9918 9.99481V9.99331C21.0119 9.21212 23.3285 6.94364 24 3.9751H19.9829C16.5312 3.9751 14.6757 4.16024 13.2278 5.92755C12.583 5.36865 11.8519 4.91566 11.0622 4.58803C10.0917 4.18391 9.0506 3.97659 8.0005 3.97659L7.99899 3.9781C4.76454 3.9781 1.84708 5.93259 0.60918 8.93118C-0.628715 11.9283 0.0548317 15.3806 2.34283 17.6746C4.59756 19.9367 7.97127 20.6363 10.9299 19.4672C11.0185 19.4323 11.1065 19.3957 11.1937 19.3576C13.0893 18.5305 14.5519 17.0196 15.3427 15.1848C18.5226 14.9513 20.7285 13.0424 21.4236 9.99481ZM10.3027 12.6854L10.2767 12.7686C10.2594 12.8205 10.2403 12.8719 10.2194 12.9228C10.0988 13.2146 9.9222 13.48 9.6996 13.704C9.47675 13.9274 9.21189 14.1046 8.92028 14.2253C8.62868 14.3459 8.31608 14.4077 8.0005 14.4071L8.002 14.4086C7.5268 14.4083 7.06238 14.267 6.66761 14.0025C6.27284 13.738 5.96552 13.3622 5.7846 12.9228C5.41203 12.0229 5.61785 10.9878 6.3044 10.2998C6.99095 9.61172 8.02303 9.40591 8.9199 9.77848C9.81678 10.151 10.4012 11.0284 10.4012 12.0019C10.4012 12.2335 10.368 12.4635 10.3027 12.6854Z" fill="#0A0A0A"/>
</g>
<defs>
<clipPath id="clip0_18168_41917">
<rect width="24" height="24" fill="white"/>
</clipPath>
</defs>
</svg>
