<svg width="24" height="24" viewBox="0 0 24 24" fill="none" xmlns="http://www.w3.org/2000/svg">
<path d="M11.1575 11.4629L1.08984 22.0107C1.20289 22.4113 1.40605 22.7808 1.68379 23.091C1.96154 23.4011 2.30651 23.6436 2.69235 23.8C3.07818 23.9563 3.49465 24.0224 3.90994 23.9931C4.32522 23.9639 4.72831 23.84 5.0884 23.6311L16.4164 17.1794L11.1575 11.4629Z" fill="#EA4335"/>
<path d="M21.338 9.67L16.4392 6.86426L10.9253 11.703L16.4618 17.1645L21.323 14.3887C21.7537 14.1632 22.1145 13.8242 22.3662 13.4083C22.6179 12.9924 22.7509 12.5155 22.7509 12.0294C22.7509 11.5432 22.6179 11.0664 22.3662 10.6505C22.1145 10.2346 21.7537 9.89549 21.323 9.67H21.338Z" fill="#FBBC04"/>
<path d="M1.09005 1.99561C1.0292 2.22058 0.998916 2.45273 1.00003 2.68579V21.3207C1.00064 21.5536 1.03089 21.7856 1.09005 22.0109L11.5028 11.7332L1.09005 1.99561Z" fill="#4285F4"/>
<path d="M11.2325 12.0032L16.4389 6.86431L5.12591 0.382606C4.70031 0.133346 4.21625 0.00133073 3.72304 5.36551e-06C3.12737 -0.00117508 2.54765 0.192452 2.07225 0.55137C1.59685 0.910289 1.25185 1.41481 1.08984 1.98803L11.2325 12.0032Z" fill="#34A853"/>
</svg>
