<svg width="24" height="24" viewBox="0 0 24 24" fill="none" xmlns="http://www.w3.org/2000/svg">
<g clip-path="url(#clip0_18168_41915)">
<path d="M14.5578 10.2464C14.4826 10.2464 14.4103 10.2175 14.3558 10.1657C14.3013 10.1139 14.2688 10.0431 14.265 9.96794C14.2153 8.97201 13.746 8.48431 12.7884 8.43279C12.7121 8.42672 12.6412 8.39108 12.5908 8.33347C12.5404 8.27586 12.5145 8.20084 12.5186 8.12441C12.5227 8.04798 12.5566 7.97619 12.6129 7.92435C12.6692 7.87251 12.7435 7.84473 12.8201 7.84692C14.0837 7.91654 14.7862 8.63817 14.8509 9.9387C14.8528 9.97719 14.8472 10.0157 14.8342 10.052C14.8212 10.0883 14.8013 10.1217 14.7754 10.1502C14.7495 10.1788 14.7183 10.202 14.6835 10.2185C14.6487 10.235 14.6109 10.2445 14.5724 10.2464H14.5578Z" fill="#0A0A0A"/>
<path d="M16.0567 10.7512H16.0637C16.1405 10.751 16.2141 10.7208 16.2689 10.667C16.3237 10.6132 16.3552 10.5401 16.3568 10.4633C16.3825 9.31768 16.032 8.34228 15.3271 7.57123C14.6222 6.80017 13.6307 6.3626 12.38 6.27105C12.3023 6.26537 12.2254 6.2908 12.1665 6.34176C12.1075 6.39271 12.0712 6.46501 12.0655 6.54274C12.0598 6.62048 12.0852 6.69729 12.1362 6.75627C12.1871 6.81525 12.2594 6.85158 12.3372 6.85726C13.4487 6.93871 14.2824 7.30075 14.8944 7.96842C15.5063 8.63609 15.7928 9.44822 15.7702 10.4511C15.7684 10.5289 15.7976 10.6042 15.8513 10.6605C15.9051 10.7167 15.9789 10.7494 16.0567 10.7512Z" fill="#0A0A0A"/>
<path d="M17.6047 11.3534C17.5273 11.3533 17.453 11.3227 17.3981 11.2681C17.3431 11.2135 17.3119 11.1395 17.3113 11.062C17.2977 9.26824 16.7811 7.89809 15.7319 6.87396C14.6953 5.86445 13.3857 5.34646 11.839 5.33532C11.8005 5.33519 11.7624 5.32746 11.7268 5.31259C11.6913 5.29771 11.659 5.27598 11.6318 5.24863C11.577 5.19341 11.5464 5.11865 11.5466 5.04083C11.5469 4.963 11.5781 4.88846 11.6333 4.83363C11.6886 4.77879 11.7633 4.74814 11.8411 4.74841H11.8436C13.5465 4.76095 14.9925 5.33463 16.1417 6.45414C17.2908 7.57365 17.8832 9.12552 17.8986 11.0586C17.8991 11.1363 17.8688 11.2111 17.8142 11.2666C17.7596 11.322 17.6853 11.3535 17.6075 11.3541L17.6047 11.3534Z" fill="#0A0A0A"/>
<path d="M13.4968 13.6447C13.2747 13.9183 12.8622 13.8835 12.8622 13.8835C9.8472 13.1138 9.04029 10.0598 9.04029 10.0598C9.04029 10.0598 9.00409 9.64733 9.27909 9.42524L9.82388 8.9922C10.094 8.78403 10.2663 8.27892 9.99132 7.78566C9.78039 7.4154 9.55104 7.05593 9.30416 6.70861C9.06431 6.38104 8.5056 5.71024 8.50351 5.70815C8.23407 5.39033 7.83793 5.31653 7.4202 5.5341C7.41893 5.5341 7.4172 5.53466 7.41553 5.5352C7.41399 5.5357 7.4125 5.53619 7.41149 5.53619C6.99602 5.77557 6.6214 6.07969 6.30173 6.43709C6.30064 6.43927 6.29955 6.44031 6.29846 6.44135C6.29746 6.44231 6.29646 6.44326 6.29546 6.44509C6.0374 6.75653 5.88968 7.06182 5.85232 7.36096C5.84456 7.40507 5.84188 7.44992 5.84432 7.49464C5.84293 7.62673 5.86303 7.75818 5.90384 7.88382L5.91811 7.89357C6.04831 8.35586 6.37413 9.12587 7.08218 10.4097C7.48718 11.1523 7.95426 11.8592 8.47844 12.5231C8.74107 12.8558 9.02257 13.1732 9.32156 13.4737C9.32516 13.4773 9.32872 13.4809 9.33227 13.4845C9.33936 13.4917 9.3464 13.4988 9.35359 13.5058L9.44966 13.6018C9.75017 13.9008 10.0676 14.1823 10.4003 14.445C11.0642 14.9692 11.7713 15.4363 12.5141 15.8412C13.7975 16.5493 14.5682 16.8751 15.0298 17.0053L15.0396 17.0196C15.1652 17.0605 15.2966 17.0807 15.4288 17.0794C15.4735 17.0816 15.5183 17.0788 15.5624 17.0711C15.862 17.0356 16.1671 16.8881 16.4776 16.6286C16.4794 16.6276 16.4804 16.6266 16.4813 16.6256C16.4824 16.6245 16.4834 16.6235 16.4856 16.6224C16.843 16.3026 17.1472 15.928 17.3869 15.5126C17.3869 15.5116 17.3873 15.5101 17.3877 15.5086C17.3881 15.5069 17.3886 15.5052 17.3886 15.5039C17.6062 15.0862 17.5324 14.69 17.2128 14.4202C17.2124 14.4202 17.1863 14.3988 17.1422 14.3624C16.9611 14.2132 16.4758 13.8133 16.2123 13.6196C15.8654 13.3727 15.5063 13.1434 15.1363 12.9324C14.6427 12.6574 14.1387 12.8297 13.9298 13.0999L13.4968 13.6447Z" fill="#0A0A0A"/>
<path fill-rule="evenodd" clip-rule="evenodd" d="M20.5167 2.85956C19.9402 2.32766 17.6107 0.63655 12.4218 0.613574C12.4218 0.613574 6.30276 0.244581 3.31983 2.98071C1.65936 4.64153 1.07523 7.07166 1.01362 10.0845C0.952003 13.0974 0.872286 18.7437 6.31495 20.2747H6.32017L6.31669 22.6108C6.31669 22.6108 6.28188 23.5566 6.90464 23.7495C7.53332 23.9447 7.94524 23.4763 8.48237 22.8656C8.58885 22.7445 8.70025 22.6179 8.81923 22.4897C9.21399 22.0643 9.75912 21.4394 10.1699 20.9618C13.8922 21.2751 16.755 20.5591 17.0802 20.4533C17.1473 20.4315 17.2423 20.4073 17.3602 20.3774C18.5628 20.0716 22.1463 19.1604 22.7763 14.0188C23.4902 8.19953 22.4309 4.51864 20.5167 2.85956ZM21.1475 13.6015C20.6218 17.8461 17.7729 18.509 16.7464 18.7478C16.6329 18.7742 16.5416 18.7955 16.4783 18.8158C16.2078 18.9028 13.6934 19.5283 10.5316 19.3219C10.5316 19.3219 8.17558 22.1642 7.43968 22.9032C7.32481 23.0188 7.18974 23.0655 7.09958 23.0425C6.97287 23.0115 6.93806 22.8615 6.93945 22.6422C6.94154 22.3289 6.95964 18.7601 6.95964 18.7601C2.50771 17.5241 2.61155 12.9899 2.67048 10.4165C2.67249 10.3285 2.67445 10.2429 2.67618 10.1597C2.7284 7.64326 3.20113 5.58176 4.60539 4.19525C7.12847 1.90993 12.3261 2.25142 12.3261 2.25142C16.7154 2.27057 18.8186 3.59233 19.3063 4.03512C20.9257 5.42163 21.7507 8.73945 21.1475 13.6001V13.6015Z" fill="#0A0A0A"/>
</g>
<defs>
<clipPath id="clip0_18168_41915">
<rect width="24" height="24" fill="white"/>
</clipPath>
</defs>
</svg>
