<svg width="24" height="24" viewBox="0 0 24 24" fill="none" xmlns="http://www.w3.org/2000/svg">
<circle cx="12.001" cy="12" r="12" fill="#FFABE7"/>
<path fill-rule="evenodd" clip-rule="evenodd" d="M12.001 22C17.5238 22 22.001 17.5228 22.001 12C22.001 6.47715 17.5238 2 12.001 2C6.47813 2 2.00098 6.47715 2.00098 12C2.00098 17.5228 6.47813 22 12.001 22ZM14.1698 20.1561C13.4778 20.3397 12.7508 20.4375 12.001 20.4375C10.8662 20.4375 9.78381 20.2135 8.79552 19.8073C9.73334 16.3457 12.3267 13.8664 15.2976 12.7622C15.8128 15.2593 15.429 17.9372 14.1698 20.1561ZM16.3906 19.2072C17.1964 17.0126 17.3551 14.5951 16.8612 12.3157C18.0535 12.075 19.2696 12.0529 20.4342 12.2726C20.3409 15.2107 18.7455 17.7698 16.3906 19.2072ZM20.3245 10.61C19.0353 10.4208 17.7077 10.4761 16.4114 10.753C16.1602 10.0484 15.8432 9.36952 15.4654 8.72492C16.5309 8.10953 17.5024 7.3323 18.3343 6.42483C19.3538 7.58211 20.0611 9.02106 20.3245 10.61ZM17.1505 5.3156C16.4002 6.137 15.5176 6.83552 14.5494 7.37997C13.896 6.5494 13.14 5.80161 12.2971 5.15953L12.2767 5.14403L12.2556 5.12994C12.2555 5.12988 12.2537 5.12866 12.2498 5.12594C12.2453 5.12276 12.2393 5.11847 12.2316 5.11288C12.2161 5.10158 12.1968 5.0873 12.1737 5.06999C12.1474 5.05034 12.1211 5.03046 12.0928 5.00911L12.087 5.00477C12.0641 4.98746 12.0399 4.96916 12.0133 4.9492C11.9559 4.90601 11.8929 4.85904 11.835 4.81757C11.7945 4.78858 11.7364 4.74759 11.677 4.71144L11.6394 4.68539C11.5622 4.63191 11.4461 4.5515 11.3407 4.48679C11.2422 4.41776 11.1092 4.33913 11.022 4.28807C10.9376 4.23868 10.8468 4.18684 10.7904 4.15463L10.747 4.12986C10.7367 4.1238 10.7276 4.11877 10.7239 4.11668L10.7232 4.11628C10.7166 4.1126 10.7093 4.10858 10.7027 4.10496L10.6939 4.10008C10.6813 4.09315 10.6687 4.08621 10.6556 4.07892C10.6406 4.07058 10.6284 4.0637 10.6196 4.05855L10.6135 4.05428L10.592 4.04113C10.5141 3.99352 10.4329 3.95004 10.3888 3.92644L10.3725 3.91772L10.3537 3.90758L10.3344 3.89844C10.2925 3.8787 10.2291 3.84849 10.1577 3.81443L10.156 3.81363C10.1336 3.80294 10.1103 3.79182 10.0867 3.78059C10.7017 3.63792 11.3425 3.5625 12.001 3.5625C13.9397 3.5625 15.7257 4.21637 17.1505 5.3156ZM7.86451 4.6443C6.61304 5.34958 5.55963 6.365 4.80858 7.58628C5.70199 8.03939 6.66159 8.35954 7.65013 8.53553L7.65226 8.53591L7.65439 8.53631C8.87598 8.7605 10.1353 8.7545 11.3683 8.53222C11.9338 8.4301 12.4894 8.27828 13.0283 8.08108C12.5217 7.4819 11.9527 6.93829 11.3303 6.46222C11.2876 6.43266 11.2404 6.39756 11.2017 6.36866C11.1725 6.34678 11.1381 6.32084 11.1042 6.29525L11.1033 6.29457C11.0808 6.27762 11.0586 6.26086 11.0383 6.24556C10.9826 6.20369 10.932 6.16603 10.8901 6.13603C10.8628 6.11653 10.8472 6.106 10.8408 6.10166C10.8384 6.10005 10.8373 6.09929 10.8373 6.09925L10.8134 6.08575L10.7852 6.06666C10.7438 6.03853 10.7069 6.013 10.673 5.98959L10.6727 5.98937C10.5986 5.93811 10.5392 5.89701 10.479 5.86125L10.4395 5.83778L10.4039 5.81083C10.405 5.81163 10.4043 5.81123 10.4018 5.8095L10.4014 5.80927C10.3951 5.80508 10.3785 5.79405 10.3478 5.775C10.3066 5.74947 10.2561 5.71931 10.2021 5.68769C10.1256 5.64288 10.0559 5.60309 10.0007 5.57163L9.99417 5.5679C9.97115 5.55475 9.95083 5.54315 9.93382 5.53334L9.93214 5.53238L9.91879 5.525L9.91248 5.52153C9.89995 5.51466 9.88323 5.50544 9.8662 5.49597C9.84626 5.48488 9.82207 5.47125 9.79854 5.45747C9.78567 5.44994 9.76167 5.43581 9.73479 5.41838C9.70176 5.39869 9.66632 5.37966 9.62414 5.357L9.62226 5.35597C9.57179 5.33209 9.50898 5.30216 9.44232 5.27034C9.31689 5.21053 9.1777 5.14419 9.08111 5.09926L9.0707 5.09443L9.02704 5.0726C8.87406 5.00168 8.69093 4.93224 8.48584 4.85448L8.48514 4.85422C8.44048 4.83729 8.39479 4.81997 8.34814 4.80215C8.22164 4.75675 8.09028 4.71541 7.95268 4.6721L7.95235 4.672C7.92335 4.66287 7.89408 4.65366 7.86451 4.6443ZM4.09595 9.04357C5.12552 9.56312 6.22858 9.92974 7.36351 10.132C8.7842 10.3925 10.2398 10.3838 11.6564 10.1284C12.4627 9.98286 13.2498 9.751 14.0046 9.44203C14.3406 10.0005 14.6231 10.589 14.8479 11.2C11.4587 12.4207 8.50106 15.1789 7.33133 19.0286C5.06009 17.5166 3.56348 14.9331 3.56348 12C3.56348 10.9598 3.7517 9.96361 4.09595 9.04357Z" fill="#B8509A"/>
</svg>
