<svg width="48" height="48" viewBox="0 0 48 48" fill="none" xmlns="http://www.w3.org/2000/svg">
<g clip-path="url(#clip0_9689_9582)">
<path fill-rule="evenodd" clip-rule="evenodd" d="M1.12587 5.39026C0 7.55764 0 10.4051 0 16.1V31.9C0 37.5949 0 40.4424 1.12587 42.6097C2.07462 44.4362 3.56382 45.9254 5.39026 46.8741C7.55764 48 10.4051 48 16.1 48H31.9C37.5949 48 40.4424 48 42.6097 46.8741C44.4362 45.9254 45.9254 44.4362 46.8741 42.6097C48 40.4424 48 37.5949 48 31.9V16.1C48 10.4051 48 7.55764 46.8741 5.39026C45.9254 3.56382 44.4362 2.07462 42.6097 1.12587C40.4424 0 37.5949 0 31.9 0H16.1C10.4051 0 7.55764 0 5.39026 1.12587C3.56382 2.07462 2.07462 3.56382 1.12587 5.39026ZM7.7527 22.3721L36.6509 11.226C37.9708 10.6269 39.2447 11.5432 38.7409 13.5632L33.8197 36.7536C33.4762 38.4017 32.4801 38.796 31.1006 38.0349L23.6036 32.4958L23.4718 32.6239C21.7647 34.2837 20.2591 35.7475 20.0002 36.0009L19.9725 36.028C19.5676 36.4239 19.2332 36.7508 18.4999 36.7508C17.7387 36.7508 17.6752 36.5256 17.5223 35.9832C17.48 35.8332 17.4308 35.6589 17.3582 35.4584L14.6005 27.0036L7.39319 24.754C5.79205 24.2635 5.78035 23.1634 7.7527 22.3721ZM31.9769 16.2375L15.7316 26.4868L18.4691 34.8794L19.0107 29.1026L32.921 16.552C33.5315 16.0101 32.7879 15.7457 31.9769 16.2375Z" fill="#1C1A1A"/>
</g>
<defs>
<clipPath id="clip0_9689_9582">
<rect width="48" height="48" fill="white"/>
</clipPath>
</defs>
</svg>
