<svg width="40" height="40" viewBox="0 0 40 40" fill="none" xmlns="http://www.w3.org/2000/svg">
<path d="M19.9999 40C-6.66889 39.5287 -6.66465 0.467469 20.0008 0C46.6687 0.471303 46.6644 39.5325 19.9999 40Z" fill="#A1B1B3"/>
<path fill-rule="evenodd" clip-rule="evenodd" d="M20.0575 8.00001C17.1951 7.99703 14.4252 9.03535 12.2442 10.9289C10.0633 12.8224 8.61373 15.4474 8.15542 18.3334C7.69712 21.2194 8.26 24.1778 9.74318 26.6784C11.2264 29.179 13.5329 31.0584 16.2495 31.9798C16.8558 32.0931 17.0702 31.7079 17.0702 31.3831C17.0702 31.0584 17.0702 30.3182 17.0702 29.291C13.7059 30.0387 12.996 27.637 12.996 27.637C12.7728 26.8926 12.2986 26.2531 11.6576 25.8319C10.5707 25.0766 11.7464 25.0766 11.7464 25.0766C12.1274 25.1316 12.4912 25.2744 12.8102 25.4942C13.1292 25.7141 13.395 26.0052 13.5875 26.3455C13.7511 26.6485 13.9717 26.9155 14.2366 27.1312C14.5015 27.347 14.8055 27.5071 15.1311 27.6026C15.4568 27.698 15.7977 27.7268 16.1342 27.6874C16.4708 27.6479 16.7964 27.541 17.0924 27.3726C17.1388 26.7513 17.4011 26.1674 17.8319 25.7262C15.1551 25.4165 12.3453 24.3591 12.3453 19.684C12.3269 18.4627 12.7691 17.281 13.5801 16.3835C13.2189 15.3216 13.2611 14.1599 13.6985 13.1283C13.6985 13.1283 14.7115 12.796 17.0111 14.3896C18.9858 13.8358 21.0701 13.8358 23.0448 14.3896C25.3444 12.796 26.35 13.1283 26.35 13.1283C26.7935 14.149 26.8462 15.3024 26.4979 16.3608C27.309 17.2583 27.7511 18.4401 27.7328 19.6614C27.7328 24.3893 24.9156 25.424 22.2314 25.7035C22.5192 25.999 22.7415 26.3543 22.8831 26.7452C23.0247 27.1361 23.0824 27.5536 23.0522 27.9693C23.0522 29.6158 23.0522 30.9451 23.0522 31.3454C23.0522 31.7456 23.2666 32.0553 23.8804 31.9345C26.566 30.9888 28.838 29.1041 30.295 26.6132C31.752 24.1223 32.3002 21.1856 31.8428 18.3219C31.3854 15.4581 29.9518 12.8517 27.7953 10.9629C25.6388 9.07422 22.8982 8.02477 20.0575 8.00001Z" fill="white"/>
</svg>
