<svg width="48" height="48" viewBox="0 0 48 48" fill="none" xmlns="http://www.w3.org/2000/svg">
<g clip-path="url(#clip0_9689_9753)">
<path fill-rule="evenodd" clip-rule="evenodd" d="M48 0H0V48H48V0ZM24.8141 29.6834C24.8141 32.6063 22.6496 34.5179 19.9796 34.5179C17.3096 34.5179 15.1452 32.3534 15.1452 29.6834C15.1452 27.2964 17.3685 25.1129 20.0607 25.2121C20.5891 25.2121 21.2096 25.338 21.4502 25.4231V19.8699C16.6677 18.9027 9.44678 22.86 9.44678 29.6834C9.44678 34.5179 13.167 40 19.9796 40C26.7923 40 30.5954 34.5179 30.5954 29.6834V18.7012C31.6928 19.5712 34.8456 21.1389 38.5532 21.1389V15.687C34.2179 15.7744 30.2867 11.9545 30.612 8H24.8141V29.6834Z" fill="#1C1A1A"/>
</g>
<defs>
<clipPath id="clip0_9689_9753">
<rect width="48" height="48" fill="white"/>
</clipPath>
</defs>
</svg>
