<svg width="48" height="48" viewBox="0 0 48 48" fill="none" xmlns="http://www.w3.org/2000/svg">
<path fill-rule="evenodd" clip-rule="evenodd" d="M1.12587 5.39026C0 7.55764 0 10.4051 0 16.1V31.9C0 37.5949 0 40.4424 1.12587 42.6097C2.07462 44.4362 3.56382 45.9254 5.39026 46.8741C7.55764 48 10.4051 48 16.1 48H31.9C37.5949 48 40.4424 48 42.6097 46.8741C44.4362 45.9254 45.9254 44.4362 46.8741 42.6097C48 40.4424 48 37.5949 48 31.9V16.1C48 10.4051 48 7.55764 46.8741 5.39026C45.9254 3.56382 44.4362 2.07462 42.6097 1.12587C40.4424 0 37.5949 0 31.9 0H16.1C10.4051 0 7.55764 0 5.39026 1.12587C3.56382 2.07462 2.07462 3.56382 1.12587 5.39026ZM7.42914 17.346L11.8845 13.3075C13.057 12.1871 15.8553 9.94642 17.6687 9.94642C19.9355 9.94642 21.4206 11.9787 21.9938 15.7045C22.0292 15.9349 22.067 16.1838 22.107 16.4482C22.7151 20.4606 23.8619 28.0285 25.7196 28.0285C27.3399 28.0285 30.3446 22.1927 30.7354 20.9941C31.1262 19.7956 31.7383 16.8249 28.8723 16.8249C28.1688 16.8249 26.8921 17.0333 26.4231 17.346C27.0751 14.746 29.726 9.5459 35.1143 9.5459C40.1426 9.5459 40.6436 13.1796 40.6436 15.7045C40.6436 22.6826 28.4346 38.3613 22.627 38.3613C18.429 38.3613 16.9655 32.0451 15.9832 27.806C15.7846 26.9488 15.6057 26.1765 15.4278 25.5586C14.25 21.4673 13.0157 17.7471 11.6426 17.7471C11.1906 17.7471 10.3239 18.3538 9.62497 18.8432C9.37716 19.0167 9.15043 19.1754 8.97074 19.2871L7.42914 17.346Z" fill="#1C1A1A"/>
</svg>
