<svg width="48" height="48" viewBox="0 0 48 48" fill="none" xmlns="http://www.w3.org/2000/svg">
<path d="M0 16.1C0 10.4051 0 7.55764 1.12587 5.39026C2.07462 3.56382 3.56382 2.07462 5.39026 1.12587C7.55764 0 10.4051 0 16.1 0H31.9C37.5949 0 40.4424 0 42.6097 1.12587C44.4362 2.07462 45.9254 3.56382 46.8741 5.39026C48 7.55764 48 10.4051 48 16.1V31.9C48 37.5949 48 40.4424 46.8741 42.6097C45.9254 44.4362 44.4362 45.9254 42.6097 46.8741C40.4424 48 37.5949 48 31.9 48H16.1C10.4051 48 7.55764 48 5.39026 46.8741C3.56382 45.9254 2.07462 44.4362 1.12587 42.6097C0 40.4424 0 37.5949 0 31.9V16.1Z" fill="#3CB9E6"/>
<path d="M11.8846 13.3075L7.4292 17.346L8.9708 19.2871C9.65732 18.8604 11.0304 17.7471 11.6427 17.7471C13.0157 17.7471 14.25 21.4673 15.4278 25.5586C16.4854 29.2324 17.5802 38.3613 22.627 38.3613C28.4347 38.3613 40.6436 22.6826 40.6436 15.7045C40.6436 13.1796 40.1427 9.5459 35.1143 9.5459C29.7261 9.5459 27.0751 14.746 26.4232 17.346C26.8922 17.0333 28.1689 16.8249 28.8723 16.8249C31.7384 16.8249 31.1263 19.7956 30.7354 20.9941C30.3446 22.1927 27.3399 28.0285 25.7197 28.0285C23.7395 28.0285 22.5671 19.4304 21.9939 15.7045C21.4207 11.9787 19.9355 9.94642 17.6688 9.94642C15.8553 9.94642 13.057 12.1871 11.8846 13.3075Z" fill="white"/>
</svg>
