<svg width="48" height="48" viewBox="0 0 48 48" fill="none" xmlns="http://www.w3.org/2000/svg">
<circle cx="24" cy="24" r="17" fill="#1ED760"/>
<path d="M33.4645 22.1843C28.3071 19.1215 19.7997 18.8398 14.8763 20.3343C14.0857 20.5741 13.2496 20.1278 13.0101 19.3372C12.7705 18.5462 13.2164 17.7107 14.0076 17.4703C19.6593 15.7546 29.0547 16.0861 34.992 19.6106C35.7032 20.0326 35.9364 20.951 35.515 21.661C35.0931 22.3721 34.1739 22.6066 33.4645 22.1843ZM33.2956 26.7208C32.9338 27.308 32.1661 27.4922 31.5797 27.1316C27.2799 24.4887 20.7233 23.7231 15.6364 25.2671C14.9766 25.4665 14.2798 25.0946 14.0796 24.4362C13.8807 23.7764 14.2529 23.081 14.9113 22.8804C20.7226 21.1171 27.9467 21.9711 32.8852 25.0059C33.4716 25.367 33.6561 26.1353 33.2956 26.7208ZM31.3378 31.0776C31.0503 31.5491 30.4364 31.6968 29.9666 31.4094C26.2092 29.1131 21.4801 28.5946 15.9107 29.8666C15.374 29.9897 14.8393 29.6534 14.7168 29.1167C14.5939 28.5802 14.9289 28.0453 15.4669 27.9228C21.5615 26.5296 26.7897 27.1291 31.0069 29.7062C31.4771 29.9933 31.6252 30.6076 31.3378 31.0776Z" fill="white"/>
</svg>
