<svg width="48" height="48" viewBox="0 0 48 48" fill="none" xmlns="http://www.w3.org/2000/svg">
<path fill-rule="evenodd" clip-rule="evenodd" d="M35.8332 35.9334C36.8165 34.4334 37.1832 33.6668 37.9332 31.9834C32.3999 29.8834 31.5165 22.0001 36.9832 18.9834C35.3165 16.8834 32.9665 15.6667 30.7499 15.6667C29.1499 15.6667 28.0499 16.0834 27.0665 16.4668C26.2332 16.7834 25.4832 17.0667 24.5499 17.0667C23.5499 17.0667 22.6665 16.7501 21.7332 16.4168C20.7165 16.0501 19.6499 15.6667 18.3165 15.6667C15.8332 15.6667 13.1832 17.1834 11.4999 19.7834C9.1332 23.4501 9.54987 30.3167 13.3665 36.1834C14.7332 38.2834 16.5665 40.6334 18.9499 40.6667C19.9499 40.6834 20.5999 40.3834 21.3165 40.0668C22.1332 39.7001 23.0165 39.3001 24.5665 39.3001C26.1165 39.2834 26.9832 39.7001 27.7999 40.0668C28.4999 40.3834 29.1332 40.6834 30.1165 40.6667C32.5332 40.6334 34.4665 38.0334 35.8332 35.9334Z" fill="#1C1A1A"/>
<path fill-rule="evenodd" clip-rule="evenodd" d="M30.4 7.33325C30.6667 9.16659 29.9167 10.9833 28.9333 12.2499C27.8833 13.6166 26.05 14.6832 24.2833 14.6166C23.9667 12.8499 24.7833 11.0332 25.7833 9.81657C26.9 8.48324 28.7833 7.44992 30.4 7.33325Z" fill="#1C1A1A"/>
</svg>
