<svg width="48" height="48" viewBox="0 0 48 48" fill="none" xmlns="http://www.w3.org/2000/svg">
<path d="M24 41C14.6109 41 7 33.3891 7 24C7 14.6109 14.6109 7 24 7C33.3891 7 41 14.6109 41 24C41 33.3891 33.3891 41 24 41ZM35.339 24C35.3215 23.5215 35.166 23.0582 34.8911 22.6661C34.6163 22.274 34.2339 21.9698 33.7901 21.7901C33.3462 21.6104 32.8599 21.5629 32.3897 21.6534C31.9195 21.7439 31.4855 21.9684 31.14 22.3C29.2061 20.9854 26.9328 20.2592 24.595 20.209L25.7 14.905L29.338 15.67C29.3813 16.072 29.5664 16.4455 29.8601 16.7233C30.1539 17.0011 30.5371 17.1651 30.9409 17.1859C31.3447 17.2067 31.7427 17.0829 32.0634 16.8367C32.3842 16.5904 32.6066 16.238 32.6909 15.8425C32.7752 15.447 32.7158 15.0345 32.5233 14.6789C32.3308 14.3233 32.0179 14.048 31.6407 13.9023C31.2635 13.7567 30.8467 13.7502 30.4652 13.8841C30.0837 14.018 29.7624 14.2835 29.559 14.633L25.394 13.8C25.3259 13.7851 25.2555 13.7838 25.1869 13.7962C25.1182 13.8087 25.0528 13.8347 24.9943 13.8726C24.9358 13.9106 24.8854 13.9598 24.846 14.0173C24.8067 14.0749 24.7791 14.1397 24.765 14.208L23.507 20.107C21.1404 20.1427 18.8359 20.8695 16.877 22.198C16.6149 21.9514 16.3024 21.7648 15.961 21.651C15.6196 21.5372 15.2576 21.499 14.9 21.5391C14.5424 21.5791 14.1978 21.6964 13.89 21.8829C13.5823 22.0694 13.3187 22.3205 13.1177 22.619C12.9167 22.9174 12.7829 23.256 12.7257 23.6112C12.6685 23.9665 12.6893 24.33 12.7865 24.6764C12.8838 25.0229 13.0552 25.344 13.2889 25.6176C13.5226 25.8912 13.813 26.1108 14.14 26.261C14.1209 26.51 14.1209 26.76 14.14 27.009C14.14 30.817 18.577 33.911 24.051 33.911C29.525 33.911 33.962 30.817 33.962 27.009C33.9811 26.76 33.9811 26.51 33.962 26.261C34.3815 26.0525 34.7334 25.7295 34.9771 25.3294C35.2208 24.9293 35.3462 24.4684 35.339 24ZM18.339 25.7C18.339 25.2491 18.5181 24.8167 18.8369 24.4979C19.1557 24.1791 19.5881 24 20.039 24C20.4899 24 20.9223 24.1791 21.2411 24.4979C21.5599 24.8167 21.739 25.2491 21.739 25.7C21.739 26.1509 21.5599 26.5833 21.2411 26.9021C20.9223 27.2209 20.4899 27.4 20.039 27.4C19.5881 27.4 19.1557 27.2209 18.8369 26.9021C18.5181 26.5833 18.339 26.1509 18.339 25.7ZM28.216 30.375C27.0099 31.2839 25.5259 31.7465 24.017 31.684C22.5081 31.7465 21.0241 31.2839 19.818 30.375C19.7457 30.2869 19.7088 30.1751 19.7144 30.0613C19.7199 29.9475 19.7677 29.8398 19.8482 29.7592C19.9288 29.6787 20.0365 29.6309 20.1503 29.6254C20.2641 29.6198 20.3759 29.6567 20.464 29.729C21.4861 30.4787 22.7337 30.8566 24 30.8C25.2679 30.8689 26.5213 30.5031 27.553 29.763C27.5965 29.7143 27.6495 29.6751 27.7088 29.6477C27.7681 29.6204 27.8324 29.6056 27.8976 29.6041C27.9629 29.6027 28.0278 29.6147 28.0882 29.6394C28.1486 29.6641 28.2033 29.701 28.2489 29.7477C28.2945 29.7945 28.3299 29.8501 28.3531 29.9111C28.3763 29.9722 28.3866 30.0373 28.3835 30.1025C28.3805 30.1677 28.364 30.2316 28.3352 30.2902C28.3063 30.3487 28.2658 30.4008 28.216 30.443V30.375ZM27.91 27.468C27.5738 27.468 27.2451 27.3683 26.9655 27.1815C26.686 26.9947 26.4681 26.7292 26.3394 26.4186C26.2107 26.1079 26.1771 25.7661 26.2427 25.4363C26.3083 25.1066 26.4702 24.8037 26.7079 24.5659C26.9457 24.3282 27.2486 24.1663 27.5783 24.1007C27.9081 24.0351 28.2499 24.0687 28.5606 24.1974C28.8712 24.3261 29.1367 24.544 29.3235 24.8235C29.5103 25.1031 29.61 25.4318 29.61 25.768C29.6192 25.9983 29.5815 26.2282 29.4992 26.4435C29.4168 26.6588 29.2915 26.8551 29.1309 27.0205C28.9703 27.1858 28.7777 27.3168 28.5649 27.4054C28.3521 27.4941 28.1235 27.5385 27.893 27.536L27.91 27.468Z" fill="#1C1A1A"/>
</svg>
