<svg width="48" height="48" viewBox="0 0 48 48" fill="none" xmlns="http://www.w3.org/2000/svg">
<path d="M11.8846 13.3075L7.4292 17.346L8.9708 19.2871C9.65732 18.8604 11.0304 17.7471 11.6427 17.7471C13.0157 17.7471 14.25 21.4673 15.4278 25.5586C16.4854 29.2324 17.5802 38.3613 22.627 38.3613C28.4347 38.3613 40.6436 22.6826 40.6436 15.7045C40.6436 13.1796 40.1427 9.5459 35.1143 9.5459C29.7261 9.5459 27.0751 14.746 26.4232 17.346C26.8922 17.0333 28.1689 16.8249 28.8723 16.8249C31.7384 16.8249 31.1263 19.7956 30.7354 20.9941C30.3446 22.1927 27.3399 28.0285 25.7197 28.0285C23.7395 28.0285 22.5671 19.4304 21.9939 15.7045C21.4207 11.9787 19.9355 9.94642 17.6688 9.94642C15.8553 9.94642 13.057 12.1871 11.8846 13.3075Z" fill="#1C1A1A"/>
</svg>
