<svg width="48" height="48" viewBox="0 0 48 48" fill="none" xmlns="http://www.w3.org/2000/svg">
<path fill-rule="evenodd" clip-rule="evenodd" d="M25.3939 6.59265C29.6426 6.80146 33.6016 8.55351 36.6255 11.5794C39.8509 14.8068 41.6262 19.0969 41.6245 23.6593C41.6206 33.0742 33.9562 40.7345 24.5407 40.7345C21.0001 40.7345 18.1864 39.6467 16.3697 38.6562L7.31323 41.0307L9.73695 32.1823C8.24192 29.5927 7.45525 26.6554 7.45648 23.6458C7.46026 14.2311 15.1241 6.57153 24.5405 6.57153L25.3939 6.59265ZM16.7892 35.5649L17.3078 35.8725C19.4879 37.1656 21.9869 37.8498 24.5349 37.8508H24.5407C32.367 37.8508 38.7369 31.4839 38.74 23.6583C38.7415 19.8661 37.2659 16.3004 34.585 13.6178C31.9041 10.935 28.339 9.45676 24.5463 9.45553C16.7139 9.45553 10.344 15.8217 10.3409 23.6467C10.3399 26.3285 11.0905 28.9402 12.5119 31.1997L12.8495 31.7368L11.4151 36.974L16.7892 35.5649ZM33.1474 27.7198C33.0407 27.5417 32.7562 27.435 32.3293 27.2214C31.9025 27.0078 29.8038 25.9757 29.4125 25.8332C29.0212 25.691 28.7366 25.6198 28.4521 26.0468C28.1676 26.4739 27.3495 27.435 27.1004 27.7198C26.8515 28.0045 26.6024 28.0401 26.1756 27.8266C25.7488 27.6131 24.3733 27.1624 22.7429 25.7089C21.4739 24.5775 20.6172 23.1804 20.3681 22.7533C20.1192 22.3262 20.3416 22.0952 20.5553 21.8825C20.7473 21.6913 20.9822 21.3842 21.1957 21.135C21.4091 20.886 21.4802 20.7079 21.6225 20.4232C21.7648 20.1385 21.6936 19.8894 21.5869 19.6758C21.4802 19.4622 20.6265 17.3621 20.2708 16.5078C19.9243 15.6759 19.5723 15.7885 19.3103 15.7754C19.0616 15.763 18.7768 15.7603 18.4923 15.7603C18.2077 15.7603 17.7452 15.867 17.3539 16.2943C16.9626 16.7213 15.8599 17.7536 15.8599 19.8536C15.8599 21.9538 17.3895 23.9824 17.6029 24.2672C17.8164 24.5521 20.613 28.8613 24.895 30.7096C25.9135 31.1492 26.7086 31.4117 27.3285 31.6083C28.3512 31.933 29.2817 31.8873 30.0172 31.7774C30.8373 31.6549 32.5428 30.7452 32.8984 29.7487C33.2541 28.7519 33.2541 27.8977 33.1474 27.7198Z" fill="white"/>
<mask id="mask0_9689_9727" style="mask-type:alpha" maskUnits="userSpaceOnUse" x="10" y="9" width="29" height="29">
<path fill-rule="evenodd" clip-rule="evenodd" d="M16.7891 35.565L17.3077 35.8725C19.4878 37.1656 21.9868 37.8498 24.5348 37.8508H24.5406C32.3669 37.8508 38.7368 31.484 38.7399 23.6584C38.7414 19.8662 37.2658 16.3004 34.5849 13.6178C31.904 10.9351 28.3389 9.4568 24.5462 9.45557C16.7138 9.45557 10.3439 15.8217 10.3408 23.6468C10.3398 26.3285 11.0904 28.9402 12.5118 31.1998L12.8494 31.7368L11.415 36.974L16.7891 35.565ZM33.1473 27.7198C33.0406 27.5417 32.7561 27.435 32.3292 27.2214C31.9023 27.0079 29.8037 25.9757 29.4124 25.8332C29.0211 25.691 28.7365 25.6199 28.452 26.0469C28.1675 26.4739 27.3494 27.435 27.1003 27.7198C26.8514 28.0045 26.6023 28.0402 26.1755 27.8266C25.7487 27.6131 24.3732 27.1625 22.7428 25.7089C21.4738 24.5776 20.6171 23.1805 20.368 22.7533C20.1191 22.3262 20.3415 22.0952 20.5552 21.8826C20.7472 21.6913 20.9821 21.3842 21.1956 21.1351C21.409 20.886 21.4801 20.7079 21.6224 20.4233C21.7647 20.1385 21.6935 19.8894 21.5868 19.6759C21.4801 19.4622 20.6264 17.3621 20.2707 16.5078C19.9242 15.6759 19.5722 15.7885 19.3102 15.7754C19.0615 15.7631 18.7767 15.7604 18.4922 15.7604C18.2076 15.7604 17.7451 15.8671 17.3538 16.2943C16.9625 16.7214 15.8598 17.7537 15.8598 19.8536C15.8598 21.9538 17.3894 23.9824 17.6028 24.2672C17.8163 24.5521 20.6129 28.8614 24.8949 30.7096C25.9134 31.1492 26.7085 31.4117 27.3284 31.6083C28.3511 31.9331 29.2816 31.8873 30.0171 31.7774C30.8372 31.6549 32.5427 30.7453 32.8983 29.7488C33.254 28.752 33.254 27.8977 33.1473 27.7198Z" fill="black"/>
</mask>
<g mask="url(#mask0_9689_9727)">
<path d="M47.9999 0H0V48H47.9999V0Z" fill="url(#paint0_linear_9689_9727)"/>
</g>
<defs>
<linearGradient id="paint0_linear_9689_9727" x1="24" y1="48" x2="24" y2="0" gradientUnits="userSpaceOnUse">
<stop stop-color="#25CF43"/>
<stop offset="1" stop-color="#61FD7D"/>
</linearGradient>
</defs>
</svg>
