<svg width="48" height="48" viewBox="0 0 48 48" fill="none" xmlns="http://www.w3.org/2000/svg">
<g clip-path="url(#clip0_9689_9509)">
<path d="M0 16.1C0 10.4051 0 7.55764 1.12587 5.39026C2.07462 3.56382 3.56382 2.07462 5.39026 1.12587C7.55764 0 10.4051 0 16.1 0H31.9C37.5949 0 40.4424 0 42.6097 1.12587C44.4362 2.07462 45.9254 3.56382 46.8741 5.39026C48 7.55764 48 10.4051 48 16.1V31.9C48 37.5949 48 40.4424 46.8741 42.6097C45.9254 44.4362 44.4362 45.9254 42.6097 46.8741C40.4424 48 37.5949 48 31.9 48H16.1C10.4051 48 7.55764 48 5.39026 46.8741C3.56382 45.9254 2.07462 44.4362 1.12587 42.6097C0 40.4424 0 37.5949 0 31.9V16.1Z" fill="#BB0F23"/>
<path d="M26.3194 7.15866C22.2524 6.5992 18.1204 7.53014 14.6862 9.77957C11.252 12.029 8.74772 15.445 7.63568 19.3968C6.52364 23.3486 6.87898 27.5693 8.63608 31.2796C10.3932 34.9899 13.4334 37.9391 17.1953 39.5827C17.0936 38.277 17.1869 36.9634 17.4723 35.6852C17.7868 34.2591 19.6752 26.3996 19.6752 26.3996C19.2992 25.5567 19.1112 24.642 19.1245 23.7191C19.1245 21.195 20.5811 19.3117 22.3931 19.3117C22.7186 19.307 23.0413 19.3724 23.3393 19.5035C23.6372 19.6346 23.9035 19.8283 24.1199 20.0715C24.3363 20.3147 24.4978 20.6017 24.5935 20.9128C24.6891 21.224 24.7166 21.5521 24.6741 21.8749C24.6741 23.4047 23.6917 25.7197 23.1783 27.8919C23.0769 28.2903 23.0704 28.707 23.1595 29.1083C23.2486 29.5096 23.4308 29.8844 23.6912 30.2024C23.9517 30.5205 24.2833 30.7729 24.6592 30.9393C25.0351 31.1057 25.4448 31.1815 25.8554 31.1605C29.0815 31.1605 31.2435 27.0285 31.2435 22.1503C31.2435 18.4109 28.767 15.6097 24.2016 15.6097C23.1093 15.5673 22.0198 15.7473 20.9992 16.1388C19.9786 16.5303 19.0482 17.1251 18.2645 17.8872C17.4808 18.6492 16.8602 19.5626 16.4403 20.5718C16.0204 21.5811 15.81 22.6652 15.8219 23.7582C15.7732 24.9707 16.1644 26.1599 16.9233 27.1067C17.0651 27.2125 17.1687 27.3616 17.2184 27.5315C17.268 27.7013 17.2611 27.8827 17.1987 28.0483C17.1205 28.3611 16.9233 29.1072 16.8451 29.3809C16.8289 29.4737 16.7911 29.5614 16.7347 29.6369C16.6784 29.7124 16.6051 29.7736 16.5207 29.8156C16.4364 29.8576 16.3434 29.8793 16.2491 29.8787C16.1549 29.8782 16.0622 29.8556 15.9783 29.8126C13.6259 28.871 12.5176 26.2823 12.5176 23.3265C12.5176 18.4873 16.5698 12.6947 24.6775 12.6947C31.1297 12.6947 35.4198 17.4148 35.4198 22.463C35.4198 29.1072 31.7195 34.1027 26.2514 34.1027C25.4342 34.1289 24.6236 33.9485 23.8945 33.5783C23.1654 33.2081 22.5415 32.6601 22.0803 31.9849C22.0803 31.9849 21.0979 35.9215 20.9041 36.6659C20.5086 37.9521 19.9249 39.1727 19.1721 40.2881C20.7409 40.764 22.371 41.0019 24.0095 40.9951C26.2422 40.9969 28.4534 40.5583 30.5163 39.7043C32.5793 38.8504 34.4536 37.5979 36.0318 36.0185C37.61 34.4392 38.8612 32.5641 39.7137 30.5005C40.5662 28.4369 41.0033 26.2255 41 23.9928C40.9979 19.8879 39.5106 15.9224 36.8129 12.8286C34.1152 9.73471 30.3892 7.72138 26.3228 7.16036L26.3194 7.15866Z" fill="white"/>
</g>
<defs>
<clipPath id="clip0_9689_9509">
<rect width="48" height="48" fill="white"/>
</clipPath>
</defs>
</svg>
