<svg width="48" height="48" viewBox="0 0 48 48" fill="none" xmlns="http://www.w3.org/2000/svg">
<rect width="48" height="48" fill="#FC471E"/>
<path d="M40.008 24C39.9833 23.3245 39.7637 22.6705 39.3757 22.1169C38.9877 21.5634 38.4478 21.1338 37.8212 20.8802C37.1946 20.6265 36.508 20.5595 35.8442 20.6872C35.1804 20.8149 34.5677 21.1319 34.08 21.6C31.3498 19.7442 28.1404 18.7188 24.84 18.648L26.4 11.16L31.536 12.24C31.597 12.8076 31.8584 13.3348 32.2731 13.727C32.6878 14.1193 33.2288 14.3508 33.7989 14.3802C34.369 14.4095 34.9308 14.2347 35.3836 13.8871C35.8364 13.5395 36.1505 13.0419 36.2695 12.4836C36.3885 11.9253 36.3046 11.3429 36.0328 10.8409C35.7611 10.3389 35.3193 9.95014 34.7868 9.74449C34.2543 9.53885 33.6659 9.52973 33.1273 9.71879C32.5887 9.90785 32.1351 10.2827 31.848 10.776L25.968 9.60005C25.8718 9.57895 25.7724 9.57715 25.6755 9.59475C25.5787 9.61235 25.4863 9.649 25.4037 9.70258C25.3211 9.75615 25.2499 9.82559 25.1944 9.90687C25.1388 9.98814 25.0999 10.0796 25.08 10.176L23.304 18.504C19.9629 18.5544 16.7094 19.5805 13.944 21.456C13.574 21.1079 13.1327 20.8444 12.6508 20.6838C12.1688 20.5232 11.6577 20.4692 11.1529 20.5258C10.648 20.5823 10.1615 20.7479 9.72704 21.0112C9.29256 21.2744 8.92052 21.629 8.6367 22.0503C8.35288 22.4717 8.16406 22.9497 8.08334 23.4512C8.00262 23.9528 8.03191 24.4659 8.1692 24.955C8.30649 25.4441 8.54849 25.8975 8.87842 26.2838C9.20836 26.67 9.61834 26.98 10.08 27.192C10.0529 27.5435 10.0529 27.8966 10.08 28.248C10.08 33.624 16.344 37.9921 24.072 37.9921C31.8 37.9921 38.064 33.624 38.064 28.248C38.091 27.8966 38.091 27.5435 38.064 27.192C38.6562 26.8977 39.153 26.4417 39.4971 25.8769C39.8411 25.312 40.0182 24.6613 40.008 24ZM16.008 26.4C16.008 25.7635 16.2608 25.1531 16.7109 24.703C17.161 24.2529 17.7714 24 18.408 24C19.0445 24 19.6549 24.2529 20.105 24.703C20.5551 25.1531 20.808 25.7635 20.808 26.4C20.808 27.0366 20.5551 27.647 20.105 28.0971C19.6549 28.5472 19.0445 28.8 18.408 28.8C17.7714 28.8 17.161 28.5472 16.7109 28.0971C16.2608 27.647 16.008 27.0366 16.008 26.4ZM29.952 33C28.2492 34.2832 26.1542 34.9363 24.024 34.848C21.8937 34.9363 19.7987 34.2832 18.096 33C17.9939 32.8757 17.9417 32.7178 17.9496 32.5572C17.9575 32.3965 18.0249 32.2445 18.1387 32.1307C18.2524 32.017 18.4044 31.9496 18.5651 31.9417C18.7257 31.9338 18.8836 31.986 19.008 32.088C20.4509 33.1464 22.2122 33.6799 24 33.6C25.7899 33.6974 27.5594 33.1809 29.016 32.136C29.0773 32.0673 29.1522 32.0119 29.2359 31.9733C29.3196 31.9347 29.4103 31.9138 29.5025 31.9118C29.5946 31.9097 29.6862 31.9267 29.7715 31.9616C29.8568 31.9964 29.934 32.0485 29.9984 32.1145C30.0627 32.1805 30.1128 32.259 30.1455 32.3452C30.1782 32.4313 30.1928 32.5233 30.1885 32.6154C30.1841 32.7074 30.1609 32.7976 30.1202 32.8803C30.0795 32.963 30.0222 33.0364 29.952 33.096V33ZM29.52 28.896C29.0453 28.896 28.5813 28.7553 28.1866 28.4916C27.7919 28.2279 27.4843 27.853 27.3026 27.4145C27.121 26.9759 27.0735 26.4934 27.1661 26.0278C27.2587 25.5623 27.4873 25.1346 27.8229 24.799C28.1586 24.4633 28.5862 24.2348 29.0517 24.1422C29.5173 24.0496 29.9999 24.0971 30.4384 24.2787C30.8769 24.4604 31.2518 24.768 31.5155 25.1627C31.7792 25.5574 31.92 26.0214 31.92 26.496C31.933 26.8212 31.8798 27.1457 31.7635 27.4496C31.6472 27.7536 31.4703 28.0308 31.2436 28.2642C31.0169 28.4977 30.745 28.6826 30.4446 28.8077C30.1441 28.9329 29.8214 28.9956 29.496 28.992L29.52 28.896Z" fill="white"/>
</svg>
