<svg width="48" height="48" viewBox="0 0 48 48" fill="none" xmlns="http://www.w3.org/2000/svg">
<path fill-rule="evenodd" clip-rule="evenodd" d="M48 0H0V48H48V0ZM14.8764 20.3343C19.7998 18.8398 28.3071 19.1214 33.4646 22.1843C34.174 22.6066 35.0932 22.3721 35.5151 21.661C35.9365 20.951 35.7033 20.0326 34.9921 19.6106C29.0548 16.0861 19.6594 15.7546 14.0077 17.4703C13.2165 17.7107 12.7706 18.5462 13.0102 19.3372C13.2497 20.1278 14.0858 20.5741 14.8764 20.3343ZM31.5798 27.1316C32.1662 27.4922 32.9338 27.308 33.2957 26.7208C33.6562 26.1352 33.4717 25.367 32.8853 25.0059C27.9468 21.9711 20.7227 21.1171 14.9114 22.8804C14.253 23.081 13.8808 23.7764 14.0797 24.4362C14.2799 25.0945 14.9767 25.4665 15.6365 25.2671C20.7234 23.7231 27.28 24.4887 31.5798 27.1316ZM29.9667 31.4094C30.4365 31.6968 31.0504 31.5491 31.3379 31.0776C31.6253 30.6076 31.4772 29.9933 31.007 29.7062C26.7898 27.1291 21.5616 26.5296 15.467 27.9228C14.929 28.0453 14.594 28.5802 14.7169 29.1167C14.8394 29.6534 15.3741 29.9897 15.9108 29.8666C21.4802 28.5946 26.2093 29.1131 29.9667 31.4094ZM8 23.9998C8 15.1635 15.1636 8.00006 24.0001 8.00006C32.8368 8.00006 40 15.1635 40 23.9998C40 32.837 32.8368 39.9999 24.0001 39.9999C15.1636 39.9999 8 32.837 8 23.9998Z" fill="#1C1A1A"/>
</svg>
