<svg width="48" height="48" viewBox="0 0 48 48" fill="none" xmlns="http://www.w3.org/2000/svg">
<path d="M26.5623 23.9997C26.5623 30.2728 21.5116 35.3585 15.281 35.3585C9.05037 35.3585 4 30.2744 4 23.9997C4 17.7251 9.05076 12.6414 15.281 12.6414C21.5112 12.6414 26.5623 17.7266 26.5623 23.9997ZM38.9381 23.9997C38.9381 29.9051 36.4126 34.6919 33.2975 34.6919C30.1823 34.6919 27.6568 29.9036 27.6568 23.9997C27.6568 18.0959 30.1823 13.3075 33.2975 13.3075C36.4126 13.3075 38.9381 18.0959 38.9381 23.9997ZM44 23.9997C44 29.2907 43.1117 33.5795 42.0161 33.5795C40.9205 33.5795 40.0322 29.2891 40.0322 23.9997C40.0322 18.7103 40.9205 14.4199 42.0165 14.4199C43.1124 14.4199 44 18.7092 44 23.9997Z" fill="#1C1A1A"/>
</svg>
