<svg width="48" height="48" viewBox="0 0 48 48" fill="none" xmlns="http://www.w3.org/2000/svg">
<rect width="48" height="48" fill="#1C1A1A"/>
<path d="M14.5637 28.7407C14.759 27.1233 15.4224 26.2178 16.6724 25.2895C18.461 24.0322 20.6952 24.7434 20.6952 24.7434V20.5244C21.2383 20.5106 21.7817 20.5428 22.3189 20.6207V26.05C22.3189 26.05 20.0854 25.3389 18.2968 26.5967C17.0475 27.5244 16.3828 28.4306 16.1881 30.048C16.182 30.9262 16.3468 32.0742 17.1058 33.0669C16.9182 32.9707 16.7269 32.861 16.532 32.738C14.8601 31.6153 14.5556 29.931 14.5637 28.7407ZM31.5439 12.7236C30.3136 11.3754 29.8483 10.0141 29.6801 9.05786H31.2279C31.2279 9.05786 30.9193 11.5652 33.1684 14.0309L33.1996 14.064C32.5934 13.6828 32.0375 13.2327 31.5439 12.7236ZM39.0001 16.546V21.8662C39.0001 21.8662 37.025 21.7888 35.5633 21.417C33.5224 20.8969 32.2107 20.0993 32.2107 20.0993C32.2107 20.0993 31.3045 19.5305 31.2313 19.4908V30.477C31.2313 31.0887 31.0637 32.6164 30.553 33.8905C29.8863 35.5573 28.8574 36.6514 28.6681 36.875C28.6681 36.875 27.4167 38.3539 25.209 39.3498C23.219 40.2482 21.4718 40.2255 20.9495 40.2482C20.9495 40.2482 17.9292 40.3678 15.2114 38.6016C14.6237 38.2123 14.0751 37.7714 13.5728 37.2846L13.5863 37.2943C16.3048 39.0605 19.3244 38.9409 19.3244 38.9409C19.8473 38.9182 21.5945 38.9409 23.5839 38.0425C25.7896 37.0466 27.043 35.5677 27.043 35.5677C27.2302 35.3441 28.2639 34.25 28.9279 32.5826C29.4373 31.3091 29.6062 29.7808 29.6062 29.1691V18.1842C29.6794 18.2245 30.5849 18.7933 30.5849 18.7933C30.5849 18.7933 31.8973 19.5916 33.9382 20.111C35.4005 20.4828 37.3749 20.5602 37.3749 20.5602V16.3913C38.0505 16.5428 38.6263 16.5837 39.0001 16.546Z" fill="#FD355A"/>
<path d="M37.3756 16.3913V20.5589C37.3756 20.5589 35.4012 20.4815 33.9388 20.1097C31.898 19.5896 30.5855 18.792 30.5855 18.792C30.5855 18.792 29.68 18.2232 29.6068 18.1829V29.1704C29.6068 29.7821 29.4393 31.3104 28.9285 32.5839C28.2618 34.2513 27.2329 35.3454 27.0436 35.569C27.0436 35.569 25.7916 37.0479 23.5845 38.0438C21.5952 38.9422 19.848 38.9195 19.325 38.9422C19.325 38.9422 16.3054 39.0618 13.587 37.2956L13.5734 37.2859C13.2864 37.0079 13.0162 36.7145 12.7642 36.407C11.8967 35.3493 11.365 34.0986 11.2314 33.7417C11.2311 33.7402 11.2311 33.7386 11.2314 33.7371C11.0163 33.117 10.5646 31.6276 10.6263 30.1851C10.7355 27.6401 11.6308 26.078 11.8676 25.6867C12.4945 24.6195 13.3099 23.6647 14.2774 22.8647C15.1312 22.1744 16.099 21.6252 17.141 21.2395C18.2675 20.7867 19.4738 20.544 20.6951 20.5244V24.7434C20.6951 24.7434 18.4609 24.0348 16.673 25.2895C15.423 26.2178 14.7597 27.1233 14.5643 28.7407C14.5562 29.931 14.8607 31.6153 16.5313 32.7386C16.7262 32.8621 16.9174 32.9718 17.1051 33.0675C17.3969 33.4469 17.7522 33.7775 18.1564 34.0459C19.7883 35.0789 21.1557 35.151 22.9042 34.4802C24.0701 34.0316 24.9478 33.0207 25.3548 31.9007C25.6105 31.2012 25.6071 30.4972 25.6071 29.7691V9.05786H29.6767C29.8449 10.0141 30.3101 11.3754 31.5405 12.7236C32.0341 13.2327 32.59 13.6828 33.1961 14.0641C33.3752 14.2493 34.2909 15.1653 35.4663 15.7276C36.0741 16.0182 36.7147 16.2409 37.3756 16.3913Z" fill="white"/>
<path d="M9.61157 32.4463V32.4495L9.71255 32.7232C9.70095 32.6914 9.66343 32.5945 9.61157 32.4463Z" fill="#33F3ED"/>
<path d="M17.141 21.2396C16.099 21.6252 15.1312 22.1744 14.2774 22.8647C13.3095 23.6665 12.4944 24.6233 11.8682 25.6925C11.6315 26.0826 10.7362 27.646 10.627 30.191C10.5653 31.6335 11.017 33.1228 11.232 33.743C11.2318 33.7445 11.2318 33.746 11.232 33.7476C11.3677 34.1012 11.8974 35.3519 12.7649 36.4128C13.0169 36.7204 13.287 37.0138 13.574 37.2917C12.6545 36.6822 11.8343 35.9452 11.1405 35.1049C10.2804 34.0563 9.75002 32.8186 9.61165 32.4533C9.61149 32.4507 9.61149 32.4481 9.61165 32.4455V32.4409C9.39597 31.8214 8.94289 30.3314 9.00597 28.887C9.11517 26.342 10.0105 24.7798 10.2472 24.3885C10.8731 23.3192 11.6883 22.3623 12.6564 21.5607C13.51 20.8702 14.4778 20.3209 15.52 19.9355C16.17 19.677 16.8472 19.4863 17.5398 19.3667C18.5837 19.1921 19.6497 19.1769 20.6985 19.3219V20.5245C19.476 20.5437 18.2685 20.7864 17.141 21.2396Z" fill="#33F3ED"/>
<path d="M29.68 9.05794H25.6104V29.7698C25.6104 30.4979 25.6104 31.2 25.3581 31.9014C24.9471 33.0208 24.0728 34.0317 22.9076 34.4802C21.1583 35.1537 19.7909 35.0789 18.1597 34.046C17.7548 33.7788 17.3987 33.4493 17.1057 33.0709C18.4955 33.7814 19.7394 33.7691 21.2804 33.1762C22.445 32.7276 23.3206 31.7168 23.7303 30.5967C23.9867 29.8972 23.9833 29.1932 23.9833 28.4658V7.75H29.6027C29.6027 7.75 29.5396 8.26486 29.68 9.05794ZM37.3755 15.2388V16.3914C36.7158 16.2408 36.0763 16.0181 35.4696 15.7277C34.2942 15.1653 33.3785 14.2494 33.1995 14.0641C33.4073 14.1949 33.6229 14.3138 33.8452 14.4204C35.2743 15.1042 36.6817 15.3084 37.3755 15.2388Z" fill="#33F3ED"/>
</svg>
