<svg width="48" height="48" viewBox="0 0 48 48" fill="none" xmlns="http://www.w3.org/2000/svg">
<path d="M24 41C33.3888 41 41 33.3888 41 24C41 14.6112 33.3888 7 24 7C14.6112 7 7 14.6112 7 24C7 33.3888 14.6112 41 24 41Z" fill="url(#paint0_linear_9689_9669)"/>
<path d="M20.8834 31.7916C20.3326 31.7916 20.4262 31.5836 20.2363 31.0592L18.6167 25.7291L31.0834 18.3333" fill="#C8DAEA"/>
<path d="M20.8833 31.7918C21.3083 31.7918 21.4961 31.5974 21.7333 31.3668L24 29.1627L21.1726 27.4578" fill="#A9C9DD"/>
<path d="M21.1724 27.4581L28.0233 32.5197C28.8051 32.9511 29.3694 32.7278 29.5641 31.7939L32.3528 18.6525C32.6383 17.5078 31.9165 16.9886 31.1686 17.3282L14.7933 23.6424C13.6756 24.0907 13.6821 24.7143 14.5896 24.9922L18.7918 26.3038L28.5205 20.1661C28.9798 19.8876 29.4013 20.0373 29.0553 20.3443" fill="url(#paint1_linear_9689_9669)"/>
<defs>
<linearGradient id="paint0_linear_9689_9669" x1="29.6678" y1="12.6678" x2="21.1678" y2="32.5" gradientUnits="userSpaceOnUse">
<stop stop-color="#37AEE2"/>
<stop offset="1" stop-color="#1E96C8"/>
</linearGradient>
<linearGradient id="paint1_linear_9689_9669" x1="26.1257" y1="23.9999" x2="28.7861" y2="30.0537" gradientUnits="userSpaceOnUse">
<stop stop-color="#EFF7FC"/>
<stop offset="1" stop-color="white"/>
</linearGradient>
</defs>
</svg>
