<svg width="48" height="48" viewBox="0 0 48 48" fill="none" xmlns="http://www.w3.org/2000/svg">
<path fill-rule="evenodd" clip-rule="evenodd" d="M48 0H0V48H48V0ZM7.42914 17.346L11.8845 13.3075C13.057 12.1871 15.8553 9.94642 17.6687 9.94642C19.9355 9.94642 21.4206 11.9787 21.9938 15.7045C22.0292 15.9349 22.067 16.1838 22.107 16.4482C22.7151 20.4606 23.8619 28.0285 25.7196 28.0285C27.3399 28.0285 30.3446 22.1927 30.7354 20.9941C31.1262 19.7956 31.7383 16.8249 28.8723 16.8249C28.1688 16.8249 26.8921 17.0333 26.4231 17.346C27.0751 14.746 29.726 9.5459 35.1143 9.5459C40.1426 9.5459 40.6436 13.1796 40.6436 15.7045C40.6436 22.6826 28.4346 38.3613 22.627 38.3613C18.429 38.3613 16.9655 32.0451 15.9832 27.806C15.7846 26.9488 15.6057 26.1765 15.4278 25.5586C14.25 21.4673 13.0157 17.7471 11.6426 17.7471C11.1906 17.7471 10.3239 18.3538 9.62497 18.8432C9.37716 19.0167 9.15043 19.1754 8.97074 19.2871L7.42914 17.346Z" fill="#1C1A1A"/>
</svg>
