<svg width="48" height="48" viewBox="0 0 48 48" fill="none" xmlns="http://www.w3.org/2000/svg">
<path d="M0 16.1C0 10.4051 0 7.55764 1.12587 5.39026C2.07462 3.56382 3.56382 2.07462 5.39026 1.12587C7.55764 0 10.4051 0 16.1 0H31.9C37.5949 0 40.4424 0 42.6097 1.12587C44.4362 2.07462 45.9254 3.56382 46.8741 5.39026C48 7.55764 48 10.4051 48 16.1V31.9C48 37.5949 48 40.4424 46.8741 42.6097C45.9254 44.4362 44.4362 45.9254 42.6097 46.8741C40.4424 48 37.5949 48 31.9 48H16.1C10.4051 48 7.55764 48 5.39026 46.8741C3.56382 45.9254 2.07462 44.4362 1.12587 42.6097C0 40.4424 0 37.5949 0 31.9V16.1Z" fill="url(#paint0_linear_9689_9713)"/>
<path fill-rule="evenodd" clip-rule="evenodd" d="M25.3939 6.59265C29.6426 6.80146 33.6016 8.55351 36.6255 11.5794C39.8509 14.8068 41.6262 19.0969 41.6245 23.6593C41.6206 33.0742 33.9562 40.7345 24.5407 40.7345H24.5337C21.6744 40.7335 18.865 40.0166 16.3697 38.6562L7.31323 41.0307L9.73695 32.1823C8.24192 29.5927 7.45525 26.6554 7.45648 23.6458C7.46026 14.2311 15.1241 6.57153 24.5405 6.57153L25.3939 6.59265ZM16.7892 35.5649L17.3078 35.8725C19.4879 37.1656 21.9869 37.8498 24.5349 37.8508H24.5407C32.367 37.8508 38.7369 31.4839 38.74 23.6583C38.7415 19.8661 37.2659 16.3004 34.585 13.6178C31.9041 10.935 28.339 9.45676 24.5463 9.45553C16.7139 9.45553 10.344 15.8217 10.3409 23.6467C10.3399 26.3285 11.0905 28.9402 12.5119 31.1997L12.8495 31.7368L11.4151 36.974L16.7892 35.5649ZM33.1474 27.7198C33.0407 27.5417 32.7562 27.435 32.3293 27.2214C31.9025 27.0078 29.8038 25.9757 29.4125 25.8332C29.0212 25.691 28.7366 25.6198 28.4521 26.0468C28.1676 26.4739 27.3495 27.435 27.1004 27.7198C26.8515 28.0045 26.6024 28.0401 26.1756 27.8266C25.7488 27.6131 24.3733 27.1624 22.7429 25.7089C21.4739 24.5775 20.6172 23.1804 20.3681 22.7533C20.1192 22.3262 20.3416 22.0952 20.5553 21.8825C20.7473 21.6913 20.9822 21.3842 21.1957 21.135C21.4091 20.886 21.4802 20.7079 21.6225 20.4232C21.7648 20.1385 21.6936 19.8894 21.5869 19.6758C21.4802 19.4622 20.6265 17.3621 20.2708 16.5078C19.9243 15.6759 19.5723 15.7885 19.3103 15.7754C19.0616 15.763 18.7768 15.7603 18.4923 15.7603C18.2077 15.7603 17.7452 15.867 17.3539 16.2943C16.9626 16.7213 15.8599 17.7536 15.8599 19.8536C15.8599 21.9538 17.3895 23.9824 17.6029 24.2672C17.8164 24.5521 20.613 28.8613 24.895 30.7096C25.9135 31.1492 26.7086 31.4117 27.3285 31.6083C28.3512 31.933 29.2817 31.8873 30.0172 31.7774C30.8373 31.6549 32.5428 30.7452 32.8984 29.7487C33.2541 28.7519 33.2541 27.8977 33.1474 27.7198Z" fill="white"/>
<defs>
<linearGradient id="paint0_linear_9689_9713" x1="24" y1="48" x2="24" y2="0" gradientUnits="userSpaceOnUse">
<stop stop-color="#25CF43"/>
<stop offset="1" stop-color="#61FD7D"/>
</linearGradient>
</defs>
</svg>
