<svg width="48" height="48" viewBox="0 0 48 48" fill="none" xmlns="http://www.w3.org/2000/svg">
<g clip-path="url(#clip0_9689_9791)">
<path fill-rule="evenodd" clip-rule="evenodd" d="M48 0H0V48H48V0ZM14.6862 9.77957C18.1204 7.53014 22.2524 6.5992 26.3194 7.15866L26.3228 7.16036C30.3892 7.72138 34.1152 9.7347 36.8129 12.8286C39.5106 15.9224 40.9979 19.8879 41 23.9928C41.0033 26.2255 40.5662 28.4369 39.7137 30.5005C38.8612 32.5641 37.61 34.4392 36.0318 36.0185C34.4536 37.5979 32.5793 38.8504 30.5163 39.7043C28.4534 40.5583 26.2422 40.9969 24.0095 40.9951C22.371 41.0019 20.7409 40.764 19.1721 40.2881C19.9249 39.1727 20.5086 37.9521 20.9041 36.6659C21.0979 35.9215 22.0803 31.9849 22.0803 31.9849C22.5415 32.6601 23.1654 33.2081 23.8945 33.5783C24.6236 33.9485 25.4342 34.1289 26.2514 34.1027C31.7195 34.1027 35.4198 29.1072 35.4198 22.463C35.4198 17.4148 31.1297 12.6947 24.6775 12.6947C16.5698 12.6947 12.5176 18.4873 12.5176 23.3265C12.5176 26.2823 13.6259 28.871 15.9783 29.8126C16.0622 29.8556 16.1549 29.8782 16.2491 29.8787C16.3434 29.8793 16.4364 29.8576 16.5207 29.8156C16.6051 29.7736 16.6784 29.7124 16.7347 29.6369C16.7911 29.5614 16.8289 29.4737 16.8451 29.3809C16.9233 29.1072 17.1205 28.3611 17.1987 28.0483C17.2611 27.8827 17.268 27.7013 17.2184 27.5315C17.1687 27.3616 17.0651 27.2125 16.9233 27.1067C16.1644 26.1599 15.7732 24.9707 15.8219 23.7582C15.81 22.6652 16.0204 21.5811 16.4403 20.5718C16.8602 19.5626 17.4808 18.6492 18.2645 17.8872C19.0482 17.1251 19.9786 16.5303 20.9992 16.1388C22.0198 15.7473 23.1093 15.5673 24.2016 15.6097C28.767 15.6097 31.2435 18.4109 31.2435 22.1503C31.2435 27.0285 29.0815 31.1605 25.8554 31.1605C25.4448 31.1815 25.0351 31.1057 24.6592 30.9393C24.2833 30.7729 23.9517 30.5205 23.6912 30.2024C23.4308 29.8844 23.2486 29.5096 23.1595 29.1083C23.0704 28.707 23.0769 28.2903 23.1783 27.8919C23.3655 27.0998 23.6151 26.2887 23.8566 25.5036C24.2775 24.1357 24.6741 22.8468 24.6741 21.8749C24.7166 21.5521 24.6891 21.224 24.5935 20.9128C24.4978 20.6017 24.3363 20.3147 24.1199 20.0715C23.9035 19.8283 23.6372 19.6346 23.3393 19.5035C23.0413 19.3724 22.7186 19.307 22.3931 19.3117C20.5812 19.3117 19.1245 21.195 19.1245 23.7191C19.1112 24.642 19.2992 25.5567 19.6752 26.3996C19.6752 26.3996 17.7868 34.2591 17.4723 35.6852C17.1869 36.9634 17.0936 38.277 17.1953 39.5827C13.4334 37.9391 10.3932 34.9899 8.63608 31.2796C6.87898 27.5693 6.52364 23.3486 7.63568 19.3968C8.74772 15.445 11.252 12.029 14.6862 9.77957Z" fill="#1C1A1A"/>
</g>
<defs>
<clipPath id="clip0_9689_9791">
<rect width="48" height="48" fill="white"/>
</clipPath>
</defs>
</svg>
