<svg width="48" height="48" viewBox="0 0 48 48" fill="none" xmlns="http://www.w3.org/2000/svg">
<rect width="48" height="48" fill="#1ED760"/>
<path d="M33.4646 22.1843C28.3071 19.1214 19.7998 18.8398 14.8764 20.3342C14.0858 20.574 13.2497 20.1277 13.0102 19.3371C12.7706 18.5461 13.2165 17.7106 14.0077 17.4703C19.6594 15.7545 29.0548 16.086 34.9921 19.6105C35.7033 20.0326 35.9365 20.951 35.5151 21.661C35.0932 22.3721 34.174 22.6065 33.4646 22.1843ZM33.2957 26.7208C32.9338 27.3079 32.1662 27.4921 31.5798 27.1316C27.28 24.4886 20.7234 23.7231 15.6365 25.267C14.9767 25.4665 14.2799 25.0945 14.0797 24.4361C13.8808 23.7764 14.253 23.0809 14.9114 22.8803C20.7227 21.117 27.9468 21.971 32.8853 25.0058C33.4717 25.3669 33.6562 26.1352 33.2957 26.7208ZM31.3379 31.0775C31.0504 31.5491 30.4365 31.6967 29.9667 31.4094C26.2093 29.113 21.4802 28.5945 15.9108 29.8666C15.3741 29.9896 14.8394 29.6534 14.7169 29.1167C14.594 28.5802 14.929 28.0452 15.467 27.9227C21.5616 26.5295 26.7898 27.1291 31.007 29.7061C31.4772 29.9933 31.6253 30.6075 31.3379 31.0775ZM24.0001 8C15.1636 8 8 15.1634 8 23.9997C8 32.837 15.1636 39.9998 24.0001 39.9998C32.8368 39.9998 40 32.837 40 23.9997C40 15.1634 32.8368 8 24.0001 8Z" fill="white"/>
</svg>
