<svg width="48" height="48" viewBox="0 0 48 48" fill="none" xmlns="http://www.w3.org/2000/svg">
<path fill-rule="evenodd" clip-rule="evenodd" d="M7 24.014C7 14.6056 14.6338 7 24.014 7C33.4225 7 41.0281 14.6338 40.9999 24.0422C40.9999 31.5633 36.1267 37.9295 29.3661 40.183C28.5211 40.352 28.2112 39.8168 28.2112 39.3661C28.2112 39.1793 28.2143 38.853 28.2185 38.4171L28.2185 38.4159V38.4157C28.2268 37.5372 28.2394 36.2142 28.2394 34.6901C28.2394 33.0844 27.7042 32.0704 27.0845 31.5352C30.8873 31.1126 34.8591 29.676 34.8591 23.1408C34.8591 21.2817 34.2112 19.7605 33.1126 18.5774C33.2816 18.1549 33.8732 16.4084 32.9436 14.0704C32.9436 14.0704 31.507 13.6197 28.2676 15.8169C26.9154 15.4507 25.4507 15.2535 24.014 15.2535C22.5774 15.2535 21.1126 15.4507 19.7605 15.8169C16.5211 13.6197 15.0845 14.0704 15.0845 14.0704C14.1549 16.4084 14.7465 18.1549 14.9155 18.5774C13.845 19.7605 13.169 21.2817 13.169 23.1408C13.169 29.6478 17.1408 31.1126 20.9155 31.5352C20.4366 31.9577 19.9859 32.7183 19.845 33.8168C18.8591 34.2675 16.4084 34.9999 14.8873 32.4084C14.8873 32.4084 13.9859 30.7746 12.2676 30.6619C12.2676 30.6619 10.6056 30.6619 12.1549 31.7042C12.1549 31.7042 13.2817 32.2112 14.0422 34.183C14.0422 34.183 15.0281 37.2253 19.7605 36.183C19.7605 37.104 19.7726 38.0009 19.7809 38.6217V38.6218V38.6218V38.6218V38.6219V38.6219V38.6219C19.7853 38.9504 19.7887 39.2015 19.7887 39.338C19.7887 39.7887 19.4788 40.3239 18.6338 40.1549C11.8732 37.9013 7 31.5352 7 24.014ZM13.169 31.4788C13.2816 31.5352 13.4225 31.507 13.4507 31.4225C13.4788 31.338 13.4225 31.2253 13.3098 31.169C13.1971 31.1126 13.0563 31.1408 13.0281 31.2253C12.9718 31.3098 13.0563 31.4225 13.169 31.4788ZM14.1268 32.2112C14.0423 32.2957 13.8733 32.2394 13.7888 32.1267C13.6761 32.014 13.6479 31.845 13.7324 31.7605C13.8169 31.676 13.9578 31.7324 14.0704 31.845C14.2113 31.9577 14.2113 32.1267 14.1268 32.2112ZM14.4366 33.0281C14.5211 33.169 14.6901 33.2535 14.8028 33.169C14.9155 33.1126 14.9155 32.9154 14.8028 32.7746C14.7183 32.6338 14.5493 32.5492 14.4366 32.6338C14.3239 32.6901 14.3239 32.8873 14.4366 33.0281ZM15.7324 34.1267C15.6479 34.2394 15.4507 34.2112 15.2817 34.0704C15.1409 33.9295 15.0845 33.7323 15.1972 33.6478C15.2817 33.5352 15.4789 33.5633 15.6479 33.7042C15.7888 33.8168 15.8169 34.014 15.7324 34.1267ZM16.5775 34.8309C16.7747 34.8873 16.9718 34.8309 17 34.6901C17.0282 34.5492 16.9155 34.3802 16.7183 34.352C16.5211 34.2957 16.324 34.352 16.2958 34.4929C16.2676 34.6056 16.3803 34.7746 16.5775 34.8309ZM18.3803 34.7746C18.3803 34.9154 18.2113 35.0281 18.0141 35.0281C17.8169 35.0281 17.6479 34.9154 17.6479 34.7746C17.6479 34.6337 17.8169 34.5211 18.0141 34.5211C18.2113 34.5211 18.3803 34.6337 18.3803 34.7746ZM19.3662 34.8591C19.5633 34.8309 19.7042 34.6901 19.676 34.5492C19.6478 34.4084 19.4788 34.3239 19.2816 34.3521C19.0845 34.3802 18.9436 34.5211 18.9718 34.6619C19 34.8028 19.169 34.8873 19.3662 34.8591Z" fill="#1A1414"/>
</svg>
