<svg width="48" height="48" viewBox="0 0 48 48" fill="none" xmlns="http://www.w3.org/2000/svg">
<g clip-path="url(#clip0_9689_9586)">
<path d="M0 16.1C0 10.4051 0 7.55764 1.12587 5.39026C2.07462 3.56382 3.56382 2.07462 5.39026 1.12587C7.55764 0 10.4051 0 16.1 0H31.9C37.5949 0 40.4424 0 42.6097 1.12587C44.4362 2.07462 45.9254 3.56382 46.8741 5.39026C48 7.55764 48 10.4051 48 16.1V31.9C48 37.5949 48 40.4424 46.8741 42.6097C45.9254 44.4362 44.4362 45.9254 42.6097 46.8741C40.4424 48 37.5949 48 31.9 48H16.1C10.4051 48 7.55764 48 5.39026 46.8741C3.56382 45.9254 2.07462 44.4362 1.12587 42.6097C0 40.4424 0 37.5949 0 31.9V16.1Z" fill="#12100E"/>
<path d="M26.5623 23.9997C26.5623 30.2728 21.5116 35.3585 15.281 35.3585C9.05037 35.3585 4 30.2744 4 23.9997C4 17.7251 9.05076 12.6414 15.281 12.6414C21.5112 12.6414 26.5623 17.7266 26.5623 23.9997ZM38.9381 23.9997C38.9381 29.9051 36.4126 34.6919 33.2975 34.6919C30.1823 34.6919 27.6568 29.9036 27.6568 23.9997C27.6568 18.0959 30.1823 13.3075 33.2975 13.3075C36.4126 13.3075 38.9381 18.0959 38.9381 23.9997ZM44 23.9997C44 29.2907 43.1117 33.5795 42.0161 33.5795C40.9205 33.5795 40.0322 29.2891 40.0322 23.9997C40.0322 18.7103 40.9205 14.4199 42.0165 14.4199C43.1124 14.4199 44 18.7092 44 23.9997Z" fill="white"/>
</g>
<defs>
<clipPath id="clip0_9689_9586">
<rect width="48" height="48" fill="white"/>
</clipPath>
</defs>
</svg>
