<svg width="48" height="48" viewBox="0 0 48 48" fill="none" xmlns="http://www.w3.org/2000/svg">
<path fill-rule="evenodd" clip-rule="evenodd" d="M24 9C15.5501 9 9 15.1897 9 23.55C9 27.9229 10.7921 31.7017 13.7108 34.3117C13.9556 34.5311 14.1038 34.8382 14.1139 35.1671L14.1956 37.8352C14.2219 38.6865 15.1009 39.24 15.8798 38.8965L18.8569 37.5821C19.1093 37.4707 19.392 37.4501 19.6579 37.5232C21.0259 37.8994 22.482 38.1 24 38.1C32.4499 38.1 39 31.9102 39 23.55C39 15.1897 32.4499 9 24 9ZM33.0075 20.1949L28.6013 27.1856C27.9004 28.2975 26.3993 28.5746 25.3478 27.786L21.843 25.1576C21.5216 24.9165 21.0791 24.9176 20.7589 25.1606L16.026 28.7527C15.3941 29.232 14.5695 28.476 14.9925 27.8051L19.3988 20.8144C20.0996 19.7021 21.6004 19.4254 22.6523 20.214L26.1566 22.8424C26.478 23.0835 26.9205 23.0824 27.2408 22.8394L31.9736 19.2472C32.6055 18.768 33.4301 19.524 33.0071 20.1949H33.0075Z" fill="#1C1A1A"/>
</svg>
