<svg width="48" height="48" viewBox="0 0 48 48" fill="none" xmlns="http://www.w3.org/2000/svg">
<g clip-path="url(#clip0_9689_9589)">
<path fill-rule="evenodd" clip-rule="evenodd" d="M1.12587 5.39026C0 7.55764 0 10.4051 0 16.1V31.9C0 37.5949 0 40.4424 1.12587 42.6097C2.07462 44.4362 3.56382 45.9254 5.39026 46.8741C7.55764 48 10.4051 48 16.1 48H31.9C37.5949 48 40.4424 48 42.6097 46.8741C44.4362 45.9254 45.9254 44.4362 46.8741 42.6097C48 40.4424 48 37.5949 48 31.9V16.1C48 10.4051 48 7.55764 46.8741 5.39026C45.9254 3.56382 44.4362 2.07462 42.6097 1.12587C40.4424 0 37.5949 0 31.9 0H16.1C10.4051 0 7.55764 0 5.39026 1.12587C3.56382 2.07462 2.07462 3.56382 1.12587 5.39026ZM15.281 35.3586C21.5116 35.3586 26.5623 30.273 26.5623 23.9998C26.5623 17.7267 21.5112 12.6415 15.281 12.6415C9.05076 12.6415 4 17.7252 4 23.9998C4 30.2745 9.05037 35.3586 15.281 35.3586ZM33.2975 34.692C36.4126 34.692 38.9381 29.9052 38.9381 23.9998C38.9381 18.096 36.4126 13.3076 33.2975 13.3076C30.1823 13.3076 27.6568 18.096 27.6568 23.9998C27.6568 29.9037 30.1823 34.692 33.2975 34.692ZM42.0161 33.5796C43.1117 33.5796 44 29.2908 44 23.9998C44 18.7093 43.1124 14.4201 42.0165 14.4201C40.9205 14.4201 40.0322 18.7104 40.0322 23.9998C40.0322 29.2892 40.9205 33.5796 42.0161 33.5796Z" fill="#1C1A1A"/>
</g>
<defs>
<clipPath id="clip0_9689_9589">
<rect width="48" height="48" fill="white"/>
</clipPath>
</defs>
</svg>
