<svg width="48" height="48" viewBox="0 0 48 48" fill="none" xmlns="http://www.w3.org/2000/svg">
<path fill-rule="evenodd" clip-rule="evenodd" d="M48 0H0V48H48V0ZM36.6254 11.5794C33.6016 8.55351 29.6426 6.80146 25.3938 6.59265L24.5404 6.57153C15.124 6.57153 7.4602 14.2311 7.45642 23.6458C7.45519 26.6554 8.24186 29.5927 9.73689 32.1823L7.31317 41.0307L16.3696 38.6562C18.8649 40.0166 21.6743 40.7335 24.5336 40.7345H24.5407C33.9561 40.7345 41.6206 33.0742 41.6245 23.6593C41.6262 19.0969 39.8508 14.8068 36.6254 11.5794ZM17.3078 35.8725L16.7892 35.5649L11.415 36.974L12.8495 31.7368L12.5119 31.1997C11.0905 28.9402 10.3398 26.3285 10.3409 23.6467C10.344 15.8217 16.7139 9.45553 24.5463 9.45553C28.3389 9.45676 31.904 10.935 34.585 13.6178C37.2659 16.3004 38.7414 19.8661 38.7399 23.6583C38.7368 31.4839 32.367 37.8508 24.5406 37.8508H24.5348C21.9869 37.8498 19.4879 37.1656 17.3078 35.8725ZM32.5627 27.3356C32.8604 27.4794 33.0615 27.5764 33.1473 27.7198C33.2541 27.8977 33.2541 28.7519 32.8984 29.7487C32.5427 30.7452 30.8373 31.6549 30.0172 31.7774C29.2816 31.8873 28.3511 31.933 27.3285 31.6083C26.7086 31.4117 25.9134 31.1492 24.895 30.7096C20.8933 28.9824 18.1889 25.1059 17.6777 24.3731C17.6419 24.3217 17.6169 24.2858 17.6029 24.2672L17.5991 24.2622C17.3723 23.9595 15.8598 21.9419 15.8598 19.8536C15.8598 17.8881 16.8259 16.8579 17.2704 16.3838C17.3008 16.3514 17.3288 16.3216 17.3539 16.2943C17.7451 15.867 18.2076 15.7603 18.4922 15.7603C18.7767 15.7603 19.0616 15.763 19.3103 15.7754C19.3409 15.7769 19.3729 15.7767 19.4058 15.7765C19.6546 15.7751 19.9648 15.7733 20.2708 16.5078C20.3884 16.7902 20.5604 17.2089 20.7419 17.6506C21.1093 18.5446 21.5154 19.5328 21.5869 19.6758C21.6936 19.8894 21.7647 20.1385 21.6225 20.4232C21.6011 20.4661 21.5813 20.5065 21.5623 20.545C21.4555 20.7631 21.3769 20.9234 21.1956 21.135C21.1245 21.2181 21.0509 21.3075 20.9774 21.397C20.8303 21.576 20.6833 21.755 20.5552 21.8825C20.3415 22.0952 20.1191 22.3262 20.3681 22.7533C20.6171 23.1804 21.4738 24.5775 22.7428 25.7089C24.1071 26.9251 25.2928 27.4392 25.8937 27.6997C26.0109 27.7505 26.1059 27.7917 26.1756 27.8266C26.6024 28.0401 26.8514 28.0045 27.1003 27.7198C27.3494 27.435 28.1675 26.4739 28.452 26.0468C28.7365 25.6198 29.0212 25.691 29.4124 25.8332C29.8037 25.9757 31.9024 27.0078 32.3293 27.2214C32.4126 27.2631 32.4905 27.3007 32.5627 27.3356Z" fill="#1C1A1A"/>
</svg>
