<svg width="48" height="48" viewBox="0 0 48 48" fill="none" xmlns="http://www.w3.org/2000/svg">
<rect width="48" height="48" fill="#1C1A1A"/>
<path fill-rule="evenodd" clip-rule="evenodd" d="M22.1686 22.09H18.3943C17.9483 22.09 17.7999 22.0668 17.5707 21.9985C16.9538 21.8156 16.4729 21.1981 16.4729 20.4661C16.4729 19.734 16.9538 19.1165 17.5707 18.9336C17.7999 18.8648 17.9483 18.8422 18.3943 18.8422H20.8416V16.3948C20.8416 15.9484 20.8648 15.7999 20.9336 15.5713C21.1165 14.942 21.734 14.4729 22.4655 14.4729C23.1976 14.4729 23.8156 14.9533 23.9985 15.5713C24.0668 15.7999 24.09 15.9484 24.09 16.3948V20.1686C24.09 20.3972 24.09 20.6264 24.0442 20.8318C23.9184 21.4042 23.4036 21.9184 22.8318 22.0442C22.6264 22.09 22.3972 22.09 22.1686 22.09ZM34.2915 35.9513H14.0487V18.1214C14.0487 17.8928 14.1288 17.6987 14.2886 17.5384L19.5384 12.2886C19.6981 12.1288 19.8928 12.0487 20.1214 12.0487H34.2915V35.9513ZM10.9838 15.1254C10.4459 15.6628 10.092 16.3378 10.0226 17.0925C10.0113 17.2183 10 17.4012 10 17.5841V37.7468C10 38.0098 10.0113 38.147 10.0226 38.2503C10.1146 39.1076 10.8918 39.8854 11.7497 39.9769C11.853 39.9881 11.9902 40 12.2532 40H36.087C36.35 40 36.4872 39.9881 36.5905 39.9769C37.4478 39.8854 38.2256 39.1076 38.3171 38.2503C38.3289 38.147 38.3396 38.0098 38.3396 37.7468V10.2532C38.3396 9.99019 38.3289 9.85304 38.3171 9.74974C38.2256 8.89237 37.4478 8.11458 36.5905 8.02314C36.4872 8.01185 36.35 8 36.087 8H19.5841C19.4012 8 19.2178 8.01185 19.0925 8.02314C18.3372 8.09144 17.6627 8.4459 17.1248 8.98381L10.9838 15.1254Z" fill="white"/>
</svg>
