<svg width="1" height="48" viewBox="0 0 1 48" fill="none" xmlns="http://www.w3.org/2000/svg">
<path d="M0.665039 0C0.783379 1.84579e-06 0.842599 0.00155347 0.887695 1.12598C0.925744 2.07474 0.956798 3.56426 0.976562 5.39062C1.00001 7.55791 1 10.4053 1 16.0996V31.9004C1 37.5947 1.00001 40.4421 0.976562 42.6094C0.956798 44.4357 0.925744 45.9253 0.887695 46.874C0.842599 47.9984 0.783379 48 0.665039 48H0.334961C0.216621 48 0.157401 47.9984 0.112305 46.874C0.074256 45.9253 0.0432025 44.4357 0.0234375 42.6094C-1.34916e-05 40.4421 0 37.5947 0 31.9004V16.0996C0 10.4053 -1.35019e-05 7.55791 0.0234375 5.39062C0.0432025 3.56426 0.074256 2.07474 0.112305 1.12598C0.157401 0.00155347 0.216621 1.84579e-06 0.334961 0H0.665039ZM0.148438 17.9844V40.8564H0.299805V17.9844H0.148438ZM0.679688 17.4004C0.573534 17.4004 0.53418 21.1455 0.53418 21.1455V17.9844H0.390625V40.8564H0.541992V28.7334C0.541992 26.6713 0.554183 23.7393 0.625 23.7393C0.659101 23.7408 0.704102 24.1887 0.704102 28.208V40.8564H0.852539V26.4639C0.852538 19.6415 0.774334 17.402 0.679688 17.4004ZM0.224609 6.5791C0.176702 6.5791 0.1377 8.44267 0.137695 10.7422C0.137695 13.0419 0.176699 14.9062 0.224609 14.9062C0.272433 14.9014 0.311523 13.0389 0.311523 10.7422C0.311519 8.44602 0.272421 6.58451 0.224609 6.5791Z" fill="#1C1A1A"/>
</svg>
