<svg width="48" height="48" viewBox="0 0 48 48" fill="none" xmlns="http://www.w3.org/2000/svg">
<rect width="48" height="48" fill="white"/>
<rect x="0.25" y="0.25" width="47.5" height="47.5" stroke="black" stroke-opacity="0.15" stroke-width="0.5"/>
<path fill-rule="evenodd" clip-rule="evenodd" d="M38.4 24.3409C38.4 23.2773 38.3046 22.2545 38.1273 21.2727H24V27.075H32.0727C31.725 28.95 30.6682 30.5386 29.0796 31.6023V35.3659H33.9273C36.7637 32.7545 38.4 28.9091 38.4 24.3409Z" fill="#4285F4"/>
<path fill-rule="evenodd" clip-rule="evenodd" d="M24 39.0001C28.05 39.0001 31.4455 37.6569 33.9273 35.366L29.0796 31.6024C27.7364 32.5024 26.0182 33.0342 24 33.0342C20.0932 33.0342 16.7864 30.3956 15.6068 26.8501H10.5955V30.7365C13.0636 35.6387 18.1364 39.0001 24 39.0001Z" fill="#34A853"/>
<path fill-rule="evenodd" clip-rule="evenodd" d="M15.6068 26.85C15.3068 25.95 15.1364 24.9887 15.1364 24C15.1364 23.0114 15.3068 22.05 15.6068 21.15V17.2637H10.5955C9.57955 19.2887 9 21.5796 9 24C9 26.4205 9.57955 28.7114 10.5955 30.7364L15.6068 26.85Z" fill="#FBBC05"/>
<path fill-rule="evenodd" clip-rule="evenodd" d="M24 14.9659C26.2023 14.9659 28.1796 15.7227 29.7341 17.2091L34.0364 12.9068C31.4387 10.4864 28.0432 9 24 9C18.1364 9 13.0636 12.3614 10.5955 17.2636L15.6068 21.15C16.7864 17.6046 20.0932 14.9659 24 14.9659Z" fill="#EA4335"/>
</svg>
