<svg width="48" height="48" viewBox="0 0 48 48" fill="none" xmlns="http://www.w3.org/2000/svg">
<path d="M0 16.1C0 10.4051 0 7.55764 1.12587 5.39026C2.07462 3.56382 3.56382 2.07462 5.39026 1.12587C7.55764 0 10.4051 0 16.1 0H31.9C37.5949 0 40.4424 0 42.6097 1.12587C44.4362 2.07462 45.9254 3.56382 46.8741 5.39026C48 7.55764 48 10.4051 48 16.1V31.9C48 37.5949 48 40.4424 46.8741 42.6097C45.9254 44.4362 44.4362 45.9254 42.6097 46.8741C40.4424 48 37.5949 48 31.9 48H16.1C10.4051 48 7.55764 48 5.39026 46.8741C3.56382 45.9254 2.07462 44.4362 1.12587 42.6097C0 40.4424 0 37.5949 0 31.9V16.1Z" fill="white"/>
<path d="M16.0996 0.25H31.9004C34.7516 0.25 36.8749 0.250012 38.5566 0.389648C40.2354 0.529061 41.4521 0.806456 42.4941 1.34766C44.2749 2.27269 45.7273 3.72509 46.6523 5.50586C47.1935 6.54785 47.4709 7.76461 47.6104 9.44336C47.75 11.1251 47.75 13.2484 47.75 16.0996V31.9004C47.75 34.7516 47.75 36.8749 47.6104 38.5566C47.4709 40.2354 47.1935 41.4521 46.6523 42.4941C45.7273 44.2749 44.2749 45.7273 42.4941 46.6523C41.4521 47.1935 40.2354 47.4709 38.5566 47.6104C36.8749 47.75 34.7516 47.75 31.9004 47.75H16.0996C13.2484 47.75 11.1251 47.75 9.44336 47.6104C7.76461 47.4709 6.54785 47.1935 5.50586 46.6523C3.72509 45.7273 2.27269 44.2749 1.34766 42.4941C0.806456 41.4521 0.529061 40.2354 0.389648 38.5566C0.250012 36.8749 0.25 34.7516 0.25 31.9004V16.0996C0.25 13.2484 0.250012 11.1251 0.389648 9.44336C0.529061 7.76461 0.806455 6.54785 1.34766 5.50586C2.27269 3.72509 3.72509 2.27269 5.50586 1.34766C6.54785 0.806455 7.76461 0.529061 9.44336 0.389648C11.1251 0.250012 13.2484 0.25 16.0996 0.25Z" stroke="black" stroke-opacity="0.15" stroke-width="0.5"/>
<path fill-rule="evenodd" clip-rule="evenodd" d="M38.4 24.3409C38.4 23.2773 38.3046 22.2545 38.1273 21.2727H24V27.075H32.0727C31.725 28.95 30.6682 30.5386 29.0796 31.6023V35.3659H33.9273C36.7637 32.7545 38.4 28.9091 38.4 24.3409Z" fill="#4285F4"/>
<path fill-rule="evenodd" clip-rule="evenodd" d="M24 39.0001C28.05 39.0001 31.4455 37.6569 33.9273 35.366L29.0796 31.6024C27.7364 32.5024 26.0182 33.0342 24 33.0342C20.0932 33.0342 16.7864 30.3956 15.6068 26.8501H10.5955V30.7365C13.0636 35.6387 18.1364 39.0001 24 39.0001Z" fill="#34A853"/>
<path fill-rule="evenodd" clip-rule="evenodd" d="M15.6068 26.85C15.3068 25.95 15.1364 24.9887 15.1364 24C15.1364 23.0114 15.3068 22.05 15.6068 21.15V17.2637H10.5955C9.57955 19.2887 9 21.5796 9 24C9 26.4205 9.57955 28.7114 10.5955 30.7364L15.6068 26.85Z" fill="#FBBC05"/>
<path fill-rule="evenodd" clip-rule="evenodd" d="M24 14.9659C26.2023 14.9659 28.1796 15.7227 29.7341 17.2091L34.0364 12.9068C31.4387 10.4864 28.0432 9 24 9C18.1364 9 13.0636 12.3614 10.5955 17.2636L15.6068 21.15C16.7864 17.6046 20.0932 14.9659 24 14.9659Z" fill="#EA4335"/>
</svg>
