<svg width="48" height="48" viewBox="0 0 48 48" fill="none" xmlns="http://www.w3.org/2000/svg">
<path d="M13.1032 16.8397C15.0669 16.8397 16.6588 15.2478 16.6588 13.2841C16.6588 11.3204 15.0669 9.72852 13.1032 9.72852C11.1395 9.72852 9.54761 11.3204 9.54761 13.2841C9.54761 15.2478 11.1395 16.8397 13.1032 16.8397Z" fill="#1C1A1A"/>
<path d="M19.9151 19.4674H25.8079V22.1669C25.8079 22.1669 27.407 18.9688 31.7578 18.9688C35.639 18.9688 38.8541 20.8807 38.8541 26.7085V38.9977H32.7476V28.1976C32.7476 24.7598 30.9122 24.3817 29.5136 24.3817C26.611 24.3817 26.1141 26.8853 26.1141 28.6461V38.9977H19.9151V19.4674Z" fill="#1C1A1A"/>
<path d="M10.0037 19.4673H16.2027V38.9976H10.0037V19.4673Z" fill="#1C1A1A"/>
</svg>
