<svg width="1" height="48" viewBox="0 0 1 48" fill="none" xmlns="http://www.w3.org/2000/svg">
<path d="M1 48H0V0H1V48ZM0.148438 17.9844V40.8564H0.299805V17.9844H0.148438ZM0.679688 17.4004C0.573534 17.4004 0.53418 21.1455 0.53418 21.1455V17.9844H0.390625V40.8564H0.541992V28.7334C0.541992 26.6713 0.554183 23.7393 0.625 23.7393C0.659101 23.7408 0.704102 24.1887 0.704102 28.208V40.8564H0.852539V26.4639C0.852538 19.6415 0.774334 17.402 0.679688 17.4004ZM0.224609 6.5791C0.176702 6.5791 0.1377 8.44267 0.137695 10.7422C0.137695 13.0419 0.176699 14.9062 0.224609 14.9062C0.272433 14.9014 0.311523 13.0389 0.311523 10.7422C0.311519 8.44602 0.272421 6.58451 0.224609 6.5791Z" fill="#1C1A1A"/>
</svg>
