<svg width="48" height="48" viewBox="0 0 48 48" fill="none" xmlns="http://www.w3.org/2000/svg">
<mask id="path-1-inside-1_9689_9615" fill="white">
<path fill-rule="evenodd" clip-rule="evenodd" d="M1.12587 5.39026C0 7.55764 0 10.4051 0 16.1V31.9C0 37.5949 0 40.4424 1.12587 42.6097C2.07462 44.4362 3.56382 45.9254 5.39026 46.8741C7.55764 48 10.4051 48 16.1 48H31.9C37.5949 48 40.4424 48 42.6097 46.8741C44.4362 45.9254 45.9254 44.4362 46.8741 42.6097C48 40.4424 48 37.5949 48 31.9V16.1C48 10.4051 48 7.55764 46.8741 5.39026C45.9254 3.56382 44.4362 2.07462 42.6097 1.12587C40.4424 0 37.5949 0 31.9 0H16.1C10.4051 0 7.55764 0 5.39026 1.12587C3.56382 2.07462 2.07462 3.56382 1.12587 5.39026ZM24 14.9659C26.2023 14.9659 28.1796 15.7227 29.7341 17.2091L34.0364 12.9068C31.4387 10.4864 28.0432 9 24 9C18.1364 9 13.0636 12.3614 10.5955 17.2637C9.57955 19.2887 9 21.5796 9 24C9 26.4205 9.57958 28.7114 10.5955 30.7364C13.0637 35.6386 18.1364 39 24 39C28.05 39 31.4455 37.6568 33.9273 35.366C36.7637 32.7546 38.4 28.9091 38.4 24.341C38.4 23.2773 38.3046 22.2546 38.1273 21.2728H24V27.075H32.0728C31.725 28.95 30.6682 30.5386 29.0796 31.6023C27.7364 32.5023 26.0182 33.0341 24 33.0341C20.0932 33.0341 16.7864 30.3954 15.6068 26.85C15.3068 25.95 15.1364 24.9887 15.1364 24C15.1364 23.0114 15.3068 22.05 15.6068 21.15C16.7864 17.6046 20.0932 14.9659 24 14.9659Z"/>
</mask>
<path fill-rule="evenodd" clip-rule="evenodd" d="M1.12587 5.39026C0 7.55764 0 10.4051 0 16.1V31.9C0 37.5949 0 40.4424 1.12587 42.6097C2.07462 44.4362 3.56382 45.9254 5.39026 46.8741C7.55764 48 10.4051 48 16.1 48H31.9C37.5949 48 40.4424 48 42.6097 46.8741C44.4362 45.9254 45.9254 44.4362 46.8741 42.6097C48 40.4424 48 37.5949 48 31.9V16.1C48 10.4051 48 7.55764 46.8741 5.39026C45.9254 3.56382 44.4362 2.07462 42.6097 1.12587C40.4424 0 37.5949 0 31.9 0H16.1C10.4051 0 7.55764 0 5.39026 1.12587C3.56382 2.07462 2.07462 3.56382 1.12587 5.39026ZM24 14.9659C26.2023 14.9659 28.1796 15.7227 29.7341 17.2091L34.0364 12.9068C31.4387 10.4864 28.0432 9 24 9C18.1364 9 13.0636 12.3614 10.5955 17.2637C9.57955 19.2887 9 21.5796 9 24C9 26.4205 9.57958 28.7114 10.5955 30.7364C13.0637 35.6386 18.1364 39 24 39C28.05 39 31.4455 37.6568 33.9273 35.366C36.7637 32.7546 38.4 28.9091 38.4 24.341C38.4 23.2773 38.3046 22.2546 38.1273 21.2728H24V27.075H32.0728C31.725 28.95 30.6682 30.5386 29.0796 31.6023C27.7364 32.5023 26.0182 33.0341 24 33.0341C20.0932 33.0341 16.7864 30.3954 15.6068 26.85C15.3068 25.95 15.1364 24.9887 15.1364 24C15.1364 23.0114 15.3068 22.05 15.6068 21.15C16.7864 17.6046 20.0932 14.9659 24 14.9659Z" fill="#1C1A1A"/>
<path d="M1.12587 5.39026L1.56957 5.62074V5.62074L1.12587 5.39026ZM1.12587 42.6097L0.682159 42.8402H0.682159L1.12587 42.6097ZM5.39026 46.8741L5.15977 47.3178V47.3178L5.39026 46.8741ZM42.6097 46.8741L42.8402 47.3178V47.3178L42.6097 46.8741ZM46.8741 42.6097L47.3178 42.8402V42.8402L46.8741 42.6097ZM46.8741 5.39026L47.3178 5.15977V5.15977L46.8741 5.39026ZM42.6097 1.12587L42.8402 0.682159V0.682159L42.6097 1.12587ZM5.39026 1.12587L5.62074 1.56957V1.56957L5.39026 1.12587ZM29.7341 17.2091L29.3886 17.5705L29.742 17.9084L30.0877 17.5627L29.7341 17.2091ZM34.0364 12.9068L34.39 13.2604L34.7562 12.8941L34.3773 12.541L34.0364 12.9068ZM10.5955 17.2637L10.1489 17.0388L10.1485 17.0395L10.5955 17.2637ZM10.5955 30.7364L10.1486 30.9606L10.1489 30.9612L10.5955 30.7364ZM33.9273 35.366L33.5886 34.9981L33.5882 34.9986L33.9273 35.366ZM38.1273 21.2728L38.6194 21.1839L38.5451 20.7728H38.1273V21.2728ZM24 21.2728V20.7728H23.5V21.2728H24ZM24 27.075H23.5V27.575H24V27.075ZM32.0728 27.075L32.5644 27.1662L32.674 26.575H32.0728V27.075ZM29.0796 31.6023L28.8014 31.1868L28.8013 31.1869L29.0796 31.6023ZM15.6068 26.85L16.0812 26.6921L16.0811 26.6919L15.6068 26.85ZM15.6068 21.15L16.0812 21.3081L16.0813 21.3079L15.6068 21.15ZM0 16.1H0.5C0.5 13.2442 0.500402 11.1328 0.639018 9.46369C0.777137 7.80052 1.04989 6.62117 1.56957 5.62074L1.12587 5.39026L0.682159 5.15977C0.0759738 6.32672 -0.214204 7.6548 -0.357552 9.38093C-0.500402 11.1011 -0.5 13.2609 -0.5 16.1H0ZM0 31.9H0.5V16.1H0H-0.5V31.9H0ZM1.12587 42.6097L1.56957 42.3793C1.04989 41.3788 0.777137 40.1995 0.639018 38.5363C0.500402 36.8672 0.5 34.7558 0.5 31.9H0H-0.5C-0.5 34.7391 -0.500402 36.8989 -0.357552 38.6191C-0.214204 40.3452 0.0759738 41.6733 0.682159 42.8402L1.12587 42.6097ZM5.39026 46.8741L5.62074 46.4304C3.88563 45.5291 2.47089 44.1144 1.56957 42.3793L1.12587 42.6097L0.682159 42.8402C1.67835 44.758 3.24202 46.3216 5.15977 47.3178L5.39026 46.8741ZM16.1 48V47.5C13.2442 47.5 11.1328 47.4996 9.46369 47.361C7.80052 47.2229 6.62117 46.9501 5.62074 46.4304L5.39026 46.8741L5.15977 47.3178C6.32672 47.924 7.6548 48.2142 9.38093 48.3576C11.1011 48.5004 13.2609 48.5 16.1 48.5V48ZM31.9 48V47.5H16.1V48V48.5H31.9V48ZM42.6097 46.8741L42.3793 46.4304C41.3788 46.9501 40.1995 47.2229 38.5363 47.361C36.8672 47.4996 34.7558 47.5 31.9 47.5V48V48.5C34.7391 48.5 36.8989 48.5004 38.6191 48.3576C40.3452 48.2142 41.6733 47.924 42.8402 47.3178L42.6097 46.8741ZM46.8741 42.6097L46.4304 42.3793C45.5291 44.1144 44.1144 45.5291 42.3793 46.4304L42.6097 46.8741L42.8402 47.3178C44.758 46.3216 46.3216 44.758 47.3178 42.8402L46.8741 42.6097ZM48 31.9H47.5C47.5 34.7558 47.4996 36.8672 47.361 38.5363C47.2229 40.1995 46.9501 41.3788 46.4304 42.3793L46.8741 42.6097L47.3178 42.8402C47.924 41.6733 48.2142 40.3452 48.3576 38.6191C48.5004 36.8989 48.5 34.7391 48.5 31.9H48ZM48 16.1H47.5V31.9H48H48.5V16.1H48ZM46.8741 5.39026L46.4304 5.62074C46.9501 6.62117 47.2229 7.80052 47.361 9.46369C47.4996 11.1328 47.5 13.2442 47.5 16.1H48H48.5C48.5 13.2609 48.5004 11.1011 48.3576 9.38093C48.2142 7.6548 47.924 6.32672 47.3178 5.15977L46.8741 5.39026ZM42.6097 1.12587L42.3793 1.56957C44.1144 2.47089 45.5291 3.88563 46.4304 5.62074L46.8741 5.39026L47.3178 5.15977C46.3216 3.24202 44.758 1.67835 42.8402 0.682159L42.6097 1.12587ZM31.9 0V0.5C34.7558 0.5 36.8672 0.500402 38.5363 0.639018C40.1995 0.777137 41.3788 1.04989 42.3793 1.56957L42.6097 1.12587L42.8402 0.682159C41.6733 0.0759738 40.3452 -0.214204 38.6191 -0.357552C36.8989 -0.500402 34.7391 -0.5 31.9 -0.5V0ZM16.1 0V0.5H31.9V0V-0.5H16.1V0ZM5.39026 1.12587L5.62074 1.56957C6.62117 1.04989 7.80052 0.777137 9.46369 0.639018C11.1328 0.500402 13.2442 0.5 16.1 0.5V0V-0.5C13.2609 -0.5 11.1011 -0.500402 9.38093 -0.357552C7.6548 -0.214204 6.32672 0.0759738 5.15977 0.682159L5.39026 1.12587ZM1.12587 5.39026L1.56957 5.62074C2.47089 3.88563 3.88563 2.47089 5.62074 1.56957L5.39026 1.12587L5.15977 0.682159C3.24202 1.67835 1.67835 3.24202 0.682159 5.15977L1.12587 5.39026ZM29.7341 17.2091L30.0797 16.8477C28.4267 15.2673 26.3234 14.4659 24 14.4659V14.9659V15.4659C26.0812 15.4659 27.9324 16.1782 29.3886 17.5705L29.7341 17.2091ZM34.0364 12.9068L33.6829 12.5533L29.3806 16.8556L29.7341 17.2091L30.0877 17.5627L34.39 13.2604L34.0364 12.9068ZM24 9V9.5C27.9119 9.5 31.1868 10.9351 33.6956 13.2726L34.0364 12.9068L34.3773 12.541C31.6906 10.0377 28.1745 8.5 24 8.5V9ZM10.5955 17.2637L11.042 17.4885C13.4286 12.7483 18.3326 9.5 24 9.5V9V8.5C17.9402 8.5 12.6987 11.9745 10.1489 17.0388L10.5955 17.2637ZM9 24H9.5C9.5 21.6601 10.0601 19.4457 11.0424 17.4879L10.5955 17.2637L10.1485 17.0395C9.09894 19.1316 8.5 21.4991 8.5 24H9ZM10.5955 30.7364L11.0424 30.5122C10.0602 28.5543 9.5 26.34 9.5 24H9H8.5C8.5 26.501 9.09898 28.8685 10.1486 30.9606L10.5955 30.7364ZM24 39V38.5C18.3326 38.5 13.4287 35.2517 11.0421 30.5115L10.5955 30.7364L10.1489 30.9612C12.6987 36.0256 17.9402 39.5 24 39.5V39ZM33.9273 35.366L33.5882 34.9986C31.2065 37.197 27.9354 38.5 24 38.5V39V39.5C28.1646 39.5 31.6844 38.1167 34.2664 35.7334L33.9273 35.366ZM38.4 24.341H37.9C37.9 28.787 36.3099 32.4927 33.5886 34.9981L33.9273 35.366L34.266 35.7338C37.2174 33.0165 38.9 29.0313 38.9 24.341H38.4ZM38.1273 21.2728L37.6353 21.3616C37.8073 22.3144 37.9 23.3074 37.9 24.341H38.4H38.9C38.9 23.2472 38.8019 22.1948 38.6194 21.1839L38.1273 21.2728ZM24 21.2728V21.7728H38.1273V21.2728V20.7728H24V21.2728ZM24 27.075H24.5V21.2728H24H23.5V27.075H24ZM32.0728 27.075V26.575H24V27.075V27.575H32.0728V27.075ZM29.0796 31.6023L29.3578 32.0177C31.0566 30.8803 32.1917 29.1756 32.5644 27.1662L32.0728 27.075L31.5811 26.9839C31.2583 28.7244 30.2798 30.1969 28.8014 31.1868L29.0796 31.6023ZM24 33.0341V33.5341C26.1074 33.5341 27.9245 32.9781 29.3579 32.0176L29.0796 31.6023L28.8013 31.1869C27.5483 32.0264 25.9291 32.5341 24 32.5341V33.0341ZM15.6068 26.85L15.1324 27.0078C16.3743 30.7407 19.8606 33.5341 24 33.5341V33.0341V32.5341C20.3258 32.5341 17.1984 30.0501 16.0812 26.6921L15.6068 26.85ZM15.1364 24H14.6364C14.6364 25.0462 14.8167 26.0609 15.1325 27.0081L15.6068 26.85L16.0811 26.6919C15.7969 25.8391 15.6364 24.9311 15.6364 24H15.1364ZM15.6068 21.15L15.1325 20.9919C14.8167 21.9392 14.6364 22.9539 14.6364 24H15.1364H15.6364C15.6364 23.0689 15.7969 22.1609 16.0812 21.3081L15.6068 21.15ZM24 14.9659V14.4659C19.8606 14.4659 16.3743 17.2593 15.1324 20.9922L15.6068 21.15L16.0813 21.3079C17.1984 17.9499 20.3258 15.4659 24 15.4659V14.9659Z" fill="black" fill-opacity="0.15" mask="url(#path-1-inside-1_9689_9615)"/>
</svg>
