<svg width="48" height="48" viewBox="0 0 48 48" fill="none" xmlns="http://www.w3.org/2000/svg">
<path d="M34.42 21.2C34.474 21.1855 34.536 21.1771 34.6 21.1771C34.6639 21.1771 34.726 21.1855 34.785 21.2011L34.78 21.2C34.8973 21.238 34.9978 21.2998 35.0801 21.3802C35.1667 21.4619 35.2347 21.562 35.2781 21.6745L35.28 21.68C35.2941 21.731 35.3023 21.7896 35.3023 21.85C35.3023 21.9105 35.2941 21.969 35.2789 22.0246L35.28 22.02C35.2934 22.0741 35.3011 22.1362 35.3011 22.2C35.3011 22.2639 35.2934 22.3259 35.2789 22.3853L35.28 22.38C35.2242 22.4946 35.1574 22.5933 35.0789 22.6813L35.08 22.68C34.9979 22.7602 34.8974 22.822 34.7854 22.8585L34.7801 22.86C34.7259 22.87 34.6637 22.8757 34.6001 22.8757C34.5364 22.8757 34.4742 22.87 34.4137 22.8591L34.4201 22.8601H31.9401V24.46H34.4201C34.4737 24.4405 34.5356 24.4292 34.6001 24.4292C34.6646 24.4292 34.7265 24.4405 34.7838 24.4612L34.7801 24.46C34.903 24.503 35.0093 24.5642 35.1017 24.6414L35.1 24.64C35.1799 24.7257 35.247 24.8247 35.2972 24.9331L35.3001 24.9401C35.3099 24.9912 35.3156 25.05 35.3156 25.1101C35.3156 25.1702 35.3099 25.229 35.2991 25.2859L35.3001 25.2801C35.3092 25.3342 35.3144 25.3965 35.3144 25.4601C35.3144 25.5236 35.3092 25.586 35.2992 25.6467L35.3001 25.64L35.1 25.94C35.0093 26.0159 34.903 26.077 34.7872 26.1178L34.78 26.12C34.7259 26.1309 34.6637 26.1371 34.6 26.1371C34.5364 26.1371 34.4742 26.1309 34.414 26.119L34.42 26.12H31C30.994 26.1202 30.9869 26.1203 30.9798 26.1203C30.4938 26.1203 30.0998 25.7263 30.0998 25.2403C30.0998 25.2331 30.0999 25.226 30.1001 25.219L30.1 25.22V18.7C30.1 18.203 30.503 17.8 31 17.8H34.3801C34.6194 17.8052 34.8327 17.9121 34.9793 18.0791L34.9801 18.08C35.1288 18.2344 35.2204 18.4447 35.2204 18.6764C35.2204 18.6847 35.2203 18.693 35.22 18.7013L35.2201 18.7C35.2201 18.7036 35.2202 18.7078 35.2202 18.7121C35.2202 18.9411 35.1285 19.1486 34.9799 19.3001C34.8326 19.4681 34.6194 19.5748 34.381 19.58H31.9401V21.2H34.42ZM29 25.44C29.0001 25.446 29.0002 25.4531 29.0002 25.4602C29.0002 25.9462 28.6062 26.3402 28.1202 26.3402C28.1131 26.3402 28.106 26.3401 28.0989 26.34L28.1 26.34C27.9536 26.3371 27.8163 26.3005 27.6949 26.2376L27.7 26.24C27.5666 26.1867 27.4573 26.0967 27.3816 25.9825L27.38 25.98L23.9 21.2V25.44C23.9002 25.446 23.9003 25.4531 23.9003 25.4602C23.9003 25.9462 23.5063 26.3402 23.0202 26.3402C23.0131 26.3402 23.006 26.3401 22.999 26.34L23 26.34C23 26.34 23.0001 26.34 23 26.34C22.514 26.34 22.1198 25.946 22.1198 25.46C22.1198 25.4529 22.1198 25.4459 22.12 25.4389L22.12 25.44V18.68C22.12 18.6783 22.1199 18.6763 22.1199 18.6742C22.1199 18.2884 22.3682 17.9606 22.7138 17.8418L22.72 17.8399L23 17.7999C23.2859 17.8065 23.538 17.9455 23.6983 18.1577L23.6999 18.1599L27.1799 22.8799V18.6799C27.1911 18.1915 27.5897 17.7999 28.0797 17.7999C28.5697 17.7999 28.9688 18.1915 28.9799 18.6789L28.98 18.6799L29 25.44ZM20.86 25.44C20.8601 25.446 20.8602 25.4531 20.8602 25.4602C20.8602 25.9462 20.4663 26.3402 19.9802 26.3402C19.9731 26.3402 19.966 26.3401 19.9589 26.34L19.96 26.34C19.7175 26.3387 19.4985 26.2396 19.3401 26.0801C19.1529 25.9231 19.027 25.6984 19.0004 25.4442L19 25.44V18.68C19.0674 18.2438 19.4402 17.9138 19.89 17.9138C20.3399 17.9138 20.7126 18.2439 20.7794 18.675L20.78 18.68L20.86 25.44ZM17.36 26.34H13.96C13.7175 26.3387 13.4984 26.2396 13.3401 26.0801C13.1545 25.9219 13.0292 25.6978 13.0004 25.4445L13 25.44V18.68C13.0112 18.1916 13.4098 17.8 13.8998 17.8C14.3898 17.8 14.7888 18.1916 14.8 18.679L14.8 18.68V24.56H17.3401C17.3495 24.5596 17.3607 24.5594 17.3719 24.5594C17.611 24.5594 17.8268 24.6593 17.9797 24.8197C18.1393 24.9781 18.2388 25.1975 18.2401 25.4398C18.2355 25.688 18.1374 25.9127 17.9796 26.0805C17.8143 26.2411 17.589 26.3397 17.3401 26.34H17.36ZM41 21.8C41 14.2 33.36 8 24 8C14.64 8 7 14.2 7 21.8C7 28.62 13 34.34 21.22 35.42C21.78 35.54 22.52 35.78 22.72 36.26C22.7676 36.4915 22.7948 36.7576 22.7948 37.03C22.7948 37.3024 22.7676 37.5685 22.7157 37.8256L22.72 37.8L22.54 39.2C22.54 39.62 22.2 40.88 24.02 40.12C29.1556 37.3538 33.5622 34.025 37.3923 30.1278L37.4 30.12C39.5483 27.9867 40.9068 25.0606 40.9996 21.8173L41 21.8Z" fill="#1C1A1A"/>
</svg>
