<svg width="48" height="48" viewBox="0 0 48 48" fill="none" xmlns="http://www.w3.org/2000/svg">
<path d="M29.7341 17.2091C28.1796 15.7227 26.2023 14.9659 24 14.9659C20.0932 14.9659 16.7864 17.6046 15.6068 21.15C15.3068 22.05 15.1364 23.0114 15.1364 24C15.1364 24.9887 15.3068 25.95 15.6068 26.85C16.7864 30.3954 20.0932 33.0341 24 33.0341C26.0182 33.0341 27.7364 32.5023 29.0796 31.6023C30.6682 30.5386 31.725 28.95 32.0728 27.075H24V21.2728H38.1273C38.3046 22.2546 38.4 23.2773 38.4 24.341C38.4 28.9091 36.7637 32.7546 33.9273 35.366C31.4455 37.6568 28.05 39 24 39C18.1364 39 13.0637 35.6387 10.5955 30.7364C9.57958 28.7114 9 26.4205 9 24C9 21.5796 9.57955 19.2887 10.5955 17.2637C13.0636 12.3614 18.1364 9 24 9C28.0432 9 31.4387 10.4864 34.0364 12.9068L29.7341 17.2091Z" fill="#1C1A1A"/>
</svg>
