<svg width="48" height="48" viewBox="0 0 48 48" fill="none" xmlns="http://www.w3.org/2000/svg">
<path d="M35.6459 20.6853C35.7063 20.6692 35.7756 20.6599 35.8471 20.6599C35.9185 20.6599 35.9878 20.6692 36.0538 20.6866L36.0482 20.6853C36.1793 20.7276 36.2917 20.7964 36.3837 20.8858C36.4805 20.9767 36.5564 21.088 36.605 21.2133L36.6071 21.2194C36.6229 21.2761 36.632 21.3412 36.632 21.4085C36.632 21.4758 36.6229 21.5409 36.6059 21.6028L36.6071 21.5976C36.6221 21.6578 36.6306 21.7268 36.6306 21.7979C36.6306 21.8689 36.622 21.938 36.6059 22.0041L36.6071 21.9981C36.5446 22.1256 36.4701 22.2355 36.3823 22.3333L36.3836 22.3319C36.2917 22.4211 36.1794 22.4899 36.0543 22.5305L36.0483 22.5322C35.9878 22.5433 35.9182 22.5496 35.8471 22.5496C35.776 22.5496 35.7064 22.5433 35.6389 22.5311L35.646 22.5322H32.8742V24.3122H35.646C35.7059 24.2905 35.775 24.2779 35.8471 24.2779C35.9192 24.2779 35.9884 24.2905 36.0525 24.3136L36.0483 24.3122C36.1858 24.3601 36.3045 24.4281 36.4077 24.514L36.4059 24.5125C36.4952 24.6077 36.5701 24.7179 36.6262 24.8385L36.6295 24.8463C36.6405 24.9031 36.6468 24.9685 36.6468 25.0354C36.6468 25.1022 36.6405 25.1677 36.6284 25.231L36.6295 25.2245C36.6396 25.2847 36.6455 25.3541 36.6455 25.4248C36.6455 25.4955 36.6396 25.5648 36.6285 25.6324L36.6295 25.625L36.4059 25.9588C36.3045 26.0432 36.1857 26.1112 36.0562 26.1566L36.0483 26.159C35.9878 26.171 35.9182 26.178 35.8471 26.178C35.776 26.178 35.7064 26.171 35.6391 26.1579L35.6459 26.159H31.8236C31.8169 26.1592 31.8089 26.1593 31.801 26.1593C31.2578 26.1593 30.8174 25.7209 30.8174 25.1802C30.8174 25.1723 30.8175 25.1644 30.8177 25.1565L30.8177 25.1577V17.9041C30.8177 17.3511 31.2681 16.9028 31.8236 16.9028H35.6012C35.8687 16.9085 36.1071 17.0275 36.271 17.2133L36.2718 17.2143C36.4381 17.386 36.5404 17.62 36.5404 17.8777C36.5404 17.887 36.5403 17.8962 36.54 17.9054L36.5401 17.9041C36.5401 17.9081 36.5402 17.9127 36.5402 17.9174C36.5402 18.1722 36.4378 18.4032 36.2717 18.5717C36.107 18.7585 35.8687 18.8773 35.6023 18.883H32.8742V20.6853H35.6459ZM29.5882 25.4025C29.5884 25.4091 29.5885 25.417 29.5885 25.4249C29.5885 25.9656 29.1481 26.404 28.6049 26.404C28.597 26.404 28.5891 26.4039 28.5812 26.4037L28.5823 26.4037C28.4187 26.4006 28.2653 26.3598 28.1296 26.2898L28.1353 26.2925C27.9862 26.2331 27.864 26.133 27.7794 26.006L27.7777 26.0032L23.8883 20.6853V25.4025C23.8884 25.4091 23.8885 25.417 23.8885 25.4249C23.8885 25.9656 23.4482 26.404 22.905 26.404C22.897 26.404 22.8891 26.4039 22.8812 26.4037L22.8824 26.4037C22.8823 26.4037 22.8825 26.4037 22.8824 26.4037C22.3392 26.4037 21.8986 25.9654 21.8986 25.4247C21.8986 25.4169 21.8986 25.4091 21.8988 25.4013L21.8988 25.4024V17.8818C21.8988 17.8799 21.8988 17.8776 21.8988 17.8754C21.8988 17.4461 22.1763 17.0814 22.5625 16.9493L22.5694 16.9472L22.8823 16.9027C23.2019 16.91 23.4836 17.0646 23.6628 17.3007L23.6646 17.3032L27.554 22.5543V17.8817C27.5665 17.3383 28.012 16.9026 28.5597 16.9026C29.1073 16.9026 29.5533 17.3383 29.5658 17.8805L29.5658 17.8816L29.5882 25.4025ZM20.4906 25.4025C20.4908 25.4091 20.4909 25.417 20.4909 25.4249C20.4909 25.9656 20.0505 26.404 19.5073 26.404C19.4994 26.404 19.4914 26.4039 19.4835 26.4037L19.4847 26.4037C19.2137 26.4023 18.9689 26.292 18.7918 26.1145C18.5827 25.9399 18.4419 25.6899 18.4122 25.4071L18.4118 25.4025V17.8818C18.4871 17.3965 18.9037 17.0294 19.4065 17.0294C19.9092 17.0294 20.3259 17.3966 20.4005 17.8762L20.4012 17.8818L20.4906 25.4025ZM16.5788 26.4037H12.7788C12.5078 26.4023 12.263 26.292 12.086 26.1145C11.8786 25.9385 11.7385 25.6892 11.7063 25.4074L11.7059 25.4025V17.8818C11.7184 17.3385 12.1639 16.9028 12.7115 16.9028C13.2592 16.9028 13.7052 17.3384 13.7177 17.8806L13.7177 17.8818V24.4234H16.5565C16.5671 24.423 16.5796 24.4227 16.5921 24.4227C16.8593 24.4227 17.1005 24.5339 17.2715 24.7123C17.4498 24.8886 17.561 25.1327 17.5624 25.4022C17.5573 25.6784 17.4476 25.9284 17.2713 26.115C17.0866 26.2937 16.8348 26.4034 16.5566 26.4037H16.5788ZM43 21.3529C43 12.8977 34.4612 6 24 6C13.5388 6 5 12.8976 5 21.3529C5 28.9403 11.7059 35.3039 20.8929 36.5054C21.5188 36.6389 22.3459 36.9059 22.5694 37.44C22.6226 37.6975 22.653 37.9935 22.653 38.2966C22.653 38.5997 22.6226 38.8957 22.5646 39.1818L22.5694 39.1533L22.3682 40.7108C22.3682 41.1781 21.9882 42.5799 24.0223 41.7343C29.7621 38.6568 34.6871 34.9535 38.9678 30.6178L38.9765 30.609C41.3775 28.2358 42.8959 24.9803 42.9996 21.3721L43 21.3529Z" fill="#06C755"/>
</svg>
