<svg width="40" height="40" viewBox="0 0 40 40" fill="none" xmlns="http://www.w3.org/2000/svg">
<path d="M19.9999 40C-6.66889 39.5287 -6.66465 0.467469 20.0008 0C46.6687 0.471303 46.6644 39.5325 19.9999 40Z" fill="#A1B1B3"/>
<path fill-rule="evenodd" clip-rule="evenodd" d="M32 20.0706C32.0005 22.9459 30.9728 25.7272 29.1018 27.914C27.2308 30.1008 24.6393 31.5496 21.7934 32V23.5636H24.6115L25.1485 20.0706H21.7934C21.6805 17.1617 21.5673 15.53 25.2899 15.9208V12.9516C19.7142 11.7268 17.3886 14.547 18.0145 20.0706H14.9422V23.5636H18.0145V31.996C3.5528 29.7761 5.25251 7.94373 19.9 8.00011C21.4887 7.9998 23.0619 8.31177 24.5299 8.91821C25.9978 9.52464 27.3316 10.4137 28.4552 11.5345C29.5788 12.6554 30.4702 13.9861 31.0784 15.4507C31.6866 16.9153 31.9998 18.4852 32 20.0706Z" fill="white"/>
</svg>
