<svg width="48" height="48" viewBox="0 0 48 48" fill="none" xmlns="http://www.w3.org/2000/svg">
<rect width="48" height="48" fill="#1265BF"/>
<path d="M10.7739 14.9066C13.0736 14.9066 14.9378 13.0423 14.9378 10.7426C14.9378 8.44289 13.0736 6.57861 10.7739 6.57861C8.47414 6.57861 6.60986 8.44289 6.60986 10.7426C6.60986 13.0423 8.47414 14.9066 10.7739 14.9066Z" fill="white"/>
<path d="M18.7513 17.9839H25.6524V21.1453C25.6524 21.1453 27.5251 17.3999 32.6205 17.3999C37.1657 17.3999 40.931 19.639 40.931 26.464V40.856H33.7795V28.2079C33.7795 24.1818 31.6301 23.739 29.9922 23.739C26.593 23.739 26.0111 26.671 26.0111 28.7331V40.856H18.7513V17.9839Z" fill="white"/>
<path d="M7.144 17.9839H14.4037V40.856H7.144V17.9839Z" fill="white"/>
</svg>
