<svg width="48" height="48" viewBox="0 0 48 48" fill="none" xmlns="http://www.w3.org/2000/svg">
<path d="M37.179 0H10.821C4.84473 0 0 4.84473 0 10.821V37.179C0 43.1553 4.84473 48 10.821 48H37.179C43.1553 48 48 43.1553 48 37.179V10.821C48 4.84473 43.1553 0 37.179 0Z" fill="#06C755"/>
<path d="M39.9992 21.7382C39.9992 14.5787 32.8202 8.75269 23.9957 8.75269C15.1712 8.75269 7.99219 14.5787 7.99219 21.7382C7.99219 28.1582 13.6922 33.5357 21.3752 34.5512C21.8972 34.6637 22.6067 34.8947 22.7852 35.3402C22.9472 35.7452 22.8917 36.3797 22.8377 36.7877C22.8377 36.7877 22.6502 37.9172 22.6097 38.1572C22.5392 38.5622 22.2872 39.7397 23.9957 39.0212C25.7042 38.3027 33.2117 33.5942 36.5687 29.7287C38.8877 27.1862 39.9992 24.6002 39.9992 21.7382Z" fill="white"/>
<path d="M34.6735 25.8734H30.1735C30.094 25.8734 30.0177 25.8418 29.9614 25.7856C29.9051 25.7293 29.8735 25.653 29.8735 25.5734V18.5909V18.5834C29.8735 18.5039 29.9051 18.4276 29.9614 18.3713C30.0177 18.315 30.094 18.2834 30.1735 18.2834H34.6735C34.7531 18.2834 34.8294 18.315 34.8857 18.3713C34.9419 18.4276 34.9735 18.5039 34.9735 18.5834V19.7189C34.9735 19.7985 34.9419 19.8748 34.8857 19.9311C34.8294 19.9873 34.7531 20.0189 34.6735 20.0189H31.618V21.1964H34.6735C34.7531 21.1964 34.8294 21.2281 34.8857 21.2843C34.9419 21.3406 34.9735 21.4169 34.9735 21.4964V22.6499C34.9735 22.7295 34.9419 22.8058 34.8857 22.8621C34.8294 22.9183 34.7531 22.9499 34.6735 22.9499H31.618V24.1289H34.6735C34.7531 24.1289 34.8294 24.1606 34.8857 24.2168C34.9419 24.2731 34.9735 24.3494 34.9735 24.4289V25.5629C34.975 25.6032 34.9682 25.6434 34.9538 25.681C34.9393 25.7186 34.9175 25.7529 34.8895 25.7819C34.8615 25.8109 34.8279 25.8339 34.7908 25.8496C34.7537 25.8654 34.7138 25.8735 34.6735 25.8734Z" fill="#06C755"/>
<path d="M18.0434 25.8733C18.123 25.8733 18.1993 25.8417 18.2555 25.7854C18.3118 25.7292 18.3434 25.6529 18.3434 25.5733V24.4393C18.3434 24.3597 18.3118 24.2834 18.2555 24.2272C18.1993 24.1709 18.123 24.1393 18.0434 24.1393H14.9879V18.5893C14.9879 18.5097 14.9563 18.4334 14.9 18.3772C14.8438 18.3209 14.7675 18.2893 14.6879 18.2893H13.5539C13.4743 18.2893 13.398 18.3209 13.3418 18.3772C13.2855 18.4334 13.2539 18.5097 13.2539 18.5893V25.5688C13.2539 25.6484 13.2855 25.7247 13.3418 25.7809C13.398 25.8372 13.4743 25.8688 13.5539 25.8688H18.0539L18.0434 25.8733Z" fill="#06C755"/>
<path d="M20.7501 18.2776H19.6161C19.4471 18.2776 19.3101 18.4146 19.3101 18.5836V25.5676C19.3101 25.7366 19.4471 25.8736 19.6161 25.8736H20.7501C20.9191 25.8736 21.0561 25.7366 21.0561 25.5676V18.5836C21.0561 18.4146 20.9191 18.2776 20.7501 18.2776Z" fill="#06C755"/>
<path d="M28.476 18.2776H27.342C27.2625 18.2776 27.1862 18.3092 27.1299 18.3655C27.0736 18.4217 27.042 18.498 27.042 18.5776V22.7266L23.847 18.4111C23.8397 18.3997 23.8312 18.3891 23.8215 18.3796L23.8035 18.3616L23.787 18.3481H23.778L23.7615 18.3361H23.7525L23.736 18.3271H23.7255H23.709H23.6985H23.6805H23.6685H23.6505H23.6385H23.622H22.4655C22.386 18.3271 22.3097 18.3587 22.2534 18.415C22.1971 18.4712 22.1655 18.5475 22.1655 18.6271V25.6111C22.1655 25.6907 22.1971 25.767 22.2534 25.8232C22.3097 25.8795 22.386 25.9111 22.4655 25.9111H23.601C23.6806 25.9111 23.7569 25.8795 23.8132 25.8232C23.8694 25.767 23.901 25.6907 23.901 25.6111V21.4216L27.1005 25.7416C27.1215 25.7722 27.1479 25.7986 27.1785 25.8196L27.1965 25.8316H27.2055H27.2205H27.2355H27.246H27.267C27.2935 25.8381 27.3207 25.8417 27.348 25.8421H28.476C28.5556 25.8421 28.6319 25.8105 28.6882 25.7542C28.7444 25.698 28.776 25.6217 28.776 25.5421V18.5836C28.7768 18.5437 28.7697 18.504 28.7549 18.4669C28.7402 18.4299 28.7182 18.3961 28.6903 18.3676C28.6624 18.3391 28.629 18.3164 28.5922 18.301C28.5554 18.2855 28.5159 18.2776 28.476 18.2776Z" fill="#06C755"/>
</svg>
