<svg width="48" height="48" viewBox="0 0 48 48" fill="none" xmlns="http://www.w3.org/2000/svg">
<path d="M7 9.41333C7 8.08048 8.08048 7 9.41333 7H38.5867C39.9195 7 41 8.08048 41 9.41333V38.5866C41 39.9194 39.9195 40.9999 38.5867 40.9999H9.41333C8.08049 40.9999 7 39.9194 7 38.5866V9.41333Z" fill="#0A66C2"/>
<path d="M14.6314 17.5589C16.2603 17.5589 17.5809 16.2384 17.5809 14.6094C17.5809 12.9804 16.2603 11.6599 14.6314 11.6599C13.0024 11.6599 11.6819 12.9804 11.6819 14.6094C11.6819 16.2384 13.0024 17.5589 14.6314 17.5589Z" fill="white"/>
<path d="M20.2821 19.7387H25.1704V21.978C25.1704 21.978 26.4969 19.325 30.1061 19.325C33.3256 19.325 35.9927 20.911 35.9927 25.7454V35.9397H30.9271V26.9807C30.9271 24.1289 29.4045 23.8152 28.2444 23.8152C25.8366 23.8152 25.4244 25.892 25.4244 27.3527V35.9397H20.2821V19.7387Z" fill="white"/>
<path d="M12.0602 19.7387H17.2025V35.9397H12.0602V19.7387Z" fill="white"/>
</svg>
