<svg width="40" height="40" viewBox="0 0 40 40" fill="none" xmlns="http://www.w3.org/2000/svg">
<path d="M19.9999 40C-6.66889 39.5287 -6.66465 0.467469 20.0008 0C46.6687 0.471303 46.6644 39.5325 19.9999 40Z" fill="#A1B1B3"/>
<path d="M12.4265 13.853C13.7666 13.853 14.853 12.7666 14.853 11.4265C14.853 10.0864 13.7666 9 12.4265 9C11.0864 9 10 10.0864 10 11.4265C10 12.7666 11.0864 13.853 12.4265 13.853Z" fill="white"/>
<path d="M17.0752 15.6462H21.0967V17.4885C21.0967 17.4885 22.188 15.3059 25.1572 15.3059C27.8059 15.3059 30 16.6107 30 20.5879V28.9745H25.8326V21.6041C25.8326 19.258 24.5801 18.9999 23.6256 18.9999C21.6448 18.9999 21.3057 20.7085 21.3057 21.9101V28.9745H17.0752V15.6462Z" fill="white"/>
<path d="M10.3113 15.6462H14.5417V28.9744H10.3113V15.6462Z" fill="white"/>
</svg>
