<svg width="48" height="48" viewBox="0 0 48 48" fill="none" xmlns="http://www.w3.org/2000/svg">
<rect x="0.25" y="0.25" width="47.5" height="47.5" stroke="black" stroke-opacity="0.15" stroke-width="0.5"/>
<path fill-rule="evenodd" clip-rule="evenodd" d="M48 0H0V48H48V0ZM24 14.9659C26.2023 14.9659 28.1796 15.7227 29.7341 17.2091L34.0364 12.9068C31.4387 10.4864 28.0432 9 24 9C18.1364 9 13.0636 12.3614 10.5955 17.2637C9.57955 19.2887 9 21.5796 9 24C9 26.4205 9.57958 28.7114 10.5955 30.7364C13.0637 35.6386 18.1364 39 24 39C28.05 39 31.4455 37.6568 33.9273 35.366C36.7637 32.7546 38.4 28.9091 38.4 24.341C38.4 23.2773 38.3046 22.2546 38.1273 21.2728H24V27.075H32.0728C31.725 28.95 30.6682 30.5386 29.0796 31.6023C27.7364 32.5023 26.0182 33.0341 24 33.0341C20.0932 33.0341 16.7864 30.3954 15.6068 26.85C15.3068 25.95 15.1364 24.9887 15.1364 24C15.1364 23.0114 15.3068 22.05 15.6068 21.15C16.7864 17.6046 20.0932 14.9659 24 14.9659Z" fill="#1C1A1A"/>
</svg>
